<?xml version="1.0" standalone="no"?>
<!DOCTYPE svg PUBLIC "-//W3C//DTD SVG 1.1//EN" "http://www.w3.org/Graphics/SVG/1.1/DTD/svg11.dtd" >
<svg xmlns="http://www.w3.org/2000/svg" xmlns:xlink="http://www.w3.org/1999/xlink" version="1.1">
<metadata>
Created by FontForge 20150913 at Tue Mar 22 22:54:41 2016
 By Jimmy Wärting
Copyright 1995, 2002 Adobe Systems Incorporated. All rights reserved. ITC is a trademark of International Typeface Corporation registered in the U.S. Patent and Trademark Office and may be registered in certain other jurisdictions. Franklin Gothic is a trademark of International Typeface Corporation and may be registered in certain jurisdictions.
</metadata>
<defs>
<font id="ITCFranklinGothicStd-MdCd" horiz-adv-x="511" >
  <font-face 
    font-family="ITC Franklin Gothic Std"
    font-weight="500"
    font-stretch="condensed"
    units-per-em="1000"
    panose-1="2 11 7 6 3 5 3 2 2 4"
    ascent="686"
    descent="-314"
    x-height="493"
    cap-height="667"
    bbox="-156 -250 945 898"
    underline-thickness="50"
    underline-position="-100"
    stemh="82"
    stemv="102"
    unicode-range="U+0020-FB02"
  />
<missing-glyph horiz-adv-x="500" 
d="M0 0v700h500v-700h-500zM250 395l170 255h-340zM280 350l170 -255v510zM80 50h340l-170 255zM50 605v-510l170 255z" />
    <glyph glyph-name="f_i" unicode="fi" horiz-adv-x="477" 
d="M174 493h86v-82h-86v-411h-99v411h-65v82h65c2 92 3 193 144 193c22 0 33 -2 47 -4v-82c-7 1 -14 2 -25 2c-63 0 -67 -34 -67 -81v-28zM315 493h102v-493h-102v493zM419 560h-106v108h106v-108z" />
    <glyph glyph-name="f_l" unicode="fl" horiz-adv-x="477" 
d="M174 493h86v-82h-86v-411h-99v411h-65v82h65c2 92 3 193 144 193c22 0 33 -2 47 -4v-82c-7 1 -14 2 -25 2c-63 0 -67 -34 -67 -81v-28zM315 667h102v-667h-102v667z" />
    <glyph glyph-name=".notdef" horiz-adv-x="500" 
d="M0 0v700h500v-700h-500zM250 395l170 255h-340zM280 350l170 -255v510zM80 50h340l-170 255zM50 605v-510l170 255z" />
    <glyph glyph-name="space" unicode=" " horiz-adv-x="250" 
 />
    <glyph glyph-name="exclam" unicode="!" horiz-adv-x="341" 
d="M103 667h135l-34 -487h-67zM115 123h111v-123h-111v123z" />
    <glyph glyph-name="quotedbl" unicode="&#x22;" horiz-adv-x="375" 
d="M163 667l-16 -274h-71l-16 274h103zM316 667l-16 -274h-71l-16 274h103z" />
    <glyph glyph-name="numbersign" unicode="#" 
d="M183 667h72l-33 -194h111l32 194h72l-32 -194h96l-11 -68h-96l-22 -129h96l-11 -68h-96l-35 -208h-72l35 208h-111l-35 -208h-72l35 208h-96l11 68h96l22 129h-96l11 68h96zM322 405h-111l-22 -129h111z" />
    <glyph glyph-name="dollar" unicode="$" 
d="M289 720v-66c101 -12 139 -59 163 -134l-79 -33c-20 56 -43 80 -87 89v-184c70 -20 180 -53 180 -186c0 -75 -35 -122 -68 -148c-40 -31 -77 -35 -109 -39v-85h-61v85c-124 16 -160 83 -182 161l87 29c14 -55 36 -93 98 -108v199c-44 13 -161 48 -161 178
c0 60 28 115 70 144c34 23 65 29 88 32v66h61zM231 409v165c-19 -5 -67 -19 -67 -83c0 -60 47 -76 67 -82zM286 284v-183c52 8 85 36 85 91c0 70 -58 85 -85 92z" />
    <glyph glyph-name="percent" unicode="%" horiz-adv-x="681" 
d="M174 673c79 0 131 -62 131 -172c0 -120 -59 -173 -131 -173c-75 0 -132 56 -132 173c0 112 54 172 132 172zM174 612c-27 0 -54 -14 -54 -111c0 -95 25 -112 54 -112c37 0 53 34 53 112c0 82 -19 111 -53 111zM508 339c77 0 131 -60 131 -173s-55 -172 -131 -172
c-79 0 -131 61 -131 172c0 117 56 173 131 173zM508 278c-31 0 -54 -22 -54 -113c0 -25 2 -52 9 -73c6 -17 16 -37 45 -37c31 0 53 22 53 111c0 81 -19 112 -53 112zM471 667h66l-325 -667h-66z" />
    <glyph glyph-name="ampersand" unicode="&#x26;" horiz-adv-x="630" 
d="M504 372l82 -18c-19 -102 -46 -163 -89 -227c16 -20 37 -45 70 -45c10 0 20 2 31 4v-86c-16 -4 -32 -9 -55 -9c-58 0 -88 36 -113 66c-31 -27 -80 -69 -170 -69c-143 0 -201 104 -201 196c0 94 55 155 145 197c-20 32 -58 93 -58 154c0 67 55 144 157 144
c108 0 150 -77 150 -145c0 -102 -90 -155 -122 -173l114 -164c14 22 39 64 59 175zM243 537c0 -41 27 -89 45 -116c42 25 77 65 77 114c0 41 -24 69 -60 69c-32 0 -62 -23 -62 -67zM383 121l-136 198c-27 -17 -82 -52 -82 -130c0 -66 40 -118 109 -118c60 0 89 30 109 50z
" />
    <glyph glyph-name="quoteright" unicode="&#x2019;" horiz-adv-x="221" 
d="M63 543v124h106v-121l-67 -125h-49l57 122h-47z" />
    <glyph glyph-name="parenleft" unicode="(" horiz-adv-x="324" 
d="M188 667h81c-76 -126 -114 -270 -114 -417c0 -96 18 -259 114 -417h-81c-89 127 -135 262 -135 417c0 223 101 369 135 417z" />
    <glyph glyph-name="parenright" unicode=")" horiz-adv-x="324" 
d="M136 -167h-81c76 126 114 270 114 417s-38 291 -114 417h81c22 -32 54 -78 83 -150c35 -87 52 -179 52 -267c0 -223 -101 -368 -135 -417z" />
    <glyph glyph-name="asterisk" unicode="*" 
d="M219 667h73l-11 -132l110 73l34 -67l-115 -51l115 -52l-34 -66l-110 73l11 -132h-73l11 132l-110 -73l-34 66l115 52l-115 51l34 67l110 -73z" />
    <glyph glyph-name="plus" unicode="+" 
d="M298 374h162v-81h-162v-164h-85v164h-162v81h162v164h85v-164z" />
    <glyph glyph-name="comma" unicode="," horiz-adv-x="239" 
d="M69 126h111v-120l-72 -147h-49l61 141h-51v126z" />
    <glyph glyph-name="hyphen" unicode="-" horiz-adv-x="290" 
d="M39 291h211v-82h-211v82z" />
    <glyph glyph-name="period" unicode="." horiz-adv-x="239" 
d="M64 126h111v-126h-111v126z" />
    <glyph glyph-name="slash" unicode="/" horiz-adv-x="477" 
d="M353 667h76l-368 -834h-76z" />
    <glyph glyph-name="zero" unicode="0" 
d="M255 679c176 0 218 -172 218 -337c0 -171 -33 -354 -218 -354c-175 0 -217 171 -217 337c0 173 34 354 217 354zM255 597c-88 0 -103 -122 -103 -264c0 -148 17 -263 103 -263c83 0 104 105 104 263c0 149 -18 264 -104 264z" />
    <glyph glyph-name="one" unicode="1" 
d="M438 82v-82h-331v82h115v457c-20 -24 -47 -55 -118 -95v103c58 33 104 72 145 127h81v-592h108z" />
    <glyph glyph-name="two" unicode="2" 
d="M132 453l-100 21c10 50 41 205 215 205c141 0 200 -98 200 -196c0 -97 -44 -199 -297 -386h301l-5 -97h-414v96c59 50 186 159 255 254c20 27 46 73 46 126c0 50 -23 112 -94 112c-90 0 -103 -103 -107 -135z" />
    <glyph glyph-name="three" unicode="3" 
d="M131 495l-93 22c11 39 46 162 208 162c109 0 193 -59 193 -179c0 -101 -66 -132 -104 -149c23 -7 60 -17 91 -59c26 -35 31 -78 31 -105c0 -133 -98 -199 -218 -199c-41 0 -119 9 -170 67c-35 38 -43 79 -49 111l95 23c6 -28 24 -114 119 -114c52 0 107 30 107 117
c0 112 -94 113 -135 113h-42v82h42c36 0 62 0 87 19c28 21 35 55 35 84c0 56 -28 104 -92 104c-78 0 -97 -68 -105 -99z" />
    <glyph glyph-name="four" unicode="4" 
d="M271 679h126v-436h83v-84h-83v-159h-107v159h-260v81zM118 240h177v341z" />
    <glyph glyph-name="five" unicode="5" 
d="M89 667h346l-10 -97h-253l-10 -185c20 25 50 62 124 62c98 0 183 -68 183 -222c0 -170 -107 -237 -219 -237c-49 0 -107 12 -152 57c-42 41 -50 80 -57 114l99 24c10 -39 26 -104 112 -104c43 0 67 18 80 35c25 32 30 75 30 107c0 65 -23 135 -107 135
c-71 0 -93 -48 -104 -73l-83 18z" />
    <glyph glyph-name="six" unicode="6" 
d="M474 517l-91 -29c-9 35 -26 105 -102 105c-106 0 -121 -139 -125 -262c15 32 47 99 142 99c89 0 182 -71 182 -218c0 -138 -83 -224 -205 -224c-148 0 -192 133 -200 162c-16 60 -21 119 -21 168c0 91 12 257 122 330c38 25 76 31 107 31c149 0 181 -122 191 -162z
M276 344c-87 0 -108 -84 -108 -135c0 -69 33 -136 106 -136c94 0 99 99 99 137c0 20 0 134 -97 134z" />
    <glyph glyph-name="seven" unicode="7" 
d="M56 570l8 97h385v-78c-38 -51 -98 -133 -146 -309c-37 -134 -36 -231 -36 -280h-117c1 307 148 501 200 570h-294z" />
    <glyph glyph-name="eight" unicode="8" 
d="M353 360c34 -17 124 -62 124 -177c0 -93 -65 -195 -227 -195c-36 0 -109 5 -160 49c-31 27 -56 72 -56 133c0 108 80 148 123 169c-37 23 -101 63 -101 157c0 79 50 183 205 183c53 0 123 -13 165 -70c24 -34 31 -71 31 -100c0 -94 -70 -131 -104 -149zM270 395
c41 22 91 49 91 112c0 48 -33 95 -100 95c-56 0 -99 -35 -99 -91c0 -67 57 -96 108 -116zM236 298c-39 -18 -103 -47 -103 -122c0 -74 58 -109 121 -109c60 0 117 33 117 99c0 75 -69 105 -135 132z" />
    <glyph glyph-name="nine" unicode="9" 
d="M44 134l95 28c9 -35 24 -89 94 -89c105 0 116 145 119 251c-18 -32 -49 -88 -136 -88c-108 0 -184 94 -184 219c0 117 69 224 210 224c175 0 214 -164 214 -321c0 -199 -52 -370 -230 -370c-133 0 -164 92 -182 146zM241 593c-53 0 -102 -40 -102 -135
c0 -74 33 -131 101 -131c80 0 103 80 103 133c0 59 -27 133 -102 133z" />
    <glyph glyph-name="colon" unicode=":" horiz-adv-x="239" 
d="M64 126h111v-126h-111v126zM64 493h111v-126h-111v126z" />
    <glyph glyph-name="semicolon" unicode=";" horiz-adv-x="239" 
d="M69 126h111v-120l-72 -147h-49l61 141h-51v126zM69 493h111v-126h-111v126z" />
    <glyph glyph-name="less" unicode="&#x3c;" 
d="M472 588v-100l-325 -155l325 -154v-101l-433 212v87z" />
    <glyph glyph-name="equal" unicode="=" 
d="M460 361h-409v81h409v-81zM460 224h-409v81h409v-81z" />
    <glyph glyph-name="greater" unicode="&#x3e;" 
d="M39 78v101l325 155l-325 154v100l433 -212v-86z" />
    <glyph glyph-name="question" unicode="?" horiz-adv-x="494" 
d="M133 454l-95 18c3 31 8 88 47 139c40 52 98 68 155 68c126 0 191 -79 191 -182c0 -95 -51 -140 -100 -181c-63 -52 -65 -66 -63 -138h-92c2 126 2 131 84 201c26 23 60 56 60 120s-37 93 -86 93c-90 0 -98 -97 -101 -138zM167 120h109v-120h-109v120z" />
    <glyph glyph-name="at" unicode="@" horiz-adv-x="596" 
d="M389 507h58l-29 -207c-1 -7 -6 -46 -6 -66c0 -29 10 -34 25 -34c45 0 84 69 84 176c0 177 -96 249 -205 249c-151 0 -236 -138 -236 -296c0 -157 84 -286 248 -286c90 0 146 33 177 52l23 -53c-34 -19 -104 -58 -203 -58c-188 0 -318 130 -318 342c0 197 113 358 311 358
c177 0 271 -129 271 -300c0 -153 -75 -248 -162 -248c-56 0 -64 30 -72 57c-11 -20 -31 -59 -87 -59c-62 0 -108 58 -108 161c0 115 54 219 142 219c54 0 71 -41 79 -61zM306 441c-49 0 -69 -81 -69 -144c0 -57 19 -90 46 -90c68 0 69 142 69 149c0 29 -5 85 -46 85z" />
    <glyph glyph-name="A" unicode="A" horiz-adv-x="494" 
d="M189 667h124l178 -667h-112l-42 167h-194l-41 -167h-106zM164 254h151l-75 306z" />
    <glyph glyph-name="B" unicode="B" horiz-adv-x="545" 
d="M64 667h201c64 0 131 0 172 -52c31 -39 38 -86 38 -118c0 -107 -68 -134 -99 -146c25 -8 49 -16 74 -40c22 -24 46 -64 46 -125c0 -59 -24 -125 -76 -154c-52 -30 -95 -32 -152 -32h-204v667zM172 582v-192h70c47 0 120 3 120 98c0 94 -76 94 -110 94h-80zM172 305v-217
h89c88 0 122 42 122 108c0 109 -96 109 -131 109h-80z" />
    <glyph glyph-name="C" unicode="C" horiz-adv-x="528" 
d="M399 224l102 -14c-8 -54 -33 -222 -218 -222c-217 0 -241 233 -241 343c0 106 21 348 243 348c186 0 209 -171 217 -228l-103 -14c-7 56 -20 151 -112 151c-115 0 -128 -154 -128 -260c0 -120 22 -249 128 -249c68 0 96 48 112 145z" />
    <glyph glyph-name="D" unicode="D" horiz-adv-x="562" 
d="M65 667h150c65 0 163 -10 227 -82c54 -63 78 -148 78 -246c0 -142 -53 -245 -126 -296c-47 -33 -110 -43 -171 -43h-158v667zM221 579h-46v-491h46c62 0 98 21 116 40c62 59 66 159 66 205c0 129 -40 246 -182 246z" />
    <glyph glyph-name="E" unicode="E" horiz-adv-x="460" 
d="M64 667h381v-88h-271v-192h213v-88h-213v-209h276v-90h-386v667z" />
    <glyph glyph-name="F" unicode="F" horiz-adv-x="426" 
d="M64 667h370v-88h-260v-200h208v-88h-208v-291h-110v667z" />
    <glyph glyph-name="G" unicode="G" horiz-adv-x="562" 
d="M291 342h222v-347h-59l-14 85c-18 -31 -55 -92 -160 -92c-189 0 -238 195 -238 336c0 122 28 355 250 355c154 0 198 -100 218 -203l-100 -25c-14 62 -31 137 -117 137c-103 0 -134 -108 -134 -254c0 -113 18 -255 136 -255c115 0 115 131 115 175h-119v88z" />
    <glyph glyph-name="H" unicode="H" horiz-adv-x="545" 
d="M64 667h110v-277h197v277h110v-667h-110v297h-197v-297h-110v667z" />
    <glyph glyph-name="I" unicode="I" horiz-adv-x="239" 
d="M64 667h110v-667h-110v667z" />
    <glyph glyph-name="J" unicode="J" horiz-adv-x="307" 
d="M135 667h110v-415c0 -134 0 -264 -175 -264c-31 0 -50 4 -86 12v91c16 -4 36 -9 65 -9c84 0 86 51 86 170v415z" />
    <glyph glyph-name="K" unicode="K" 
d="M64 667h110v-318l201 318h117l-172 -245l201 -422h-119l-149 330l-79 -111v-219h-110v667z" />
    <glyph glyph-name="L" unicode="L" horiz-adv-x="409" 
d="M64 667h110v-574h236v-93h-346v667z" />
    <glyph glyph-name="M" unicode="M" horiz-adv-x="715" 
d="M62 667h163l133 -481l136 481h157v-667h-104v569l-158 -569h-80l-155 570v-570h-92v667z" />
    <glyph glyph-name="N" unicode="N" horiz-adv-x="562" 
d="M60 667h130l220 -481v481h92v-667h-103l-247 534v-534h-92v667z" />
    <glyph glyph-name="O" unicode="O" horiz-adv-x="562" 
d="M282 679c199 0 239 -190 239 -346c0 -137 -31 -345 -238 -345c-200 0 -241 190 -241 345c0 153 40 346 240 346zM282 588c-57 0 -81 -32 -97 -68c-25 -57 -27 -146 -27 -187c0 -40 3 -129 27 -186c19 -43 45 -68 98 -68c56 0 80 34 95 68c25 59 27 150 27 186
c0 46 -3 131 -27 187c-15 33 -38 68 -96 68z" />
    <glyph glyph-name="P" unicode="P" horiz-adv-x="494" 
d="M64 667h165c73 0 143 -4 191 -55c41 -43 54 -101 54 -149c0 -47 -14 -126 -76 -168c-50 -35 -124 -35 -167 -35h-57v-260h-110v667zM229 582h-55v-234h55c51 0 129 0 129 117c0 20 -2 52 -23 82c-25 35 -58 35 -106 35z" />
    <glyph glyph-name="Q" unicode="Q" horiz-adv-x="562" 
d="M484 -58v-84c-18 -7 -34 -12 -65 -12c-71 0 -102 28 -119 60c-17 30 -17 56 -18 83c-192 0 -240 171 -240 344c0 157 42 346 240 346c212 0 238 -219 238 -346c0 -53 -6 -106 -18 -158c-27 -119 -92 -150 -134 -170c0 -42 7 -72 65 -72c23 0 38 4 51 9zM281 79
c48 0 123 19 123 254c0 34 -2 129 -27 186c-15 35 -38 69 -96 69c-56 0 -81 -33 -96 -68c-27 -62 -27 -163 -27 -187c0 -186 43 -254 123 -254z" />
    <glyph glyph-name="R" unicode="R" horiz-adv-x="528" 
d="M64 667h201c63 0 108 -9 143 -34c36 -26 70 -77 70 -156c0 -121 -74 -160 -103 -175l127 -302h-119l-105 279h-104v-279h-110v667zM260 582h-86v-218h85c79 0 110 48 110 114c0 104 -86 104 -109 104z" />
    <glyph glyph-name="S" unicode="S" 
d="M461 518l-94 -33c-21 62 -49 103 -118 103c-71 0 -91 -54 -91 -84c0 -60 54 -80 133 -111c77 -29 187 -71 187 -203c0 -96 -68 -202 -224 -202c-187 0 -220 141 -231 186l98 28c7 -30 27 -123 136 -123c92 0 108 65 108 96c0 63 -54 87 -114 109c-74 28 -105 40 -141 71
c-31 27 -60 74 -60 136c0 91 64 188 205 188c157 0 192 -115 206 -161z" />
    <glyph glyph-name="T" unicode="T" horiz-adv-x="375" 
d="M-16 667h406v-94h-149v-573h-110v573h-147v94z" />
    <glyph glyph-name="U" unicode="U" horiz-adv-x="545" 
d="M59 667h108v-414c0 -89 0 -174 111 -174c109 0 109 80 109 176v412h99v-407c0 -97 -2 -181 -69 -231c-26 -19 -67 -41 -145 -41c-210 0 -213 147 -213 265v414z" />
    <glyph glyph-name="V" unicode="V" horiz-adv-x="460" 
d="M-4 667h116l127 -532l127 532h97l-175 -669l-120 2z" />
    <glyph glyph-name="W" unicode="W" horiz-adv-x="698" 
d="M2 667h113l90 -500l104 500h96l103 -500l95 500h93l-140 -669h-100l-105 490l-104 -490h-101z" />
    <glyph glyph-name="X" unicode="X" horiz-adv-x="443" 
d="M8 667h123l95 -213l107 213h103l-155 -303l175 -364h-123l-114 255l-128 -255h-105l179 345z" />
    <glyph glyph-name="Y" unicode="Y" horiz-adv-x="409" 
d="M-31 667h120l122 -278l124 278h106l-185 -385v-282h-110v282z" />
    <glyph glyph-name="Z" unicode="Z" horiz-adv-x="426" 
d="M19 667h400v-77l-296 -497h303v-93h-425v85l292 492h-274v90z" />
    <glyph glyph-name="bracketleft" unicode="[" horiz-adv-x="324" 
d="M79 667h173v-56h-78v-722h78v-56h-173v834z" />
    <glyph glyph-name="backslash" unicode="\" horiz-adv-x="477" 
d="M124 667l368 -834h-76l-368 834h76z" />
    <glyph glyph-name="bracketright" unicode="]" horiz-adv-x="324" 
d="M245 -167h-173v56h78v722h-78v56h173v-834z" />
    <glyph glyph-name="asciicircum" unicode="^" 
d="M496 316h-96l-145 278l-144 -278h-96l189 358h103z" />
    <glyph glyph-name="underscore" unicode="_" horiz-adv-x="500" 
d="M0 -125v50h500v-50h-500z" />
    <glyph glyph-name="quoteleft" unicode="&#x2018;" horiz-adv-x="221" 
d="M159 432h-106v121l67 125h49l-57 -122h47v-124z" />
    <glyph glyph-name="a" unicode="a" horiz-adv-x="460" 
d="M151 353l-98 13c23 127 140 139 186 139c71 0 113 -26 136 -53c31 -34 31 -95 31 -148v-167c0 -42 0 -103 8 -137h-95c-5 24 -7 36 -7 82c-19 -35 -51 -94 -139 -94c-80 0 -138 51 -138 142c0 79 43 134 102 154c42 14 96 22 167 20v20c0 36 0 106 -73 106
c-65 0 -76 -56 -80 -77zM304 216v25c-16 1 -23 1 -30 1c-118 0 -133 -59 -133 -105c0 -59 32 -74 66 -74c43 0 97 44 97 153z" />
    <glyph glyph-name="b" unicode="b" horiz-adv-x="477" 
d="M59 667h101v-230c18 25 47 65 115 65c137 0 167 -149 167 -250c0 -54 -8 -193 -98 -242c-33 -18 -66 -20 -84 -20c-83 0 -105 44 -121 77c-9 -21 -13 -32 -22 -67h-58v667zM160 301v-92c0 -32 0 -142 87 -142c65 0 87 61 87 187c0 101 -15 173 -85 173
c-12 0 -36 -2 -57 -27c-32 -38 -32 -76 -32 -99z" />
    <glyph glyph-name="c" unicode="c" horiz-adv-x="409" 
d="M401 327l-98 -10c-7 58 -17 107 -74 107c-70 0 -87 -69 -87 -188c0 -44 0 -164 87 -164c63 0 70 65 74 107l98 -9c-8 -61 -25 -182 -180 -182c-160 0 -186 153 -186 257c0 115 32 260 193 260c147 0 166 -125 173 -178z" />
    <glyph glyph-name="d" unicode="d" horiz-adv-x="477" 
d="M317 667h101v-667h-94v75c-13 -29 -38 -84 -124 -84c-139 0 -165 158 -165 253c0 169 71 258 169 258c77 0 101 -44 113 -66v231zM317 205v85c0 32 0 64 -21 96c-11 16 -33 41 -68 41c-75 0 -85 -95 -85 -174c0 -84 9 -185 86 -185c29 0 52 16 67 39c13 20 21 44 21 98z
" />
    <glyph glyph-name="e" unicode="e" horiz-adv-x="443" 
d="M418 231h-278c0 -55 0 -166 95 -166c66 0 79 57 87 92l92 -13c-9 -37 -37 -156 -182 -156c-146 0 -196 122 -196 251c0 182 87 266 197 266c80 0 129 -47 149 -86c34 -67 35 -128 36 -188zM142 300h173c0 19 0 41 -9 70c-16 50 -56 60 -76 60c-62 0 -83 -63 -88 -130z
" />
    <glyph glyph-name="f" unicode="f" horiz-adv-x="256" 
d="M174 493h89v-82h-89v-411h-99v411h-65v82h65c2 91 3 193 143 193c29 0 44 -3 60 -6v-81c-9 2 -21 4 -38 4c-65 0 -66 -33 -66 -110z" />
    <glyph glyph-name="g" unicode="g" horiz-adv-x="443" 
d="M444 572l-1 -75c-9 2 -15 3 -23 3c-29 0 -46 -13 -54 -54c25 -31 38 -66 38 -106c0 -77 -54 -158 -171 -158c-28 0 -46 4 -63 9c-15 -7 -37 -16 -37 -44c0 -37 25 -38 125 -43c96 -6 192 -11 192 -133c0 -131 -133 -153 -224 -153c-70 0 -199 13 -199 124
c0 69 50 87 72 95c-19 12 -54 32 -54 82c0 61 51 87 73 98c-24 17 -64 45 -64 126c0 98 72 162 173 162c47 0 73 -12 94 -21c7 38 16 91 91 91c13 0 22 -2 32 -3zM232 438c-63 0 -73 -55 -73 -97c0 -15 0 -95 70 -95s70 83 70 95c0 23 -4 97 -67 97zM162 21
c-14 -7 -43 -23 -43 -63c0 -53 44 -69 119 -69c43 0 117 7 117 68c0 45 -36 55 -59 57c-19 2 -113 6 -134 7z" />
    <glyph glyph-name="h" unicode="h" horiz-adv-x="460" 
d="M60 667h102v-240c15 31 38 78 117 78c28 0 80 -7 107 -59c17 -33 17 -85 17 -135v-311h-102v311c0 56 0 112 -61 112c-70 0 -78 -83 -78 -141v-282h-102v667z" />
    <glyph glyph-name="i" unicode="i" horiz-adv-x="222" 
d="M60 493h102v-493h-102v493zM164 560h-107v108h107v-108z" />
    <glyph glyph-name="j" unicode="j" horiz-adv-x="222" 
d="M62 493h102v-475c0 -99 0 -195 -127 -195c-26 0 -44 4 -62 7v85c10 -3 21 -5 36 -5c51 0 51 27 51 110v473zM166 560h-106v108h106v-108z" />
    <glyph glyph-name="k" unicode="k" horiz-adv-x="426" 
d="M60 667h102v-394l159 220h101l-128 -170l142 -323h-110l-98 247l-66 -90v-157h-102v667z" />
    <glyph glyph-name="l" unicode="l" horiz-adv-x="222" 
d="M60 667h102v-667h-102v667z" />
    <glyph glyph-name="m" unicode="m" horiz-adv-x="698" 
d="M60 0v493h94v-75c17 36 41 87 122 87c91 0 105 -61 113 -92c12 29 38 92 125 92c29 0 80 -8 107 -52c20 -32 21 -91 21 -141v-312h-102v304c0 66 0 119 -60 119c-57 0 -78 -50 -78 -134v-289h-102v300c0 72 0 80 -10 97c-13 24 -38 26 -49 26c-79 0 -79 -85 -79 -136
v-287h-102z" />
    <glyph glyph-name="n" unicode="n" horiz-adv-x="460" 
d="M60 0v493h94v-76c12 27 37 88 122 88c32 0 83 -8 110 -61c16 -31 17 -77 17 -126v-318h-102v312c0 64 0 111 -59 111c-80 0 -80 -96 -80 -147v-276h-102z" />
    <glyph glyph-name="o" unicode="o" horiz-adv-x="460" 
d="M231 505c154 0 193 -133 193 -253c0 -115 -27 -264 -195 -264c-153 0 -193 131 -193 259c0 119 33 258 195 258zM230 428c-62 0 -86 -62 -86 -182c0 -129 29 -181 86 -181s86 50 86 182c0 127 -28 181 -86 181z" />
    <glyph glyph-name="p" unicode="p" horiz-adv-x="477" 
d="M59 493h94v-81c15 31 43 90 122 90c100 0 167 -92 167 -248c0 -49 -7 -158 -68 -222c-31 -33 -71 -41 -103 -41c-67 0 -92 34 -111 60v-218h-101v660zM160 288v-82c0 -39 0 -70 19 -100c18 -27 42 -38 68 -38c65 0 87 69 87 183c0 91 -16 176 -86 176
c-23 0 -42 -7 -61 -34c-27 -39 -27 -70 -27 -105z" />
    <glyph glyph-name="q" unicode="q" horiz-adv-x="477" 
d="M363 497h55c-2 -43 -2 -90 -2 -115v-549h-102v230c-16 -25 -44 -72 -116 -72c-100 0 -163 93 -163 247c0 97 20 198 97 243c26 15 52 21 78 21c78 0 106 -53 121 -82c12 24 18 36 32 77zM314 226v64c0 103 -50 137 -86 137c-68 0 -85 -75 -85 -179c0 -55 5 -180 84 -180
c31 0 87 29 87 158z" />
    <glyph glyph-name="r" unicode="r" horiz-adv-x="273" 
d="M60 493h90v-110c10 30 41 121 123 121c7 0 13 -1 18 -2v-106c-105 11 -129 -69 -129 -145v-251h-102v493z" />
    <glyph glyph-name="s" unicode="s" horiz-adv-x="392" 
d="M357 378l-80 -22c-7 22 -24 74 -83 74c-42 0 -64 -29 -64 -61c0 -45 31 -55 99 -77c59 -19 146 -48 146 -148c0 -76 -57 -156 -181 -156c-152 0 -171 107 -178 143l87 17c4 -23 16 -85 95 -85c67 0 77 47 77 65c0 48 -45 62 -87 75c-68 22 -155 49 -155 150
c0 78 60 152 164 152c124 0 151 -94 160 -127z" />
    <glyph glyph-name="t" unicode="t" horiz-adv-x="273" 
d="M257 493v-82h-94v-218c0 -86 0 -119 68 -119c18 0 30 2 42 3v-80c-20 -4 -43 -9 -76 -9c-134 0 -134 90 -134 198v225h-64v82h67l5 129l92 8v-137h94z" />
    <glyph glyph-name="u" unicode="u" horiz-adv-x="460" 
d="M57 493h102v-313c0 -69 0 -110 57 -110c82 0 82 95 82 186v237h102v-493h-94v74c-18 -36 -43 -86 -125 -86c-124 0 -124 108 -124 190v315z" />
    <glyph glyph-name="v" unicode="v" horiz-adv-x="358" 
d="M-5 493h99l93 -354l90 354h88l-139 -493h-90z" />
    <glyph glyph-name="w" unicode="w" horiz-adv-x="562" 
d="M-1 493h101l72 -339l71 339h90l70 -341l78 341h83l-123 -493h-86l-75 342l-71 -342h-86z" />
    <glyph glyph-name="x" unicode="x" horiz-adv-x="358" 
d="M-1 493h113l72 -143l75 143h95l-125 -223l146 -270h-114l-89 174l-93 -174h-96l143 256z" />
    <glyph glyph-name="y" unicode="y" horiz-adv-x="358" 
d="M0 493h102l86 -338l88 338h92l-160 -524c-24 -77 -46 -146 -143 -146c-24 0 -37 3 -53 6v82c12 -2 22 -3 36 -3c56 0 68 20 92 108z" />
    <glyph glyph-name="z" unicode="z" horiz-adv-x="341" 
d="M32 493h300v-62l-208 -354h210v-77h-319v77l200 339h-183v77z" />
    <glyph glyph-name="braceleft" unicode="{" horiz-adv-x="324" 
d="M250 666v-58c-57 -1 -60 -19 -60 -97v-106c0 -106 -3 -129 -61 -149c57 -21 61 -43 61 -150v-117c0 -78 2 -98 60 -98v-58c-104 -5 -154 16 -154 156v119c0 86 0 113 -53 113v70c53 0 53 28 53 112v108c0 132 42 161 154 155z" />
    <glyph glyph-name="bar" unicode="|" horiz-adv-x="500" 
d="M301 750v-1000h-102v1000h102z" />
    <glyph glyph-name="braceright" unicode="}" horiz-adv-x="324" 
d="M74 -167v58c56 0 60 19 60 98v117c0 105 2 129 61 150c-59 21 -61 46 -61 149v106c0 79 -4 97 -60 98v58c101 5 154 -14 154 -156v-108c0 -85 0 -112 53 -112v-70c-53 0 -53 -28 -53 -113v-119c0 -134 -44 -161 -154 -156z" />
    <glyph glyph-name="asciitilde" unicode="~" 
d="M71 251l-57 38c28 61 59 127 144 127c13 0 35 0 108 -30c51 -22 66 -28 91 -28c45 0 64 31 81 59l59 -34c-22 -45 -59 -123 -153 -123c-30 0 -78 20 -142 46c-8 3 -31 12 -52 12c-44 0 -65 -39 -79 -67z" />
    <glyph glyph-name="exclamdown" unicode="&#xa1;" horiz-adv-x="341" 
d="M238 -174h-135l34 487h67zM226 370h-111v123h111v-123z" />
    <glyph glyph-name="cent" unicode="&#xa2;" 
d="M234 667h58v-91c74 -11 124 -56 140 -164l-86 -11c-8 63 -25 83 -57 100v-318c37 17 48 38 57 98l86 -11c-7 -47 -22 -145 -140 -166v-109h-58v109c-19 3 -46 8 -73 28c-81 61 -82 181 -82 201c0 41 6 156 79 213c29 23 57 27 76 30v91zM236 185v312
c-11 -6 -25 -14 -36 -33c-22 -40 -23 -104 -23 -123c0 -121 39 -144 59 -156z" />
    <glyph glyph-name="sterling" unicode="&#xa3;" 
d="M266 390h127v-79h-117c2 -14 4 -28 4 -51c0 -109 -50 -148 -82 -173h75c93 0 135 13 170 89l79 -41c-47 -124 -110 -135 -249 -135h-253v88h34c27 0 67 0 99 45c20 27 26 65 26 98s-4 58 -7 80h-96v79h83c-5 31 -11 71 -11 106c0 75 36 183 179 183
c112 0 144 -73 159 -106l-79 -49c-8 22 -28 71 -81 71c-72 0 -72 -80 -72 -99c0 -6 0 -24 3 -44c7 -46 8 -51 9 -62z" />
    <glyph glyph-name="fraction" unicode="&#x2044;" horiz-adv-x="85" 
d="M169 667h72l-325 -667h-72z" />
    <glyph glyph-name="yen" unicode="&#xa5;" 
d="M28 667h112l123 -299l127 299h94l-123 -266h111v-61h-139l-29 -69h168v-61h-168v-210h-99v210h-157v61h156l-30 69h-126v61h99z" />
    <glyph glyph-name="florin" unicode="&#x192;" 
d="M302 460h101l-12 -82h-102l-50 -317c-17 -108 -41 -210 -184 -210c-21 0 -35 3 -49 5l13 85c12 -1 19 -2 30 -2c62 0 77 23 94 129l49 310h-79l12 82h80c20 109 40 220 182 220c23 0 41 -2 56 -6l-13 -82c-8 2 -14 4 -30 4c-70 0 -81 -42 -98 -136z" />
    <glyph glyph-name="section" unicode="&#xa7;" 
d="M446 549l-85 -20c-8 28 -24 78 -93 78c-65 0 -76 -51 -76 -73c0 -55 37 -70 112 -101c67 -27 142 -58 142 -157c0 -74 -41 -109 -71 -135c28 -19 77 -53 77 -138c0 -100 -74 -175 -197 -175c-162 0 -188 114 -196 151l90 16c6 -27 21 -90 108 -90c68 0 98 37 98 85
c0 62 -43 79 -126 111c-72 27 -152 58 -152 158c0 83 53 121 80 140c-21 18 -60 50 -60 124c0 87 62 156 170 156c44 0 99 -13 134 -46c28 -27 38 -60 45 -84zM214 367c-20 -16 -48 -39 -48 -83c0 -35 19 -56 55 -75c12 -7 77 -31 91 -37c47 36 47 73 47 80
c0 23 -13 49 -38 65c-15 9 -21 12 -107 50z" />
    <glyph glyph-name="currency" unicode="&#xa4;" 
d="M341 485l69 69l56 -56l-69 -70c9 -14 24 -40 24 -84c0 -43 -13 -66 -23 -84l69 -70l-58 -57l-69 69c-22 -13 -42 -24 -85 -24c-42 0 -67 14 -84 24l-69 -69l-56 56l68 69c-7 13 -24 41 -24 85s16 72 24 85l-70 69l58 58l69 -69c21 12 41 23 84 23c45 0 73 -17 86 -24z
M255 258c47 0 86 37 86 86c0 47 -38 85 -86 85c-47 0 -85 -39 -85 -86s39 -85 85 -85z" />
    <glyph glyph-name="quotesingle" unicode="'" horiz-adv-x="221" 
d="M162 667l-16 -274h-71l-16 274h103z" />
    <glyph glyph-name="quotedblleft" unicode="&#x201c;" horiz-adv-x="375" 
d="M310 432h-106v121l67 125h49l-57 -122h47v-124zM160 432h-106v121l67 125h49l-57 -122h47v-124z" />
    <glyph glyph-name="guillemotleft" unicode="&#xab;" horiz-adv-x="392" 
d="M348 97h-57l-94 159l94 160h57l-53 -160zM195 100h-57l-94 156l94 156h57l-53 -156z" />
    <glyph glyph-name="guilsinglleft" unicode="&#x2039;" horiz-adv-x="239" 
d="M195 97h-57l-94 159l94 160h57l-53 -160z" />
    <glyph glyph-name="guilsinglright" unicode="&#x203a;" horiz-adv-x="239" 
d="M44 416h57l94 -160l-94 -159h-57l52 159z" />
    <glyph glyph-name="endash" unicode="&#x2013;" horiz-adv-x="409" 
d="M32 290h345v-79h-345v79z" />
    <glyph glyph-name="dagger" unicode="&#x2020;" 
d="M207 667h97v-188h147v-87h-147v-559h-97v559h-147v87h147v188z" />
    <glyph glyph-name="daggerdbl" unicode="&#x2021;" 
d="M207 667h97v-188h147v-87h-147v-284h147v-87h-147v-188h-97v188h-147v87h147v284h-147v87h147v188z" />
    <glyph glyph-name="periodcentered" unicode="&#xb7;" horiz-adv-x="239" 
d="M64 320h111v-126h-111v126z" />
    <glyph glyph-name="paragraph" unicode="&#xb6;" horiz-adv-x="528" 
d="M451 667v-834h-67v767h-50v-767h-67v447h-37c-49 0 -98 0 -144 35c-48 39 -62 110 -62 159c0 60 20 128 72 165c41 28 104 28 137 28h218z" />
    <glyph glyph-name="bullet" unicode="&#x2022;" horiz-adv-x="121" 
d="M0 409h121v-137h-121v137z" />
    <glyph glyph-name="quotesinglbase" unicode="&#x201a;" horiz-adv-x="221" 
d="M63 124h106v-121l-67 -125h-49l57 122h-47v124z" />
    <glyph glyph-name="quotedblbase" unicode="&#x201e;" horiz-adv-x="375" 
d="M64 124h106v-121l-67 -125h-49l57 122h-47v124zM214 124h106v-121l-67 -125h-49l57 122h-47v124z" />
    <glyph glyph-name="quotedblright" unicode="&#x201d;" horiz-adv-x="375" 
d="M64 667h106v-121l-67 -125h-49l57 122h-47v124zM214 667h106v-121l-67 -125h-49l57 122h-47v124z" />
    <glyph glyph-name="guillemotright" unicode="&#xbb;" horiz-adv-x="392" 
d="M44 416h57l94 -160l-94 -159h-57l52 159zM197 416h57l94 -160l-94 -159h-57l53 159z" />
    <glyph glyph-name="ellipsis" unicode="&#x2026;" horiz-adv-x="716" 
d="M64 126h111v-126h-111v126zM303 126h111v-126h-111v126zM542 126h111v-126h-111v126z" />
    <glyph glyph-name="perthousand" unicode="&#x2030;" horiz-adv-x="988" 
d="M174 673c79 0 131 -62 131 -172c0 -120 -59 -173 -131 -173c-75 0 -132 56 -132 173c0 112 54 172 132 172zM174 612c-27 0 -54 -14 -54 -111c0 -95 25 -112 54 -112c37 0 53 34 53 112c0 82 -19 111 -53 111zM508 339c77 0 131 -60 131 -173s-55 -172 -131 -172
c-79 0 -131 61 -131 172c0 117 56 173 131 173zM508 278c-31 0 -54 -22 -54 -113c0 -25 2 -52 9 -73c6 -17 16 -37 45 -37c31 0 53 22 53 111c0 81 -19 112 -53 112zM814 339c76 0 131 -59 131 -173s-56 -172 -131 -172c-79 0 -131 62 -131 172c0 116 56 173 131 173z
M814 278c-32 0 -53 -25 -53 -113c0 -18 1 -48 9 -73c6 -18 16 -37 44 -37c31 0 53 22 53 111c0 83 -19 112 -53 112zM471 667h66l-325 -667h-66z" />
    <glyph glyph-name="questiondown" unicode="&#xbf;" horiz-adv-x="494" 
d="M361 39l95 -18c-13 -150 -95 -207 -202 -207c-131 0 -192 84 -192 182c0 94 52 141 100 181c63 51 66 64 64 138h92c-1 -91 -2 -131 -50 -172c-66 -56 -95 -81 -95 -149c0 -66 39 -93 86 -93c93 0 100 102 102 138zM326 373h-109v120h109v-120z" />
    <glyph glyph-name="grave" unicode="`" horiz-adv-x="500" 
d="M325 590l-37 -38l-172 108l53 67z" />
    <glyph glyph-name="acute" unicode="&#xb4;" horiz-adv-x="500" 
d="M202 590l156 137l53 -67l-172 -108z" />
    <glyph glyph-name="circumflex" unicode="&#x2c6;" horiz-adv-x="500" 
d="M76 563l174 134l174 -134l-86 -7l-88 59l-88 -59z" />
    <glyph glyph-name="tilde" unicode="&#x2dc;" horiz-adv-x="500" 
d="M359 669l42 -28c-14 -23 -45 -75 -100 -75c-16 0 -30 3 -63 22c-28 16 -39 20 -50 20c-22 0 -34 -17 -48 -36l-41 28c31 51 60 74 99 74c19 0 31 -4 63 -21c29 -17 42 -21 54 -21c22 0 35 21 44 37z" />
    <glyph glyph-name="macron" unicode="&#xaf;" horiz-adv-x="500" 
d="M115 650h270v-64h-270v64z" />
    <glyph glyph-name="breve" unicode="&#x2d8;" horiz-adv-x="500" 
d="M100 675h69c3 -10 7 -24 19 -35c11 -11 30 -20 62 -20c64 0 75 34 81 55h69c-8 -31 -28 -119 -150 -119s-142 87 -150 119z" />
    <glyph glyph-name="dotaccent" unicode="&#x2d9;" horiz-adv-x="500" 
d="M250 560c-26 0 -59 20 -59 57c0 34 28 59 59 59c32 0 59 -25 59 -59c0 -36 -32 -57 -59 -57z" />
    <glyph glyph-name="dieresis" unicode="&#xa8;" horiz-adv-x="500" 
d="M172 568c-22 0 -53 16 -53 50c0 31 27 51 53 51s53 -20 53 -51c0 -33 -31 -50 -53 -50zM328 568c-23 0 -53 18 -53 50c0 30 26 51 53 51c26 0 53 -20 53 -51c0 -33 -31 -50 -53 -50z" />
    <glyph glyph-name="ring" unicode="&#x2da;" horiz-adv-x="500" 
d="M250 544c-39 0 -92 31 -92 91c0 55 44 93 92 93s92 -39 92 -93c0 -59 -52 -91 -92 -91zM250 593c20 0 42 16 42 42s-20 44 -42 44c-20 0 -42 -17 -42 -43c0 -28 23 -43 42 -43z" />
    <glyph glyph-name="cedilla" unicode="&#xb8;" horiz-adv-x="500" 
d="M235 -1l48 1l-16 -47c18 1 33 1 51 -5c40 -14 47 -48 47 -66c0 -44 -37 -81 -100 -81c-45 0 -76 19 -96 30l14 36c16 -7 42 -18 73 -18c21 0 40 9 40 30c0 41 -49 39 -90 38z" />
    <glyph glyph-name="hungarumlaut" unicode="&#x2dd;" horiz-adv-x="500" 
d="M272 713l54 -57l-135 -104l-31 33zM411 713l53 -57l-135 -104l-31 33z" />
    <glyph glyph-name="ogonek" unicode="&#x2db;" horiz-adv-x="500" 
d="M382 -122l9 -39c-12 -4 -32 -11 -66 -11c-81 0 -108 45 -108 82c0 52 43 76 66 89h45c-16 -15 -42 -40 -42 -75c0 -49 46 -49 64 -49c14 0 24 1 32 3z" />
    <glyph glyph-name="caron" unicode="&#x2c7;" horiz-adv-x="500" 
d="M76 682l86 7l88 -60l88 60l86 -7l-174 -134z" />
    <glyph glyph-name="emdash" unicode="&#x2014;" horiz-adv-x="630" 
d="M31 290h568v-79h-568v79z" />
    <glyph glyph-name="AE" unicode="&#xc6;" horiz-adv-x="698" 
d="M689 90v-90h-376v182h-174l-79 -182h-100l303 667h425v-88h-268v-192h210v-88h-210v-209h269zM314 268v327l-140 -327h140z" />
    <glyph glyph-name="ordfeminine" unicode="&#xaa;" 
d="M202 572l-84 9c6 24 14 58 62 81c28 15 59 17 77 17c125 0 125 -83 125 -139v-108c0 -29 0 -71 9 -96h-73c-2 18 -3 24 -5 52c-15 -21 -40 -60 -103 -60c-54 0 -104 31 -104 101c0 110 116 120 190 119c0 29 1 68 -45 68c-39 0 -45 -30 -49 -44zM196 433
c0 -22 8 -42 39 -42c61 0 61 70 61 101c-18 3 -100 10 -100 -59z" />
    <glyph glyph-name="Lslash" unicode="&#x141;" horiz-adv-x="409" 
d="M64 667h110v-261l117 118v-103l-117 -117v-211h236v-93h-346v231l-57 -57v102l57 57v334z" />
    <glyph glyph-name="Oslash" unicode="&#xd8;" horiz-adv-x="562" 
d="M434 704h70l-53 -105c57 -77 67 -188 67 -266c0 -167 -46 -345 -237 -345c-38 0 -85 10 -119 33l-30 -61h-70l52 105c-67 79 -70 229 -70 271c0 134 34 343 237 343c67 0 107 -24 125 -35zM170 162l189 406c-12 10 -33 25 -77 25c-56 0 -84 -27 -103 -69
c-28 -64 -28 -171 -28 -193c0 -91 9 -138 19 -169zM394 497l-186 -402c9 -7 30 -21 72 -21c46 0 95 20 116 107c5 24 15 71 15 152c0 36 -1 112 -17 164z" />
    <glyph glyph-name="OE" unicode="&#x152;" horiz-adv-x="801" 
d="M789 667v-88h-278v-192h218v-88h-218v-209h280v-90h-383v62c-23 -33 -52 -74 -131 -74c-50 0 -126 17 -180 101c-45 70 -56 178 -56 241c0 61 8 209 87 288c40 40 99 61 154 61c76 0 110 -43 129 -68v56h378zM405 169v338c-16 32 -40 81 -116 81c-21 0 -63 -4 -89 -46
c-39 -63 -42 -175 -42 -223c0 -144 35 -240 133 -240c56 0 93 32 114 90z" />
    <glyph glyph-name="ordmasculine" unicode="&#xba;" 
d="M256 679c112 0 140 -91 140 -172c0 -94 -30 -179 -141 -179c-113 0 -140 90 -140 175c0 77 22 176 141 176zM256 624c-45 0 -57 -51 -57 -121c0 -80 16 -120 56 -120c37 0 57 32 57 120c0 80 -17 121 -56 121z" />
    <glyph glyph-name="ae" unicode="&#xe6;" horiz-adv-x="698" 
d="M674 231h-277c0 -48 -1 -166 95 -166c64 0 77 58 85 91l91 -12c-10 -44 -37 -156 -177 -156c-101 0 -135 64 -150 93c-19 -31 -58 -93 -161 -93c-108 0 -145 76 -145 144c0 74 41 133 103 154c49 16 99 19 161 19c1 54 3 126 -73 126c-66 0 -77 -58 -81 -79l-93 13
c4 25 15 84 81 118c38 20 79 22 98 22c46 0 74 -11 93 -23c21 -13 29 -25 38 -37c17 19 52 58 132 58c84 0 138 -67 156 -116c22 -59 23 -109 24 -156zM399 300h171c-1 29 -3 131 -83 131c-62 0 -84 -64 -88 -131zM299 241c-15 2 -21 2 -28 2c-107 0 -132 -49 -132 -105
c0 -15 0 -75 64 -75c10 0 104 0 96 178z" />
    <glyph glyph-name="dotlessi" unicode="&#x131;" horiz-adv-x="222" 
d="M60 493h102v-493h-102v493z" />
    <glyph glyph-name="lslash" unicode="&#x142;" horiz-adv-x="238" 
d="M68 667h102v-245l63 64v-82l-63 -63v-341h-102v277l-63 -64v82l63 63v309z" />
    <glyph glyph-name="oslash" unicode="&#xf8;" horiz-adv-x="460" 
d="M352 537h59l-44 -89c45 -56 57 -129 57 -198c0 -117 -29 -262 -195 -262c-40 0 -62 7 -88 18l-29 -58h-59l45 90c-19 23 -62 73 -62 208c0 124 38 259 192 259c54 0 83 -15 97 -22zM147 120l138 298c-16 10 -34 14 -53 14c-60 0 -100 -38 -100 -186c0 -73 8 -103 15 -126
zM316 361l-135 -291c17 -6 27 -10 47 -10c48 0 100 20 100 186c0 52 -5 82 -12 115z" />
    <glyph glyph-name="oe" unicode="&#x153;" horiz-adv-x="716" 
d="M691 231h-277c0 -53 0 -166 95 -166c64 0 77 56 85 92l93 -13c-9 -37 -37 -156 -182 -156c-26 0 -90 1 -142 73c-40 -56 -82 -73 -137 -73c-153 0 -190 137 -190 258c0 115 33 259 190 259c69 0 111 -27 143 -74c21 27 56 74 138 74c79 0 128 -47 148 -86
c34 -66 35 -127 36 -188zM229 428c-60 0 -85 -60 -85 -182c0 -127 27 -181 85 -181c68 0 84 80 84 181c0 100 -15 182 -84 182zM416 300h171c1 67 -19 130 -83 130c-63 0 -83 -63 -88 -130z" />
    <glyph glyph-name="germandbls" unicode="&#xdf;" 
d="M8 366v82h58c0 49 -1 116 40 174c51 72 138 78 166 78c104 0 164 -66 164 -142c0 -82 -67 -130 -160 -152c9 -16 14 -22 69 -48c64 -30 150 -73 150 -187c0 -97 -60 -183 -180 -183c-44 0 -76 11 -97 18l25 75c15 -6 40 -16 74 -16c52 0 82 38 82 91c0 62 -39 84 -96 115
c-62 35 -99 66 -99 119c0 23 7 44 13 60c35 7 121 25 121 97c0 47 -31 79 -80 79c-25 0 -53 -9 -72 -43c-18 -31 -18 -76 -18 -133v-496h-102v412h-58z" />
    <glyph glyph-name="logicalnot" unicode="&#xac;" 
d="M375 224v137h-324v81h409v-218h-85z" />
    <glyph glyph-name="mu" unicode="&#xb5;" horiz-adv-x="460" 
d="M298 493h102v-493h-94v74c-8 -33 -20 -86 -78 -86c-57 0 -70 53 -77 86v-241h-94v660h102v-237c0 -79 1 -119 13 -146c10 -24 29 -40 56 -40c29 0 48 17 58 40c11 28 12 77 12 146v237z" />
    <glyph glyph-name="trademark" unicode="&#x2122;" horiz-adv-x="716" 
d="M99 287v321h-84v59h244v-59h-86v-321h-74zM289 287v380h109l70 -273l74 273h106v-380h-69v319l-87 -319h-59l-82 320v-320h-62z" />
    <glyph glyph-name="Eth" unicode="&#xd0;" horiz-adv-x="562" 
d="M7 299v88h57v280h150c63 0 164 -9 227 -82c58 -67 79 -156 79 -246c0 -140 -52 -244 -126 -296c-47 -33 -111 -43 -172 -43h-158v299h-57zM174 299v-211h46c63 0 98 21 117 40c62 60 66 161 66 205c0 131 -41 246 -183 246h-46v-192h123v-88h-123z" />
    <glyph glyph-name="onehalf" unicode="&#xbd;" horiz-adv-x="767" 
d="M150 671h61v-343h68v-61h-222v61h73v242c-28 -24 -40 -32 -75 -49v74c19 10 55 28 95 76zM497 667h72l-326 -667h-71zM506 262l-77 14c7 35 26 131 143 131c96 0 133 -64 133 -120c0 -67 -49 -114 -73 -136c-8 -8 -49 -46 -104 -81h180l-4 -70h-274v65
c54 43 122 98 161 149c13 17 27 42 27 69c0 23 -10 58 -51 58c-52 0 -58 -55 -61 -79z" />
    <glyph glyph-name="plusminus" unicode="&#xb1;" 
d="M298 374h162v-81h-162v-159h-85v159h-162v81h162v164h85v-164zM460 5h-409v81h409v-81z" />
    <glyph glyph-name="Thorn" unicode="&#xde;" horiz-adv-x="494" 
d="M64 667h110v-104h55c76 0 144 -5 191 -55c42 -44 54 -103 54 -149c0 -48 -15 -125 -76 -167c-50 -35 -122 -35 -167 -35h-57v-157h-110v667zM229 478h-55v-233h55c51 0 129 0 129 117c0 21 -3 52 -23 81c-25 35 -59 35 -106 35z" />
    <glyph glyph-name="onequarter" unicode="&#xbc;" horiz-adv-x="767" 
d="M496 150h102v184zM510 667h71l-325 -667h-71zM584 407h91v-252h52v-62h-52v-93h-82v93h-164v55zM162 671h61v-343h68v-61h-222v61h73v242c-28 -24 -40 -32 -75 -49v74c19 10 55 28 95 76z" />
    <glyph glyph-name="divide" unicode="&#xf7;" 
d="M460 293h-409v81h409v-81zM305 424h-99v111h99v-111zM305 132h-99v111h99v-111z" />
    <glyph glyph-name="brokenbar" unicode="&#xa6;" horiz-adv-x="500" 
d="M301 675v-350h-102v350h102zM301 175v-350h-102v350h102z" />
    <glyph glyph-name="degree" unicode="&#xb0;" 
d="M256 679c85 0 155 -69 155 -156s-70 -156 -155 -156c-86 0 -156 69 -156 156c0 88 70 156 156 156zM256 613c-43 0 -78 -40 -78 -90c0 -51 36 -90 78 -90s77 39 77 90c0 50 -35 90 -77 90z" />
    <glyph glyph-name="thorn" unicode="&#xfe;" horiz-adv-x="477" 
d="M59 667h101v-250c16 31 44 85 118 85c91 0 164 -84 164 -248c0 -49 -7 -158 -68 -222c-32 -34 -73 -41 -103 -41c-66 0 -92 35 -110 60l-1 -218h-101v834zM160 288v-82c0 -39 0 -70 19 -100c18 -27 42 -38 68 -38c65 0 87 68 87 183c0 66 -8 176 -83 176
c-58 0 -91 -74 -91 -139z" />
    <glyph glyph-name="threequarters" unicode="&#xbe;" horiz-adv-x="767" 
d="M502 150h102v184zM530 667h71l-326 -667h-71zM590 407h91v-252h52v-62h-52v-93h-82v93h-164v55zM114 553l-72 16c8 28 31 105 140 105c80 0 127 -44 127 -109c0 -58 -41 -77 -62 -87c20 -7 73 -25 73 -97c0 -73 -58 -121 -144 -121c-123 0 -140 86 -146 115l74 16
c5 -22 14 -67 69 -67c23 0 59 11 59 61c0 56 -44 60 -76 60h-32v58h33c25 0 68 0 68 54c0 50 -31 55 -50 55c-44 0 -54 -35 -61 -59z" />
    <glyph glyph-name="registered" unicode="&#xae;" 
d="M184 580h75c18 0 82 0 82 -63c0 -39 -29 -53 -38 -56l44 -101h-52l-34 90h-29v-90h-48v220zM258 548h-26v-66h26c26 0 34 17 34 35c0 31 -24 31 -34 31zM256 667c108 0 199 -88 199 -201c0 -112 -92 -199 -199 -199c-109 0 -200 88 -200 199c0 112 90 201 200 201z
M256 622c-84 0 -152 -69 -152 -156c0 -85 69 -154 152 -154s151 69 151 154c0 87 -68 156 -151 156z" />
    <glyph glyph-name="minus" unicode="&#x2212;" 
d="M460 293h-409v81h409v-81z" />
    <glyph glyph-name="eth" unicode="&#xf0;" horiz-adv-x="443" 
d="M135 247c0 -130 29 -182 87 -182c56 0 86 50 86 182c0 128 -28 181 -87 181c-62 0 -86 -62 -86 -181zM420 677l-113 -59c64 -115 109 -244 109 -378c0 -96 -25 -252 -196 -252c-153 0 -193 131 -193 259c0 222 116 258 169 258c37 0 54 -13 70 -25c-11 33 -25 64 -42 94
l-105 -55l-31 56l104 55c-8 12 -17 26 -26 40l82 43c9 -13 17 -26 26 -40l115 60z" />
    <glyph glyph-name="multiply" unicode="&#xd7;" 
d="M255 394l122 121l60 -60l-121 -122l121 -121l-60 -60l-122 121l-121 -121l-60 60l121 121l-121 122l60 60z" />
    <glyph glyph-name="copyright" unicode="&#xa9;" horiz-adv-x="781" 
d="M466 275l78 -9c-4 -26 -11 -74 -50 -108c-19 -16 -48 -32 -97 -32c-143 0 -161 136 -161 205c0 90 28 209 162 209c125 0 141 -105 146 -143l-79 -10c-5 38 -12 89 -66 89c-62 0 -75 -74 -75 -146c0 -68 14 -140 76 -140c39 0 55 26 66 85zM390 -12
c-192 0 -348 154 -348 345c0 190 155 346 348 346s349 -156 349 -346c0 -191 -156 -345 -349 -345zM390 54c152 0 276 125 276 279s-124 280 -276 280s-275 -126 -275 -280s123 -279 275 -279z" />
    <glyph glyph-name="Aacute" unicode="&#xc1;" horiz-adv-x="494" 
d="M189 667h124l178 -667h-112l-42 167h-194l-41 -167h-106zM164 254h151l-75 306zM174 774l192 95l35 -81l-200 -62z" />
    <glyph glyph-name="Acircumflex" unicode="&#xc2;" horiz-adv-x="494" 
d="M189 667h124l178 -667h-112l-42 167h-194l-41 -167h-106zM164 254h151l-75 306zM70 733l180 127l180 -127l-90 -7l-90 50l-90 -50z" />
    <glyph glyph-name="Adieresis" unicode="&#xc4;" horiz-adv-x="494" 
d="M189 667h124l178 -667h-112l-42 167h-194l-41 -167h-106zM164 254h151l-75 306zM170 733c-23 0 -55 17 -55 51c0 32 28 53 55 53c30 0 55 -23 55 -52c0 -33 -30 -52 -55 -52zM330 733c-24 0 -55 18 -55 52c0 30 26 52 55 52c28 0 55 -22 55 -53c0 -34 -32 -51 -55 -51z
" />
    <glyph glyph-name="Agrave" unicode="&#xc0;" horiz-adv-x="494" 
d="M189 667h124l178 -667h-112l-42 167h-194l-41 -167h-106zM164 254h151l-75 306zM298 774l-27 -48l-200 62l35 81z" />
    <glyph glyph-name="Aring" unicode="&#xc5;" horiz-adv-x="494" 
d="M189 667h124l178 -667h-112l-42 167h-194l-41 -167h-106zM164 254h151l-75 306zM250 709c-40 0 -94 31 -94 94c0 56 45 95 94 95s94 -38 94 -96c0 -61 -54 -93 -94 -93zM250 759c20 0 43 16 43 44s-23 45 -43 45s-43 -17 -43 -45c0 -29 24 -44 43 -44z" />
    <glyph glyph-name="Atilde" unicode="&#xc3;" horiz-adv-x="494" 
d="M189 667h124l178 -667h-112l-42 167h-194l-41 -167h-106zM164 254h151l-75 306zM356 834l45 -29c-14 -22 -48 -74 -107 -74c-16 0 -31 3 -67 20c-30 14 -42 17 -54 17c-23 0 -36 -15 -50 -34l-44 29c41 62 75 73 106 73c22 0 28 -3 83 -26c14 -6 26 -11 41 -11
c25 0 38 21 47 35z" />
    <glyph glyph-name="Ccedilla" unicode="&#xc7;" horiz-adv-x="528" 
d="M501 451l-102 -14c-8 56 -21 151 -112 151c-115 0 -128 -154 -128 -260c0 -120 22 -249 128 -249c68 0 96 48 112 145l102 -14c-5 -31 -16 -114 -73 -169c-53 -50 -116 -52 -139 -53l-12 -39c15 1 32 2 52 -5c45 -15 50 -54 50 -68c0 -41 -33 -84 -103 -84
c-47 0 -79 20 -99 32l14 37c18 -7 44 -18 75 -18c25 0 39 12 39 30c0 26 -24 33 -32 35c-10 2 -49 3 -58 3l26 80c-26 6 -79 17 -117 62c-71 81 -82 201 -82 278c0 105 21 348 242 348c186 0 210 -171 217 -228z" />
    <glyph glyph-name="Eacute" unicode="&#xc9;" horiz-adv-x="460" 
d="M64 667h381v-88h-271v-192h213v-88h-213v-209h276v-90h-386v667zM189 774l192 95l35 -81l-200 -62z" />
    <glyph glyph-name="Ecircumflex" unicode="&#xca;" horiz-adv-x="460" 
d="M64 667h381v-88h-271v-192h213v-88h-213v-209h276v-90h-386v667zM55 733l180 127l180 -127l-90 -7l-90 50l-90 -50z" />
    <glyph glyph-name="Edieresis" unicode="&#xcb;" horiz-adv-x="460" 
d="M64 667h381v-88h-271v-192h213v-88h-213v-209h276v-90h-386v667zM170 733c-23 0 -55 17 -55 51c0 32 28 53 55 53c30 0 55 -23 55 -52c0 -33 -30 -52 -55 -52zM330 733c-24 0 -55 18 -55 52c0 30 26 52 55 52c28 0 55 -22 55 -53c0 -34 -32 -51 -55 -51z" />
    <glyph glyph-name="Egrave" unicode="&#xc8;" horiz-adv-x="460" 
d="M64 667h381v-88h-271v-192h213v-88h-213v-209h276v-90h-386v667zM318 774l-27 -48l-200 62l35 81z" />
    <glyph glyph-name="Iacute" unicode="&#xcd;" horiz-adv-x="239" 
d="M64 667h110v-667h-110v667zM69 774l192 95l35 -81l-200 -62z" />
    <glyph glyph-name="Icircumflex" unicode="&#xce;" horiz-adv-x="239" 
d="M64 667h110v-667h-110v667zM-65 733l180 127l180 -127l-90 -7l-90 50l-90 -50z" />
    <glyph glyph-name="Idieresis" unicode="&#xcf;" horiz-adv-x="239" 
d="M64 667h110v-667h-110v667zM40 733c-23 0 -55 17 -55 51c0 32 28 53 55 53c30 0 55 -23 55 -52c0 -33 -30 -52 -55 -52zM200 733c-24 0 -55 18 -55 52c0 30 26 52 55 52c28 0 55 -22 55 -53c0 -34 -32 -51 -55 -51z" />
    <glyph glyph-name="Igrave" unicode="&#xcc;" horiz-adv-x="239" 
d="M64 667h110v-667h-110v667zM178 774l-27 -48l-200 62l35 81z" />
    <glyph glyph-name="Ntilde" unicode="&#xd1;" horiz-adv-x="562" 
d="M60 667h130l220 -481v481h92v-667h-103l-247 534v-534h-92v667zM406 834l45 -29c-14 -22 -48 -74 -107 -74c-16 0 -31 3 -67 20c-30 14 -42 17 -54 17c-23 0 -36 -15 -50 -34l-44 29c41 62 75 73 106 73c22 0 28 -3 83 -26c14 -6 26 -11 41 -11c25 0 38 21 47 35z" />
    <glyph glyph-name="Oacute" unicode="&#xd3;" horiz-adv-x="562" 
d="M282 679c199 0 239 -190 239 -346c0 -137 -31 -345 -238 -345c-200 0 -241 190 -241 345c0 153 40 346 240 346zM282 588c-57 0 -81 -32 -97 -68c-25 -57 -27 -146 -27 -187c0 -40 3 -129 27 -186c19 -43 45 -68 98 -68c56 0 80 34 95 68c25 59 27 150 27 186
c0 46 -3 131 -27 187c-15 33 -38 68 -96 68zM229 774l192 95l35 -81l-200 -62z" />
    <glyph glyph-name="Ocircumflex" unicode="&#xd4;" horiz-adv-x="562" 
d="M282 679c199 0 239 -190 239 -346c0 -137 -31 -345 -238 -345c-200 0 -241 190 -241 345c0 153 40 346 240 346zM282 588c-57 0 -81 -32 -97 -68c-25 -57 -27 -146 -27 -187c0 -40 3 -129 27 -186c19 -43 45 -68 98 -68c56 0 80 34 95 68c25 59 27 150 27 186
c0 46 -3 131 -27 187c-15 33 -38 68 -96 68zM100 733l180 127l180 -127l-90 -7l-90 50l-90 -50z" />
    <glyph glyph-name="Odieresis" unicode="&#xd6;" horiz-adv-x="562" 
d="M282 679c199 0 239 -190 239 -346c0 -137 -31 -345 -238 -345c-200 0 -241 190 -241 345c0 153 40 346 240 346zM282 588c-57 0 -81 -32 -97 -68c-25 -57 -27 -146 -27 -187c0 -40 3 -129 27 -186c19 -43 45 -68 98 -68c56 0 80 34 95 68c25 59 27 150 27 186
c0 46 -3 131 -27 187c-15 33 -38 68 -96 68zM200 733c-23 0 -55 17 -55 51c0 32 28 53 55 53c30 0 55 -23 55 -52c0 -33 -30 -52 -55 -52zM360 733c-24 0 -55 18 -55 52c0 30 26 52 55 52c28 0 55 -22 55 -53c0 -34 -32 -51 -55 -51z" />
    <glyph glyph-name="Ograve" unicode="&#xd2;" horiz-adv-x="562" 
d="M282 679c199 0 239 -190 239 -346c0 -137 -31 -345 -238 -345c-200 0 -241 190 -241 345c0 153 40 346 240 346zM282 588c-57 0 -81 -32 -97 -68c-25 -57 -27 -146 -27 -187c0 -40 3 -129 27 -186c19 -43 45 -68 98 -68c56 0 80 34 95 68c25 59 27 150 27 186
c0 46 -3 131 -27 187c-15 33 -38 68 -96 68zM338 774l-27 -48l-200 62l35 81z" />
    <glyph glyph-name="Otilde" unicode="&#xd5;" horiz-adv-x="562" 
d="M282 679c199 0 239 -190 239 -346c0 -137 -31 -345 -238 -345c-200 0 -241 190 -241 345c0 153 40 346 240 346zM282 588c-57 0 -81 -32 -97 -68c-25 -57 -27 -146 -27 -187c0 -40 3 -129 27 -186c19 -43 45 -68 98 -68c56 0 80 34 95 68c25 59 27 150 27 186
c0 46 -3 131 -27 187c-15 33 -38 68 -96 68zM396 834l45 -29c-14 -22 -48 -74 -107 -74c-16 0 -31 3 -67 20c-30 14 -42 17 -54 17c-23 0 -36 -15 -50 -34l-44 29c41 62 75 73 106 73c22 0 28 -3 83 -26c14 -6 26 -11 41 -11c25 0 38 21 47 35z" />
    <glyph glyph-name="Scaron" unicode="&#x160;" 
d="M461 518l-94 -33c-21 62 -49 103 -118 103c-71 0 -91 -54 -91 -84c0 -60 54 -80 133 -111c77 -29 187 -71 187 -203c0 -96 -68 -202 -224 -202c-187 0 -220 141 -231 186l98 28c7 -30 27 -123 136 -123c92 0 108 65 108 96c0 63 -54 87 -114 109c-74 28 -105 40 -141 71
c-31 27 -60 74 -60 136c0 91 64 188 205 188c157 0 192 -115 206 -161zM95 844l90 7l90 -50l90 50l90 -7l-180 -126z" />
    <glyph glyph-name="Uacute" unicode="&#xda;" horiz-adv-x="545" 
d="M59 667h108v-414c0 -89 0 -174 111 -174c109 0 109 80 109 176v412h99v-407c0 -97 -2 -181 -69 -231c-26 -19 -67 -41 -145 -41c-210 0 -213 147 -213 265v414zM229 774l192 95l35 -81l-200 -62z" />
    <glyph glyph-name="Ucircumflex" unicode="&#xdb;" horiz-adv-x="545" 
d="M59 667h108v-414c0 -89 0 -174 111 -174c109 0 109 80 109 176v412h99v-407c0 -97 -2 -181 -69 -231c-26 -19 -67 -41 -145 -41c-210 0 -213 147 -213 265v414zM95 733l180 127l180 -127l-90 -7l-90 50l-90 -50z" />
    <glyph glyph-name="Udieresis" unicode="&#xdc;" horiz-adv-x="545" 
d="M59 667h108v-414c0 -89 0 -174 111 -174c109 0 109 80 109 176v412h99v-407c0 -97 -2 -181 -69 -231c-26 -19 -67 -41 -145 -41c-210 0 -213 147 -213 265v414zM200 733c-23 0 -55 17 -55 51c0 32 28 53 55 53c30 0 55 -23 55 -52c0 -33 -30 -52 -55 -52zM360 733
c-24 0 -55 18 -55 52c0 30 26 52 55 52c28 0 55 -22 55 -53c0 -34 -32 -51 -55 -51z" />
    <glyph glyph-name="Ugrave" unicode="&#xd9;" horiz-adv-x="545" 
d="M59 667h108v-414c0 -89 0 -174 111 -174c109 0 109 80 109 176v412h99v-407c0 -97 -2 -181 -69 -231c-26 -19 -67 -41 -145 -41c-210 0 -213 147 -213 265v414zM318 774l-27 -48l-200 62l35 81z" />
    <glyph glyph-name="Yacute" unicode="&#xdd;" horiz-adv-x="409" 
d="M-31 667h120l122 -278l124 278h106l-185 -385v-282h-110v282zM169 774l192 95l35 -81l-200 -62z" />
    <glyph glyph-name="Ydieresis" unicode="&#x178;" horiz-adv-x="409" 
d="M-31 667h120l122 -278l124 278h106l-185 -385v-282h-110v282zM130 733c-23 0 -55 17 -55 51c0 32 28 53 55 53c30 0 55 -23 55 -52c0 -33 -30 -52 -55 -52zM290 733c-24 0 -55 18 -55 52c0 30 26 52 55 52c28 0 55 -22 55 -53c0 -34 -32 -51 -55 -51z" />
    <glyph glyph-name="Zcaron" unicode="&#x17d;" horiz-adv-x="426" 
d="M19 667h400v-77l-296 -497h303v-93h-425v85l292 492h-274v90zM30 844l90 7l90 -50l90 50l90 -7l-180 -126z" />
    <glyph glyph-name="aacute" unicode="&#xe1;" horiz-adv-x="460" 
d="M151 353l-98 13c23 127 140 139 186 139c71 0 113 -26 136 -53c31 -34 31 -95 31 -148v-167c0 -42 0 -103 8 -137h-95c-5 24 -7 36 -7 82c-19 -35 -51 -94 -139 -94c-80 0 -138 51 -138 142c0 79 43 134 102 154c42 14 96 22 167 20v20c0 36 0 106 -73 106
c-65 0 -76 -56 -80 -77zM304 216v25c-16 1 -23 1 -30 1c-118 0 -133 -59 -133 -105c0 -59 32 -74 66 -74c43 0 97 44 97 153zM182 590l156 137l53 -67l-172 -108z" />
    <glyph glyph-name="acircumflex" unicode="&#xe2;" horiz-adv-x="460" 
d="M151 353l-98 13c23 127 140 139 186 139c71 0 113 -26 136 -53c31 -34 31 -95 31 -148v-167c0 -42 0 -103 8 -137h-95c-5 24 -7 36 -7 82c-19 -35 -51 -94 -139 -94c-80 0 -138 51 -138 142c0 79 43 134 102 154c42 14 96 22 167 20v20c0 36 0 106 -73 106
c-65 0 -76 -56 -80 -77zM304 216v25c-16 1 -23 1 -30 1c-118 0 -133 -59 -133 -105c0 -59 32 -74 66 -74c43 0 97 44 97 153zM56 563l174 134l174 -134l-86 -7l-88 59l-88 -59z" />
    <glyph glyph-name="adieresis" unicode="&#xe4;" horiz-adv-x="460" 
d="M151 353l-98 13c23 127 140 139 186 139c71 0 113 -26 136 -53c31 -34 31 -95 31 -148v-167c0 -42 0 -103 8 -137h-95c-5 24 -7 36 -7 82c-19 -35 -51 -94 -139 -94c-80 0 -138 51 -138 142c0 79 43 134 102 154c42 14 96 22 167 20v20c0 36 0 106 -73 106
c-65 0 -76 -56 -80 -77zM304 216v25c-16 1 -23 1 -30 1c-118 0 -133 -59 -133 -105c0 -59 32 -74 66 -74c43 0 97 44 97 153zM152 568c-22 0 -53 16 -53 50c0 31 27 51 53 51s53 -20 53 -51c0 -33 -31 -50 -53 -50zM308 568c-23 0 -53 18 -53 50c0 30 26 51 53 51
c26 0 53 -20 53 -51c0 -33 -31 -50 -53 -50z" />
    <glyph glyph-name="agrave" unicode="&#xe0;" horiz-adv-x="460" 
d="M151 353l-98 13c23 127 140 139 186 139c71 0 113 -26 136 -53c31 -34 31 -95 31 -148v-167c0 -42 0 -103 8 -137h-95c-5 24 -7 36 -7 82c-19 -35 -51 -94 -139 -94c-80 0 -138 51 -138 142c0 79 43 134 102 154c42 14 96 22 167 20v20c0 36 0 106 -73 106
c-65 0 -76 -56 -80 -77zM304 216v25c-16 1 -23 1 -30 1c-118 0 -133 -59 -133 -105c0 -59 32 -74 66 -74c43 0 97 44 97 153zM305 590l-37 -38l-172 108l53 67z" />
    <glyph glyph-name="aring" unicode="&#xe5;" horiz-adv-x="460" 
d="M151 353l-98 13c23 127 140 139 186 139c71 0 113 -26 136 -53c31 -34 31 -95 31 -148v-167c0 -42 0 -103 8 -137h-95c-5 24 -7 36 -7 82c-19 -35 -51 -94 -139 -94c-80 0 -138 51 -138 142c0 79 43 134 102 154c42 14 96 22 167 20v20c0 36 0 106 -73 106
c-65 0 -76 -56 -80 -77zM304 216v25c-16 1 -23 1 -30 1c-118 0 -133 -59 -133 -105c0 -59 32 -74 66 -74c43 0 97 44 97 153zM230 544c-39 0 -92 31 -92 91c0 55 44 93 92 93s92 -39 92 -93c0 -59 -52 -91 -92 -91zM230 593c20 0 42 16 42 42s-20 44 -42 44
c-20 0 -42 -17 -42 -43c0 -28 23 -43 42 -43z" />
    <glyph glyph-name="atilde" unicode="&#xe3;" horiz-adv-x="460" 
d="M151 353l-98 13c23 127 140 139 186 139c71 0 113 -26 136 -53c31 -34 31 -95 31 -148v-167c0 -42 0 -103 8 -137h-95c-5 24 -7 36 -7 82c-19 -35 -51 -94 -139 -94c-80 0 -138 51 -138 142c0 79 43 134 102 154c42 14 96 22 167 20v20c0 36 0 106 -73 106
c-65 0 -76 -56 -80 -77zM304 216v25c-16 1 -23 1 -30 1c-118 0 -133 -59 -133 -105c0 -59 32 -74 66 -74c43 0 97 44 97 153zM339 669l42 -28c-14 -23 -45 -75 -100 -75c-16 0 -30 3 -63 22c-28 16 -39 20 -50 20c-22 0 -34 -17 -48 -36l-41 28c31 51 60 74 99 74
c19 0 31 -4 63 -21c29 -17 42 -21 54 -21c22 0 35 21 44 37z" />
    <glyph glyph-name="ccedilla" unicode="&#xe7;" horiz-adv-x="409" 
d="M402 327l-98 -10c-8 58 -17 107 -75 107c-70 0 -87 -69 -87 -188c0 -44 0 -164 88 -164c63 0 70 65 74 106l98 -8c-13 -93 -39 -173 -172 -182l-12 -35c18 1 34 2 51 -5c38 -12 48 -44 48 -66c0 -45 -38 -81 -100 -81c-46 0 -77 19 -97 30l14 37c17 -8 42 -19 74 -19
c25 0 40 11 40 31c0 40 -50 38 -91 37l27 74c-63 14 -87 44 -95 54c-45 57 -54 140 -54 200c0 114 31 260 194 260c147 0 165 -125 173 -178z" />
    <glyph glyph-name="eacute" unicode="&#xe9;" horiz-adv-x="443" 
d="M418 231h-278c0 -55 0 -166 95 -166c66 0 79 57 87 92l92 -13c-9 -37 -37 -156 -182 -156c-146 0 -196 122 -196 251c0 182 87 266 197 266c80 0 129 -47 149 -86c34 -67 35 -128 36 -188zM142 300h173c0 19 0 41 -9 70c-16 50 -56 60 -76 60c-62 0 -83 -63 -88 -130z
M174 590l156 137l53 -67l-172 -108z" />
    <glyph glyph-name="ecircumflex" unicode="&#xea;" horiz-adv-x="443" 
d="M418 231h-278c0 -55 0 -166 95 -166c66 0 79 57 87 92l92 -13c-9 -37 -37 -156 -182 -156c-146 0 -196 122 -196 251c0 182 87 266 197 266c80 0 129 -47 149 -86c34 -67 35 -128 36 -188zM142 300h173c0 19 0 41 -9 70c-16 50 -56 60 -76 60c-62 0 -83 -63 -88 -130z
M48 563l174 134l174 -134l-86 -7l-88 59l-88 -59z" />
    <glyph glyph-name="edieresis" unicode="&#xeb;" horiz-adv-x="443" 
d="M418 231h-278c0 -55 0 -166 95 -166c66 0 79 57 87 92l92 -13c-9 -37 -37 -156 -182 -156c-146 0 -196 122 -196 251c0 182 87 266 197 266c80 0 129 -47 149 -86c34 -67 35 -128 36 -188zM142 300h173c0 19 0 41 -9 70c-16 50 -56 60 -76 60c-62 0 -83 -63 -88 -130z
M144 568c-22 0 -53 16 -53 50c0 31 27 51 53 51s53 -20 53 -51c0 -33 -31 -50 -53 -50zM300 568c-23 0 -53 18 -53 50c0 30 26 51 53 51c26 0 53 -20 53 -51c0 -33 -31 -50 -53 -50z" />
    <glyph glyph-name="egrave" unicode="&#xe8;" horiz-adv-x="443" 
d="M418 231h-278c0 -55 0 -166 95 -166c66 0 79 57 87 92l92 -13c-9 -37 -37 -156 -182 -156c-146 0 -196 122 -196 251c0 182 87 266 197 266c80 0 129 -47 149 -86c34 -67 35 -128 36 -188zM142 300h173c0 19 0 41 -9 70c-16 50 -56 60 -76 60c-62 0 -83 -63 -88 -130z
M297 590l-37 -38l-172 108l53 67z" />
    <glyph glyph-name="iacute" unicode="&#xed;" horiz-adv-x="222" 
d="M60 493h102v-493h-102v493zM63 590l156 137l53 -67l-172 -108z" />
    <glyph glyph-name="icircumflex" unicode="&#xee;" horiz-adv-x="222" 
d="M60 493h102v-493h-102v493zM-63 563l174 134l174 -134l-86 -7l-88 59l-88 -59z" />
    <glyph glyph-name="idieresis" unicode="&#xef;" horiz-adv-x="222" 
d="M60 493h102v-493h-102v493zM33 568c-22 0 -53 16 -53 50c0 31 27 51 53 51s53 -20 53 -51c0 -33 -31 -50 -53 -50zM189 568c-23 0 -53 18 -53 50c0 30 26 51 53 51c26 0 53 -20 53 -51c0 -33 -31 -50 -53 -50z" />
    <glyph glyph-name="igrave" unicode="&#xec;" horiz-adv-x="222" 
d="M60 493h102v-493h-102v493zM186 590l-37 -38l-172 108l53 67z" />
    <glyph glyph-name="ntilde" unicode="&#xf1;" horiz-adv-x="460" 
d="M60 0v493h94v-76c12 27 37 88 122 88c32 0 83 -8 110 -61c16 -31 17 -77 17 -126v-318h-102v312c0 64 0 111 -59 111c-80 0 -80 -96 -80 -147v-276h-102zM339 669l42 -28c-14 -23 -45 -75 -100 -75c-16 0 -30 3 -63 22c-28 16 -39 20 -50 20c-22 0 -34 -17 -48 -36
l-41 28c31 51 60 74 99 74c19 0 31 -4 63 -21c29 -17 42 -21 54 -21c22 0 35 21 44 37z" />
    <glyph glyph-name="oacute" unicode="&#xf3;" horiz-adv-x="460" 
d="M231 505c154 0 193 -133 193 -253c0 -115 -27 -264 -195 -264c-153 0 -193 131 -193 259c0 119 33 258 195 258zM230 428c-62 0 -86 -62 -86 -182c0 -129 29 -181 86 -181s86 50 86 182c0 127 -28 181 -86 181zM182 590l156 137l53 -67l-172 -108z" />
    <glyph glyph-name="ocircumflex" unicode="&#xf4;" horiz-adv-x="460" 
d="M231 505c154 0 193 -133 193 -253c0 -115 -27 -264 -195 -264c-153 0 -193 131 -193 259c0 119 33 258 195 258zM230 428c-62 0 -86 -62 -86 -182c0 -129 29 -181 86 -181s86 50 86 182c0 127 -28 181 -86 181zM56 563l174 134l174 -134l-86 -7l-88 59l-88 -59z" />
    <glyph glyph-name="odieresis" unicode="&#xf6;" horiz-adv-x="460" 
d="M231 505c154 0 193 -133 193 -253c0 -115 -27 -264 -195 -264c-153 0 -193 131 -193 259c0 119 33 258 195 258zM230 428c-62 0 -86 -62 -86 -182c0 -129 29 -181 86 -181s86 50 86 182c0 127 -28 181 -86 181zM152 568c-22 0 -53 16 -53 50c0 31 27 51 53 51
s53 -20 53 -51c0 -33 -31 -50 -53 -50zM308 568c-23 0 -53 18 -53 50c0 30 26 51 53 51c26 0 53 -20 53 -51c0 -33 -31 -50 -53 -50z" />
    <glyph glyph-name="ograve" unicode="&#xf2;" horiz-adv-x="460" 
d="M231 505c154 0 193 -133 193 -253c0 -115 -27 -264 -195 -264c-153 0 -193 131 -193 259c0 119 33 258 195 258zM230 428c-62 0 -86 -62 -86 -182c0 -129 29 -181 86 -181s86 50 86 182c0 127 -28 181 -86 181zM305 590l-37 -38l-172 108l53 67z" />
    <glyph glyph-name="otilde" unicode="&#xf5;" horiz-adv-x="460" 
d="M231 505c154 0 193 -133 193 -253c0 -115 -27 -264 -195 -264c-153 0 -193 131 -193 259c0 119 33 258 195 258zM230 428c-62 0 -86 -62 -86 -182c0 -129 29 -181 86 -181s86 50 86 182c0 127 -28 181 -86 181zM339 669l42 -28c-14 -23 -45 -75 -100 -75
c-16 0 -30 3 -63 22c-28 16 -39 20 -50 20c-22 0 -34 -17 -48 -36l-41 28c31 51 60 74 99 74c19 0 31 -4 63 -21c29 -17 42 -21 54 -21c22 0 35 21 44 37z" />
    <glyph glyph-name="scaron" unicode="&#x161;" horiz-adv-x="392" 
d="M357 378l-80 -22c-7 22 -24 74 -83 74c-42 0 -64 -29 -64 -61c0 -45 31 -55 99 -77c59 -19 146 -48 146 -148c0 -76 -57 -156 -181 -156c-152 0 -171 107 -178 143l87 17c4 -23 16 -85 95 -85c67 0 77 47 77 65c0 48 -45 62 -87 75c-68 22 -155 49 -155 150
c0 78 60 152 164 152c124 0 151 -94 160 -127zM22 682l86 7l88 -60l88 60l86 -7l-174 -134z" />
    <glyph glyph-name="uacute" unicode="&#xfa;" horiz-adv-x="460" 
d="M57 493h102v-313c0 -69 0 -110 57 -110c82 0 82 95 82 186v237h102v-493h-94v74c-18 -36 -43 -86 -125 -86c-124 0 -124 108 -124 190v315zM182 590l156 137l53 -67l-172 -108z" />
    <glyph glyph-name="ucircumflex" unicode="&#xfb;" horiz-adv-x="460" 
d="M57 493h102v-313c0 -69 0 -110 57 -110c82 0 82 95 82 186v237h102v-493h-94v74c-18 -36 -43 -86 -125 -86c-124 0 -124 108 -124 190v315zM56 563l174 134l174 -134l-86 -7l-88 59l-88 -59z" />
    <glyph glyph-name="udieresis" unicode="&#xfc;" horiz-adv-x="460" 
d="M57 493h102v-313c0 -69 0 -110 57 -110c82 0 82 95 82 186v237h102v-493h-94v74c-18 -36 -43 -86 -125 -86c-124 0 -124 108 -124 190v315zM152 568c-22 0 -53 16 -53 50c0 31 27 51 53 51s53 -20 53 -51c0 -33 -31 -50 -53 -50zM308 568c-23 0 -53 18 -53 50
c0 30 26 51 53 51c26 0 53 -20 53 -51c0 -33 -31 -50 -53 -50z" />
    <glyph glyph-name="ugrave" unicode="&#xf9;" horiz-adv-x="460" 
d="M57 493h102v-313c0 -69 0 -110 57 -110c82 0 82 95 82 186v237h102v-493h-94v74c-18 -36 -43 -86 -125 -86c-124 0 -124 108 -124 190v315zM305 590l-37 -38l-172 108l53 67z" />
    <glyph glyph-name="yacute" unicode="&#xfd;" horiz-adv-x="358" 
d="M0 493h102l86 -338l88 338h92l-160 -524c-24 -77 -46 -146 -143 -146c-24 0 -37 3 -53 6v82c12 -2 22 -3 36 -3c56 0 68 20 92 108zM131 590l156 137l53 -67l-172 -108z" />
    <glyph glyph-name="ydieresis" unicode="&#xff;" horiz-adv-x="358" 
d="M0 493h102l86 -338l88 338h92l-160 -524c-24 -77 -46 -146 -143 -146c-24 0 -37 3 -53 6v82c12 -2 22 -3 36 -3c56 0 68 20 92 108zM101 568c-22 0 -53 16 -53 50c0 31 27 51 53 51s53 -20 53 -51c0 -33 -31 -50 -53 -50zM257 568c-23 0 -53 18 -53 50c0 30 26 51 53 51
c26 0 53 -20 53 -51c0 -33 -31 -50 -53 -50z" />
    <glyph glyph-name="zcaron" unicode="&#x17e;" horiz-adv-x="341" 
d="M32 493h300v-62l-208 -354h210v-77h-319v77l200 339h-183v77zM-3 682l86 7l88 -60l88 60l86 -7l-174 -134z" />
    <glyph glyph-name="one.superior" horiz-adv-x="341" 
d="M170 671h61v-343h68v-61h-222v61h73v242c-28 -24 -40 -32 -75 -49v74c19 10 55 28 95 76z" />
    <glyph glyph-name="two.superior" horiz-adv-x="341" 
d="M99 528l-77 15c7 35 27 131 143 131c92 0 133 -60 133 -120c0 -65 -45 -110 -73 -136c-8 -8 -49 -46 -104 -81h180l-4 -70h-273v65c40 33 118 95 160 149c14 17 27 42 27 69c0 29 -14 58 -51 58c-52 0 -58 -56 -61 -80z" />
    <glyph glyph-name="three.superior" horiz-adv-x="341" 
d="M98 553l-73 16c8 28 31 105 140 105c80 0 127 -44 127 -109c0 -58 -41 -77 -61 -87c20 -7 73 -25 73 -97c0 -73 -58 -121 -144 -121c-123 0 -140 86 -146 115l74 16c5 -22 14 -67 69 -67c23 0 59 11 59 61c0 56 -44 60 -76 60h-33v58h33c25 0 68 0 68 54
c0 50 -31 55 -50 55c-44 0 -54 -35 -60 -59z" />
    <glyph glyph-name="a.superior" 
d="M202 572l-84 9c6 24 14 58 62 81c28 15 59 17 77 17c125 0 125 -83 125 -139v-108c0 -29 0 -71 9 -96h-73c-2 18 -3 24 -5 52c-15 -21 -40 -60 -103 -60c-54 0 -104 31 -104 101c0 110 116 120 190 119c0 29 1 68 -45 68c-39 0 -45 -30 -49 -44zM196 433
c0 -22 8 -42 39 -42c61 0 61 70 61 101c-18 3 -100 10 -100 -59z" />
    <glyph glyph-name="Omega" unicode="&#x2126;" horiz-adv-x="652" 
d="M169 79v3c-61 58 -117 156 -117 282c0 177 115 312 276 312c172 0 270 -154 270 -306c0 -130 -59 -233 -118 -288v-3h131v-79h-231v58c61 43 121 140 121 292c0 121 -59 244 -174 244c-109 0 -178 -107 -178 -248c0 -140 60 -247 122 -288v-58h-232v79h130z" />
    <glyph glyph-name="uni03BC" unicode="&#x3bc;" horiz-adv-x="460" 
d="M298 493h102v-493h-94v74c-8 -33 -20 -86 -78 -86c-57 0 -70 53 -77 86v-241h-94v660h102v-237c0 -79 1 -119 13 -146c10 -24 29 -40 56 -40c29 0 48 17 58 40c11 28 12 77 12 146v237z" />
    <glyph glyph-name="pi" unicode="&#x3c0;" horiz-adv-x="541" 
d="M518 415h-69v-276c0 -73 5 -111 13 -139h-94c-9 18 -15 62 -15 134v281h-144c-5 -112 -30 -318 -63 -415h-94c33 109 59 300 62 415c-50 0 -76 -4 -95 -11l-12 65c23 17 67 29 142 29h376z" />
    <glyph glyph-name="Euro" unicode="&#x20ac;" 
d="M505 491l-94 -15c-13 62 -28 121 -99 121c-64 0 -95 -48 -105 -165h165l-10 -61h-158c0 -14 -1 -28 -1 -43v-22h148l-10 -61h-135c9 -120 41 -175 106 -175c44 0 81 22 98 114l93 -14c-31 -142 -101 -182 -206 -182c-113 0 -189 86 -204 257h-79l10 61h65v28
c0 13 1 25 1 37h-76l10 61h70c19 161 90 247 218 247c116 0 170 -65 193 -188z" />
    <glyph glyph-name="afii61289" unicode="&#x2113;" horiz-adv-x="461" 
d="M401 157l41 -40c-44 -88 -109 -125 -182 -125c-110 0 -154 77 -160 167c0 3 0 7 -1 11c-15 -12 -33 -28 -50 -41l-25 53c27 24 52 43 75 66v251c0 169 74 234 155 234c83 0 121 -71 121 -162c0 -115 -72 -226 -184 -338v-38c1 -88 41 -126 90 -126c53 0 96 46 120 88z
M191 500v-175c70 82 123 169 123 249c0 54 -15 88 -57 88c-31 0 -66 -38 -66 -162z" />
    <glyph glyph-name="estimated" unicode="&#x212e;" horiz-adv-x="833" 
d="M800 324h-622c-3 0 -5 -1 -5 -4v-188c0 -9 3 -16 8 -22c61 -62 144 -102 236 -102c99 0 187 45 247 114h55c-68 -80 -180 -133 -303 -133c-212 0 -384 154 -384 344c0 191 172 346 384 346s384 -155 384 -346v-9zM659 348v189c0 9 -3 17 -9 23c-61 59 -142 98 -233 98
s-174 -40 -235 -101c-6 -6 -9 -14 -9 -24v-185c0 -2 2 -6 5 -6h477c3 0 4 4 4 6z" />
    <glyph glyph-name="partialdiff" unicode="&#x2202;" horiz-adv-x="518" 
d="M95 623l-29 73c30 24 81 54 162 54c127 0 244 -117 244 -361c0 -235 -89 -397 -250 -397c-125 0 -185 116 -185 223c0 152 92 247 198 247c79 0 127 -54 141 -80h1c1 9 1 27 1 36c0 140 -68 251 -162 251c-56 0 -96 -24 -121 -46zM231 74h1c77 0 125 112 136 221
c-11 35 -52 89 -115 89c-69 0 -121 -80 -121 -172c0 -79 39 -138 99 -138z" />
    <glyph glyph-name="product" unicode="&#x220f;" horiz-adv-x="655" 
d="M631 577h-96v-669h-95v669h-225v-669h-95v669h-96v89h607v-89z" />
    <glyph glyph-name="summation" unicode="&#x2211;" 
d="M492 -92h-470v64l233 315l-224 311v68h447v-83h-318v-3l204 -277l-224 -301v-2h352v-92z" />
    <glyph glyph-name="uni2219" unicode="&#x2219;" horiz-adv-x="239" 
d="M64 320h111v-126h-111v126z" />
    <glyph glyph-name="radical" unicode="&#x221a;" horiz-adv-x="540" 
d="M542 796l-205 -933h-80l-141 429l-69 -27l-16 56l144 58l104 -324c6 -28 13 -57 17 -77l2 -1c3 20 7 51 13 81l163 738h68z" />
    <glyph glyph-name="infinity" unicode="&#x221e;" horiz-adv-x="726" 
d="M679 276v-1c0 -97 -71 -156 -146 -156c-57 0 -105 30 -169 108c-49 -58 -99 -108 -175 -108s-143 64 -143 152c0 91 64 155 151 155c70 0 121 -47 170 -107c43 48 90 107 172 107c81 0 140 -60 140 -150zM197 175h1c56 0 98 52 135 94c-40 51 -77 103 -141 103
c-56 0 -89 -45 -89 -102c1 -52 39 -95 94 -95zM533 372h-1c-60 0 -105 -64 -136 -98c59 -69 91 -99 139 -99c56 0 87 51 87 96c0 61 -37 101 -89 101z" />
    <glyph glyph-name="integral" unicode="&#x222b;" horiz-adv-x="354" 
d="M334 807l-12 -67c-9 4 -21 9 -33 9c-17 0 -35 -7 -47 -24c-21 -27 -28 -80 -28 -165c0 -152 13 -304 13 -468c0 -96 -15 -156 -36 -192c-23 -42 -66 -59 -108 -59c-27 0 -54 8 -66 15l14 70c8 -4 23 -10 40 -10c16 0 32 6 42 20c17 23 28 64 28 155
c0 166 -13 321 -13 478c0 108 14 168 52 209c25 28 63 41 100 41c21 0 43 -6 54 -12z" />
    <glyph glyph-name="approxequal" unicode="&#x2248;" horiz-adv-x="513" 
d="M438 419l36 -32c-27 -53 -68 -94 -123 -94c-37 0 -62 13 -105 38c-28 17 -53 32 -83 32c-42 0 -65 -34 -88 -69l-37 32c28 55 75 93 131 93c45 0 77 -22 101 -36c32 -18 53 -33 83 -33c37 0 60 26 85 69zM438 251l36 -32c-27 -52 -68 -93 -123 -93c-37 0 -63 13 -105 38
c-29 18 -53 32 -83 32c-42 0 -66 -34 -88 -69l-37 32c28 55 76 93 131 93c46 0 76 -22 100 -35c31 -17 53 -34 84 -34c37 0 59 26 85 68z" />
    <glyph glyph-name="notequal" unicode="&#x2260;" horiz-adv-x="513" 
d="M372 481l-39 -87h134v-58h-156l-58 -131h214v-58h-236l-48 -108l-46 20l40 88h-131v58h153l58 131h-211v58h233l47 106z" />
    <glyph glyph-name="lessequal" unicode="&#x2264;" horiz-adv-x="513" 
d="M465 94l-414 210v63l413 210v-69l-354 -171v-2l355 -172v-69zM468 -2h-422v59h422v-59z" />
    <glyph glyph-name="greaterequal" unicode="&#x2265;" horiz-adv-x="513" 
d="M52 577l414 -210v-63l-414 -210v69l355 172v2l-355 171v69zM467 -2h-420v59h420v-59z" />
    <glyph glyph-name="lozenge" unicode="&#x25ca;" horiz-adv-x="540" 
d="M491 332l-185 -376h-77l-180 376l184 378h77zM405 330l-116 243c-7 18 -14 40 -18 56h-3c-4 -17 -10 -37 -18 -56l-116 -238l117 -247c8 -19 14 -40 16 -53h4c3 14 11 41 16 52z" />
    <glyph glyph-name="uni00A0" unicode="&#xa0;" horiz-adv-x="250" 
 />
    <glyph glyph-name="uni00AD" unicode="&#xad;" horiz-adv-x="290" 
d="M39 291h211v-82h-211v82z" />
    <glyph glyph-name="uni02C9" unicode="&#x2c9;" horiz-adv-x="500" 
d="M115 650h270v-64h-270v64z" />
    <glyph glyph-name="uni2215" unicode="&#x2215;" horiz-adv-x="85" 
d="M169 667h72l-325 -667h-72z" />
    <glyph glyph-name="uni03A9" unicode="&#x3a9;" horiz-adv-x="652" 
d="M169 79v3c-61 58 -117 156 -117 282c0 177 115 312 276 312c172 0 270 -154 270 -306c0 -130 -59 -233 -118 -288v-3h131v-79h-231v58c61 43 121 140 121 292c0 121 -59 244 -174 244c-109 0 -178 -107 -178 -248c0 -140 60 -247 122 -288v-58h-232v79h130z" />
    <glyph glyph-name="o.superior" 
d="M256 679c112 0 140 -91 140 -172c0 -94 -30 -179 -141 -179c-113 0 -140 90 -140 175c0 77 22 176 141 176zM256 624c-45 0 -57 -51 -57 -121c0 -80 16 -120 56 -120c37 0 57 32 57 120c0 80 -17 121 -56 121z" />
    <glyph glyph-name="uni2206" unicode="&#x2206;" horiz-adv-x="600" 
d="M27 0v60l219 622h113l213 -620v-62h-545zM125 79h345l-114 317c-15 51 -45 131 -56 174h-3c-8 -35 -36 -107 -51 -160z" />
    <glyph glyph-name="fi" unicode="&#xfb01;" horiz-adv-x="477" 
d="M174 493h86v-82h-86v-411h-99v411h-65v82h65c2 92 3 193 144 193c22 0 33 -2 47 -4v-82c-7 1 -14 2 -25 2c-63 0 -67 -34 -67 -81v-28zM315 493h102v-493h-102v493zM419 560h-106v108h106v-108z" />
    <glyph glyph-name="fl" unicode="&#xfb02;" horiz-adv-x="477" 
d="M174 493h86v-82h-86v-411h-99v411h-65v82h65c2 92 3 193 144 193c22 0 33 -2 47 -4v-82c-7 1 -14 2 -25 2c-63 0 -67 -34 -67 -81v-28zM315 667h102v-667h-102v667z" />
    <glyph glyph-name="onesuperior" unicode="&#xb9;" horiz-adv-x="341" 
d="M170 671h61v-343h68v-61h-222v61h73v242c-28 -24 -40 -32 -75 -49v74c19 10 55 28 95 76z" />
    <glyph glyph-name="threesuperior" unicode="&#xb3;" horiz-adv-x="341" 
d="M98 553l-73 16c8 28 31 105 140 105c80 0 127 -44 127 -109c0 -58 -41 -77 -61 -87c20 -7 73 -25 73 -97c0 -73 -58 -121 -144 -121c-123 0 -140 86 -146 115l74 16c5 -22 14 -67 69 -67c23 0 59 11 59 61c0 56 -44 60 -76 60h-33v58h33c25 0 68 0 68 54
c0 50 -31 55 -50 55c-44 0 -54 -35 -60 -59z" />
    <glyph glyph-name="twosuperior" unicode="&#xb2;" horiz-adv-x="341" 
d="M99 528l-77 15c7 35 27 131 143 131c92 0 133 -60 133 -120c0 -65 -45 -110 -73 -136c-8 -8 -49 -46 -104 -81h180l-4 -70h-273v65c40 33 118 95 160 149c14 17 27 42 27 69c0 29 -14 58 -51 58c-52 0 -58 -56 -61 -80z" />
    <glyph glyph-name="uni2010" unicode="&#x2010;" horiz-adv-x="290" 
d="M39 291h211v-82h-211v82z" />
    </font>
</defs>
</svg>
