<?xml version="1.0" encoding="utf-8"?>
<!-- Generator: Adobe Illustrator 16.0.0, SVG Export Plug-In . SVG Version: 6.00 Build 0)  -->
<!DOCTYPE svg PUBLIC "-//W3C//DTD SVG 1.1//EN" "http://www.w3.org/Graphics/SVG/1.1/DTD/svg11.dtd">
<svg version="1.1" id="Layer_1" xmlns="http://www.w3.org/2000/svg" xmlns:xlink="http://www.w3.org/1999/xlink" x="0px" y="0px"
	 width="501.732px" height="365.669px" viewBox="0 0 501.732 365.669" enable-background="new 0 0 501.732 365.669"
	 xml:space="preserve">
<g>
	<defs>
		<rect id="SVGID_1_" width="501.732" height="365.669"/>
	</defs>
	<clipPath id="SVGID_2_">
		<use xlink:href="#SVGID_1_"  overflow="visible"/>
	</clipPath>
	<path clip-path="url(#SVGID_2_)" d="M51.7,52.246l0.324-12.365c0.193-7.395-1.236-13.368-4.289-17.918
		c-3.052-4.549-8.086-6.915-15.096-7.099c-13.448-0.352-20.384,7.637-20.811,23.964l-1.834,70.03
		c-0.428,16.33,6.08,24.668,19.529,25.021c7.01,0.183,12.16-1.917,15.447-6.3c3.286-4.383,5.026-10.271,5.22-17.668l0.307-11.712
		l-11.078-0.29l-0.453,17.29c-0.067,2.563-0.918,4.856-2.553,6.884c-1.636,2.027-3.931,3.003-6.881,2.925
		c-6.118-0.16-9.084-3.588-8.909-10.289l2.121-80.981c0.175-6.697,3.317-9.969,9.434-9.809c2.951,0.077,5.192,1.171,6.719,3.281
		c1.527,2.111,2.257,4.45,2.19,7.009l-0.465,17.737L51.7,52.246z M90.573,36.043l-2.093,79.902
		c-0.189,7.25-3.377,10.791-9.558,10.63c-6.185-0.162-9.178-3.866-8.988-11.116l2.092-79.902c0.19-7.245,3.372-10.792,9.558-10.63
		C87.765,25.089,90.762,28.798,90.573,36.043 M99.65,110.986l1.824-69.645c0.192-7.348-1.272-13.337-4.392-17.968
		c-3.122-4.628-8.211-7.036-15.268-7.221c-13.539-0.355-20.522,7.688-20.952,24.126l-1.824,69.644
		c-0.43,16.44,6.122,24.835,19.661,25.189c7.057,0.185,12.265-1.951,15.625-6.412C97.682,124.24,99.458,118.335,99.65,110.986
		 M167.089,136.204l3.055-116.661l-9.69-0.253l-19.493,66.516l-1.475,6.843l-0.184,1.629l-0.852-0.023l-0.166-0.004l0.057-0.671
		l-1.271-7.876l-15.985-67.445l-9.558-0.251l-3.055,116.661l11.36,0.298l1.098-41.951l0.113-26.653l1.192,0.031l0.074,0.002
		l0.088,0.882l3.195,17.521l9.306,50.562l5.481,0.144l11.939-50.007l4.315-18.204l0.232,0.007l0.001-0.003l1.205,0.035l-0.484,4.951
		l-0.343,7.131l-1.48,56.492L167.089,136.204z M208.767,39.138l-2.093,79.902c-0.189,7.25-3.377,10.791-9.558,10.63
		c-6.185-0.162-9.178-3.866-8.988-11.116l2.092-79.902c0.19-7.245,3.372-10.792,9.558-10.629
		C205.959,28.184,208.956,31.893,208.767,39.138 M219.668,44.436c0.192-7.348-1.272-13.337-4.392-17.968
		c-3.121-4.628-8.211-7.036-15.268-7.221c-13.539-0.355-20.521,7.688-20.952,24.125l-1.824,69.645
		c-0.43,16.44,6.122,24.835,19.661,25.189c7.057,0.185,12.265-1.951,15.625-6.412c3.358-4.459,5.134-10.364,5.326-17.713
		L219.668,44.436z"/>
	<path clip-path="url(#SVGID_2_)" d="M423.206,46.072l0.944-14.601l0.84-0.022l1.776,14.696l7.051,58.346l-14.415,0.378
		L423.206,46.072z M440.131,16.6l-32.214,0.843l-7.619,117.168l17.206-0.451l0.991-15.319l17.001-0.445l1.844,15.245l16.867-0.442
		L440.131,16.6z M365.401,32.337l4.87-0.127c1.566-0.041,2.787,0.515,3.656,1.669c0.871,1.153,1.325,2.46,1.363,3.913l2.041,77.926
		c0.038,1.456-0.348,2.782-1.157,3.979c-0.808,1.198-1.998,1.817-3.563,1.858l-4.87,0.128L365.401,32.337z M349.46,135.942
		l23.511-0.615c9.629-0.253,15.867-2.685,18.717-7.297c2.846-4.612,4.151-11.508,3.912-20.689l-1.629-62.139
		c-0.228-8.733-1.974-15.436-5.231-20.114c-3.26-4.675-9.033-6.906-17.317-6.689l-25.022,0.655L349.46,135.942z M320.434,19.734
		l1.257,48.032l1.063,8.543l-1.175,0.031l-13.406-56.285l-15.282,0.4l3.061,116.888l18.642-0.488l-1.108-42.321l-0.741-9.056
		l1.008-0.026l12.094,51.109l16.122-0.423L338.906,19.25L320.434,19.734z M259.523,50.359l0.943-14.602l0.84-0.022l1.776,14.696
		l7.05,58.346l-14.414,0.378L259.523,50.359z M276.447,20.886l-32.213,0.844l-7.62,117.167l17.206-0.45l0.991-15.32l17.002-0.445
		l1.843,15.245l16.868-0.442L276.447,20.886z"/>
</g>
<g>
	<defs>
		<rect id="SVGID_3_" width="501.732" height="365.669"/>
	</defs>
	<clipPath id="SVGID_4_">
		<use xlink:href="#SVGID_3_"  overflow="visible"/>
	</clipPath>
	<path clip-path="url(#SVGID_4_)" d="M485.64,355.665h2.988v-3.815h-2.988V355.665z M488.376,349.689v-1.296
		c0-1.944,0.359-2.772,2.052-4.32c1.908-1.836,3.204-3.744,3.204-6.588c0-3.349-1.836-6.265-5.688-6.265
		c-5.436,0-5.939,5.545-6.084,7.021l2.34,0.576c0.217-2.017,0.576-5.4,3.601-5.4c1.691,0,3.06,1.404,3.06,4.176
		c0,2.088-0.684,3.24-2.376,4.969c-2.268,2.231-2.556,3.06-2.556,5.939v1.188H488.376z M479.231,327.117l-1.116-2.448l-6.12,3.42
		l0.721,1.404L479.231,327.117z M470.34,333.993h8.244v-2.34h-10.98v24.012H478.8v-2.34h-8.46v-8.964h6.372v-2.34h-6.372V333.993z
		 M454.428,333.993h2.088c1.26,0,4.104,0,4.104,4.86c0,3.96-1.764,4.716-3.96,4.716h-2.231V333.993z M451.691,355.665h2.736v-9.756
		h2.34c4.896,0,6.624-3.24,6.624-7.056c0-2.952-0.9-4.393-1.584-5.257c-1.296-1.584-2.952-1.943-5.472-1.943h-4.645V355.665z
		 M429.012,346.485l2.268-11.988l2.196,11.988H429.012z M429.983,331.653l-5.508,24.012h2.592l1.477-6.948h5.363l1.513,6.948h2.808
		l-5.4-24.012H429.983z M404.892,333.993h8.244v-2.34h-10.98v24.012h11.196v-2.34h-8.46v-8.964h6.372v-2.34h-6.372V333.993z
		 M385.921,333.993h1.691c1.8,0,3.853,0.504,5.004,3.132c0.504,1.188,1.08,2.988,1.08,6.48c0,3.815-0.828,6.372-1.8,7.812
		c-0.252,0.36-1.332,1.908-4.104,1.908h-1.872V333.993z M383.185,355.665h4.356c1.044,0,3.924,0,5.832-2.016
		c1.728-1.765,3.203-5.725,3.203-10.188c0-4.067-1.224-8.244-3.312-10.008c-1.584-1.404-3.384-1.8-6.12-1.8h-3.96V355.665z
		 M369.973,346.485l2.268-11.988l2.196,11.988H369.973z M370.944,331.653l-5.508,24.012h2.592l1.477-6.948h5.363l1.513,6.948h2.808
		l-5.399-24.012H370.944z M351.648,333.993h1.692c1.8,0,3.852,0.504,5.004,3.132c0.504,1.188,1.08,2.988,1.08,6.48
		c0,3.815-0.828,6.372-1.8,7.812c-0.252,0.36-1.332,1.908-4.104,1.908h-1.872V333.993z M348.912,355.665h4.356
		c1.044,0,3.924,0,5.832-2.016c1.728-1.765,3.204-5.725,3.204-10.188c0-4.067-1.224-8.244-3.312-10.008
		c-1.584-1.404-3.384-1.8-6.119-1.8h-3.961V355.665z M339.769,355.665h2.736v-24.012h-2.736V355.665z M325.693,355.665h10.225v-2.34
		h-7.488v-21.672h-2.736V355.665z M316.55,355.665h2.735v-24.012h-2.735V355.665z M302.149,344.217h2.448
		c1.368,0,4.355,0,4.355,4.429c0,4.319-2.016,4.68-4.212,4.68h-2.592V344.217z M302.149,333.993h2.088c1.296,0,3.996,0,3.996,3.996
		c0,3.168-1.26,3.996-3.852,3.996h-2.232V333.993z M299.414,355.665h5.291c1.152,0,3.312,0,4.572-0.828
		c1.692-1.116,2.448-3.527,2.448-5.796c0-4.824-2.736-5.796-3.78-6.156c0.469-0.18,1.188-0.396,1.765-1.08
		c1.08-1.296,1.224-3.239,1.224-4.14c0-0.936-0.108-2.592-1.224-4.068c-0.9-1.224-2.196-1.943-5.292-1.943h-5.004V355.665z
		 M286.705,333.562c3.097,0,4.248,3.42,4.248,10.115c0,6.336-1.044,10.08-4.248,10.08c-2.592,0-4.247-2.34-4.247-10.476
		C282.458,336.657,283.825,333.562,286.705,333.562 M286.705,331.221c-5.831,0-7.092,6.769-7.092,12.601
		c0,8.388,2.34,12.275,7.128,12.275c0.828,0,3.276,0,4.969-2.735c1.512-2.521,2.124-5.904,2.124-9.864
		C293.834,336.693,292.178,331.221,286.705,331.221 M257.187,355.665h2.448l-0.216-20.592l5.04,20.592h2.052l5.076-20.484
		l-0.217,20.484h2.664v-24.012h-3.563l-4.86,19.512l-4.788-19.512h-3.636V355.665z M235.155,333.993h8.244v-2.34h-10.98v24.012
		h11.196v-2.34h-8.46v-8.964h6.372v-2.34h-6.372V333.993z M220.106,355.665h2.952l5.436-24.012h-2.772l-4.068,20.412l-4.104-20.412
		h-2.916L220.106,355.665z M204.411,333.562c3.096,0,4.248,3.42,4.248,10.115c0,6.336-1.044,10.08-4.248,10.08
		c-2.592,0-4.248-2.34-4.248-10.476C200.163,336.657,201.531,333.562,204.411,333.562 M204.411,331.221
		c-5.832,0-7.092,6.769-7.092,12.601c0,8.388,2.34,12.275,7.128,12.275c0.828,0,3.276,0,4.968-2.735
		c1.512-2.521,2.124-5.904,2.124-9.864C211.539,336.693,209.883,331.221,204.411,331.221 M174.891,355.665h2.448l-0.216-20.592
		l5.04,20.592h2.052l5.076-20.484l-0.216,20.484h2.664v-24.012h-3.564l-4.86,19.512l-4.788-19.512h-3.636V355.665z M162.184,333.562
		c3.096,0,4.248,3.42,4.248,10.115c0,6.336-1.044,10.08-4.248,10.08c-2.592,0-4.248-2.34-4.248-10.476
		C157.936,336.657,159.304,333.562,162.184,333.562 M162.184,331.221c-5.832,0-7.092,6.769-7.092,12.601
		c0,8.388,2.34,12.275,7.128,12.275c0.828,0,3.276,0,4.968-2.735c1.512-2.521,2.124-5.904,2.124-9.864
		C169.312,336.693,167.656,331.221,162.184,331.221 M141.52,333.993h2.484c1.404,0,2.304,0.216,2.916,0.936
		c1.044,1.188,1.152,2.881,1.152,3.456c0,1.08-0.288,2.557-1.044,3.385c-0.864,0.936-1.692,1.044-2.88,1.044h-2.628V333.993z
		 M138.784,355.665h2.736v-10.512h3.42l3.528,10.512h2.916l-3.852-11.052c0.576-0.216,1.44-0.576,2.196-1.764
		c0.504-0.792,1.116-2.089,1.116-4.5c0-1.116-0.108-2.664-1.116-4.248c-1.548-2.412-3.564-2.448-5.616-2.448h-5.328V355.665z
		 M125.607,333.993h2.088c1.26,0,4.104,0,4.104,4.86c0,3.96-1.764,4.716-3.96,4.716h-2.232V333.993z M122.872,355.665h2.736v-9.756
		h2.34c4.896,0,6.624-3.24,6.624-7.056c0-2.952-0.9-4.393-1.584-5.257c-1.296-1.584-2.952-1.943-5.472-1.943h-4.644V355.665z
		 M90.147,355.665h2.448l-0.216-20.592l5.04,20.592h2.052l5.076-20.484l-0.216,20.484h2.664v-24.012h-3.564l-4.86,19.512
		l-4.788-19.512h-3.636V355.665z M77.583,333.993h8.244v-2.34h-10.98v24.012h11.196v-2.34h-8.46v-8.964h6.372v-2.34h-6.372V333.993z
		 M56.668,331.653v16.775c0,3.564,0.072,7.668,6.012,7.668c6.192,0,6.192-5.111,6.192-7.703v-16.74h-2.628v16.884
		c0,3.78-0.864,5.22-3.528,5.22c-3.24,0-3.312-2.447-3.312-5.363v-16.74H56.668z M44.393,333.562c3.096,0,4.248,3.42,4.248,10.115
		c0,6.372-1.044,10.116-4.248,10.116c-2.592,0-4.248-2.34-4.248-10.476C40.145,336.657,41.513,333.562,44.393,333.562
		 M50.153,358.617c-0.648,0.252-1.188,0.468-1.872,0.468c-1.8,0-2.016-1.224-2.016-2.592c0-0.216,0-0.396,0.036-0.612
		c4.716-1.476,5.22-8.892,5.22-12.348c0-6.444-1.476-12.312-7.092-12.312c-5.76,0-7.128,6.444-7.128,12.601
		c0,2.556,0.252,8.676,3.132,11.016c1.296,1.008,2.52,1.152,3.276,1.26c0.036,1.872,0.036,5.221,4.248,5.221
		c1.152,0,1.656-0.216,2.196-0.433V358.617z"/>
</g>
</svg>
