<?xml version="1.0" encoding="UTF-8" standalone="no"?>
<svg width="445px" height="125px" viewBox="0 0 445 125" version="1.1" xmlns="http://www.w3.org/2000/svg" xmlns:xlink="http://www.w3.org/1999/xlink">
    <!-- Generator: Sketch 3.6.1 (26313) - http://www.bohemiancoding.com/sketch -->
    <title>como_anda-tipografia 3</title>
    <desc>Created with Sketch.</desc>
    <defs></defs>
    <g id="Page-1" stroke="none" stroke-width="1" fill="none" fill-rule="evenodd">
        <g id="Artboard-1" transform="translate(-1.000000, -1.000000)" fill="#1A1918">
            <g id="como_anda-tipografia-3" transform="translate(1.000000, -1.000000)">
                <path d="M209.9316,32.3402 C210.1236,24.9922 208.6596,19.0032 205.5396,14.3722 C202.4186,9.7442 197.3286,7.3362 190.2716,7.1512 C176.7326,6.7962 169.7506,14.8392 169.3196,31.2762 L167.4956,100.9212 C167.0656,117.3612 173.6176,125.7562 187.1566,126.1102 C194.2136,126.2952 199.4216,124.1592 202.7816,119.6982 C206.1396,115.2392 207.9156,109.3342 208.1076,101.9852 L209.9316,32.3402 Z M199.0306,27.0422 L196.9376,106.9442 C196.7486,114.1942 193.5606,117.7352 187.3796,117.5742 C181.1946,117.4122 178.2016,113.7082 178.3916,106.4582 L180.4836,26.5562 C180.6736,19.3112 183.8556,15.7642 190.0416,15.9272 C196.2226,16.0882 199.2196,19.7972 199.0306,27.0422 L199.0306,27.0422 Z M157.3526,124.1082 L160.4076,7.4472 L150.7176,7.1942 L131.2246,73.7092 L129.7496,80.5532 L129.5656,82.1822 L128.7136,82.1592 L128.7136,82.1592 L128.5476,82.1552 L128.6046,81.4842 L127.3336,73.6082 L111.3486,6.1632 L101.7906,5.9122 L98.7356,122.5732 L110.0956,122.8712 L111.1936,80.9202 L111.3066,54.2672 L112.4986,54.2982 L112.4986,54.2982 L112.5726,54.3002 L112.6606,55.1822 L115.8556,72.7022 L125.1616,123.2652 L130.6426,123.4082 L142.5816,73.4022 L146.8966,55.1982 L147.1286,55.2052 L147.1296,55.2022 L148.3346,55.2362 L147.8506,60.1882 L147.5076,67.3192 L146.0276,123.8112 L157.3526,124.1082 Z M89.9136,98.8902 L91.7376,29.2452 C91.9296,21.8972 90.4656,15.9082 87.3456,11.2772 C84.2236,6.6492 79.1346,4.2412 72.0776,4.0562 C58.5386,3.7012 51.5556,11.7442 51.1256,28.1812 L49.3016,97.8262 C48.8716,114.2662 55.4236,122.6612 68.9626,123.0152 C76.0196,123.2002 81.2276,121.0642 84.5876,116.6032 C87.9456,112.1442 89.7216,106.2392 89.9136,98.8902 L89.9136,98.8902 Z M80.8366,23.9472 L78.7436,103.8492 C78.5546,111.0992 75.3666,114.6402 69.1856,114.4792 C63.0006,114.3172 60.0076,110.6132 60.1976,103.3632 L62.2896,23.4612 C62.4796,16.2162 65.6616,12.6692 71.8476,12.8312 C78.0286,12.9932 81.0256,16.7022 80.8366,23.9472 L80.8366,23.9472 Z M41.9636,40.1502 L42.2876,27.7852 C42.4806,20.3902 41.0516,14.4172 37.9986,9.8672 C34.9466,5.3182 29.9126,2.9522 22.9026,2.7682 C9.4546,2.4162 2.5186,10.4052 2.0916,26.7322 L0.2576,96.7622 C-0.1704,113.0922 6.3376,121.4302 19.7866,121.7832 C26.7966,121.9662 31.9466,119.8662 35.2336,115.4832 C38.5196,111.1002 40.2596,105.2122 40.4536,97.8152 L40.7606,86.1032 L29.6826,85.8132 L29.2296,103.1032 C29.1626,105.6662 28.3116,107.9592 26.6766,109.9872 C25.0406,112.0142 22.7456,112.9902 19.7956,112.9122 C13.6776,112.7522 10.7116,109.3242 10.8866,102.6232 L13.0076,21.6422 C13.1826,14.9452 16.3246,11.6722 22.4416,11.8332 C25.3926,11.9102 27.6336,13.0042 29.1606,15.1142 C30.6876,17.2252 31.4176,19.5642 31.3506,22.1232 L30.8856,39.8602 L41.9636,40.1502 Z" id="Fill-1"></path>
                <path d="M266.7105,8.7905 L234.4975,9.6345 L226.8775,126.8015 L244.0835,126.3515 L245.0745,111.0315 L262.0765,110.5865 L263.9195,125.8315 L280.7875,125.3895 L266.7105,8.7905 Z M249.7865,38.2625 L250.7305,23.6615 L251.5695,23.6395 L253.3465,38.3355 L260.3965,96.6815 L245.9825,97.0595 L249.7865,38.2625 Z M310.6965,7.6385 L311.9535,55.6705 L313.0175,64.2135 L311.8425,64.2445 L298.4365,7.9595 L283.1535,8.3595 L286.2145,125.2475 L304.8565,124.7595 L303.7475,82.4385 L303.0065,73.3825 L304.0145,73.3565 L316.1085,124.4655 L332.2305,124.0425 L329.1695,7.1545 L310.6965,7.6385 Z M339.7235,123.8465 L363.2345,123.2305 C372.8625,122.9785 379.1015,120.5465 381.9505,115.9345 C384.7965,111.3225 386.1025,104.4265 385.8625,95.2455 L384.2345,33.1065 C384.0065,24.3735 382.2605,17.6705 379.0025,12.9925 C375.7425,8.3175 369.9695,6.0865 361.6855,6.3035 L336.6625,6.9585 L339.7235,123.8465 Z M355.6645,20.2415 L360.5345,20.1145 C362.1015,20.0735 363.3215,20.6295 364.1915,21.7835 C365.0625,22.9365 365.5165,24.2435 365.5545,25.6965 L367.5955,103.6225 C367.6335,105.0785 367.2475,106.4045 366.4385,107.6015 C365.6305,108.7995 364.4405,109.4185 362.8745,109.4595 L358.0045,109.5875 L355.6645,20.2415 Z M430.3945,4.5045 L398.1805,5.3475 L390.5615,122.5155 L407.7675,122.0645 L408.7585,106.7455 L425.7595,106.3005 L427.6035,121.5455 L444.4705,121.1035 L430.3945,4.5045 Z M413.4695,33.9765 L414.4135,19.3755 L415.2535,19.3535 L417.0295,34.0485 L424.0805,92.3955 L409.6655,92.7735 L413.4695,33.9765 Z" id="Fill-3"></path>
            </g>
        </g>
    </g>
</svg>