<?xml version="1.0" encoding="UTF-8" standalone="no"?>
<svg width="445px" height="117px" viewBox="0 0 445 117" version="1.1" xmlns="http://www.w3.org/2000/svg" xmlns:xlink="http://www.w3.org/1999/xlink">
    <!-- Generator: Sketch 3.6.1 (26313) - http://www.bohemiancoding.com/sketch -->
    <title>como_anda-tipografia 5</title>
    <desc>Created with Sketch.</desc>
    <defs></defs>
    <g id="Page-1" stroke="none" stroke-width="1" fill="none" fill-rule="evenodd">
        <g id="z" transform="translate(-2.000000, -1.000000)" fill="#1A1918">
            <g id="como_anda-tipografia-5" transform="translate(2.000000, 1.000000)">
                <g id="Group-9" transform="translate(0.000000, 0.559000)">
                    <path d="M270.9869,0.1824 L238.9979,0.1824 L228.3919,116.2574 L245.4779,116.2574 L246.8589,101.0804 L263.7429,101.0804 L265.1759,116.2574 L281.9259,116.2574 L270.9869,0.1824 Z M253.4259,28.9904 L254.7419,14.5254 L255.5759,14.5254 L256.9569,29.1544 L262.4369,87.2384 L248.1229,87.2384 L253.4259,28.9904 Z M314.6669,0.1824 L314.6669,47.8794 L315.5009,56.3854 L314.3329,56.3854 L302.4919,0.1824 L287.3159,0.1824 L287.3159,116.2574 L305.8279,116.2574 L305.8279,74.2304 L305.3269,65.2244 L306.3279,65.2244 L317.0019,116.2574 L333.0119,116.2574 L333.0119,0.1824 L314.6669,0.1824 Z M340.4519,116.2574 L363.8009,116.2574 C373.3609,116.2574 379.6159,114.0064 382.5629,109.5034 C385.5069,105.0004 386.9819,98.1914 386.9819,89.0734 L386.9819,27.3664 C386.9819,18.6944 385.4239,11.9974 382.3129,7.2704 C379.1989,2.5454 373.5279,0.1824 365.3019,0.1824 L340.4519,0.1824 L340.4519,116.2574 Z M358.9639,13.8574 L363.8009,13.8574 C365.3559,13.8574 366.5519,14.4414 367.3859,15.6094 C368.2199,16.7764 368.6369,18.0844 368.6369,19.5284 L368.6369,96.9114 C368.6369,98.3574 368.2199,99.6634 367.3859,100.8304 C366.5519,101.9984 365.3559,102.5814 363.8009,102.5814 L358.9639,102.5814 L358.9639,13.8574 Z M433.5319,0.1824 L401.5429,0.1824 L390.9369,116.2574 L408.0239,116.2574 L409.4049,101.0804 L426.2879,101.0804 L427.7209,116.2574 L444.4719,116.2574 L433.5319,0.1824 Z M415.9709,28.9904 L417.2869,14.5254 L418.1209,14.5254 L419.5019,29.1544 L424.9819,87.2384 L410.6689,87.2384 L415.9709,28.9904 Z" id="Fill-1"></path>
                    <path d="M28.637,36.13 L39.441,36.13 L39.441,24.07 C39.441,16.858 37.895,11.072 34.804,6.716 C31.713,2.36 26.746,0.182 19.909,0.182 C6.793,0.182 0.237,8.146 0.237,24.07 L0.237,92.371 C0.237,108.298 6.793,116.259 19.909,116.259 C26.746,116.259 31.713,114.081 34.804,109.725 C37.895,105.369 39.441,99.586 39.441,92.371 L39.441,80.948 L28.637,80.948 L28.637,97.811 C28.637,100.311 27.866,102.568 26.324,104.586 C24.781,106.604 22.569,107.613 19.692,107.613 C13.725,107.613 10.746,104.347 10.746,97.811 L10.746,18.83 C10.746,12.299 13.725,9.029 19.692,9.029 C22.569,9.029 24.781,10.038 26.324,12.056 C27.866,14.074 28.637,16.335 28.637,18.83 L28.637,36.13 Z" id="Fill-3"></path>
                    <path d="M87.6744,92.1565 L87.6744,24.2305 C87.6744,17.0645 86.0944,11.2655 82.9354,6.8315 C79.7744,2.3995 74.7524,0.1825 67.8694,0.1825 C54.6654,0.1825 48.0654,8.1995 48.0654,24.2305 L48.0654,92.1565 C48.0654,108.1905 54.6654,116.2045 67.8694,116.2045 C74.7524,116.2045 79.7744,113.9905 82.9354,109.5565 C86.0944,105.1245 87.6744,99.3245 87.6744,92.1565 L87.6744,92.1565 Z M76.9144,97.2755 C76.9144,104.3455 73.8984,107.8785 67.8694,107.8785 C61.8374,107.8785 58.8254,104.3455 58.8254,97.2755 L58.8254,19.3455 C58.8254,12.2795 61.8374,8.7415 67.8694,8.7415 C73.8984,8.7415 76.9144,12.2795 76.9144,19.3455 L76.9144,97.2755 Z" id="Fill-5"></path>
                    <path d="M202.9505,92.1565 L202.9505,24.2305 C202.9505,17.0645 201.3705,11.2655 198.2115,6.8315 C195.0505,2.3995 190.0285,0.1825 183.1455,0.1825 C169.9415,0.1825 163.3415,8.1995 163.3415,24.2305 L163.3415,92.1565 C163.3415,108.1905 169.9415,116.2045 183.1455,116.2045 C190.0285,116.2045 195.0505,113.9905 198.2115,109.5565 C201.3705,105.1245 202.9505,99.3245 202.9505,92.1565 L202.9505,92.1565 Z M192.1905,97.2755 C192.1905,104.3455 189.1745,107.8785 183.1455,107.8785 C177.1135,107.8785 174.1015,104.3455 174.1015,97.2755 L174.1015,19.3455 C174.1015,12.2795 177.1135,8.7415 183.1455,8.7415 C189.1745,8.7415 192.1905,12.2795 192.1905,19.3455 L192.1905,97.2755 Z" id="Fill-7"></path>
                </g>
                <path d="M154.0471,115.573 L154.0471,1.792 L144.5961,1.792 L127.2951,67.119 L126.0321,73.827 L125.8941,75.419 L125.0641,75.419 L125.0641,75.419 L124.9011,75.419 L124.9401,74.764 L123.5001,67.119 L106.1991,1.792 L96.8771,1.792 L96.8771,115.573 L107.9561,115.573 L107.9561,74.659 L107.3861,48.678 L108.5491,48.678 L108.5491,48.678 L108.6201,48.678 L108.7281,49.535 L112.2901,66.53 L122.6511,115.573 L127.9961,115.573 L138.3561,66.53 L142.0981,48.678 L142.3241,48.678 L142.3241,48.675 L143.5001,48.678 L143.1541,53.517 L143.0021,60.475 L143.0021,115.573 L154.0471,115.573 Z" id="Fill-10"></path>
            </g>
        </g>
    </g>
</svg>