<?xml version="1.0" encoding="UTF-8" standalone="no"?>
<svg width="230px" height="272px" viewBox="0 0 230 272" version="1.1" xmlns="http://www.w3.org/2000/svg" xmlns:xlink="http://www.w3.org/1999/xlink">
    <!-- Generator: Sketch 3.6.1 (26313) - http://www.bohemiancoding.com/sketch -->
    <title>Artboard 1</title>
    <desc>Created with Sketch.</desc>
    <defs></defs>
    <g id="Page-1" stroke="none" stroke-width="1" fill="none" fill-rule="evenodd">
        <g id="Artboard-1" fill="#1A1918">
            <g id="como_anda-tipografia-1" transform="translate(1.000000, 1.000000)">
                <path d="M46.6256,151.463 L14.4126,152.307 L6.7926,269.474 L23.9996,269.024 L24.9896,253.704 L41.9916,253.259 L43.8346,268.504 L60.7026,268.062 L46.6256,151.463 Z M29.7016,180.936 L30.6456,166.334 L31.4846,166.312 L33.2616,181.008 L40.3116,239.354 L25.8976,239.732 L29.7016,180.936 Z M90.6116,150.311 L91.8696,198.343 L92.9336,206.886 L91.7576,206.917 L78.3516,150.632 L63.0686,151.032 L66.1296,267.92 L84.7716,267.432 L83.6626,225.111 L82.9216,216.055 L83.9296,216.029 L96.0236,267.138 L112.1456,266.715 L109.0846,149.827 L90.6116,150.311 Z M119.6386,266.519 L143.1496,265.904 C152.7776,265.651 159.0166,263.219 161.8656,258.607 C164.7116,253.995 166.0176,247.099 165.7776,237.918 L164.1496,175.779 C163.9216,167.046 162.1756,160.343 158.9176,155.665 C155.6576,150.99 149.8846,148.759 141.6006,148.976 L116.5776,149.631 L119.6386,266.519 Z M135.5796,162.914 L140.4496,162.787 C142.0166,162.746 143.2366,163.302 144.1066,164.456 C144.9776,165.609 145.4316,166.916 145.4696,168.369 L147.5106,246.295 C147.5486,247.751 147.1626,249.077 146.3536,250.274 C145.5456,251.472 144.3556,252.091 142.7896,252.132 L137.9196,252.26 L135.5796,162.914 Z M210.3096,147.177 L178.0956,148.02 L170.4766,265.188 L187.6826,264.737 L188.6736,249.418 L205.6746,248.973 L207.5186,264.218 L224.3856,263.776 L210.3096,147.177 Z M193.3846,176.649 L194.3286,162.048 L195.1686,162.026 L196.9446,176.722 L203.9956,235.068 L189.5806,235.446 L193.3846,176.649 Z" id="Fill-1"></path>
                <path d="M227.6165,32.6962 C227.8245,24.7372 226.2385,18.2502 222.8595,13.2332 C219.4775,8.2202 213.9645,5.6112 206.3205,5.4112 C191.6555,5.0272 184.0915,13.7392 183.6255,31.5442 L181.6505,106.9842 C181.1835,124.7912 188.2815,133.8842 202.9465,134.2682 C210.5905,134.4682 216.2325,132.1552 219.8715,127.3222 C223.5085,122.4922 225.4325,116.0962 225.6405,108.1352 L227.6165,32.6962 Z M215.8085,26.9572 L213.5415,113.5072 C213.3365,121.3602 209.8835,125.1972 203.1885,125.0212 C196.4885,124.8462 193.2465,120.8342 193.4515,112.9812 L195.7185,26.4312 C195.9235,18.5832 199.3715,14.7412 206.0715,14.9172 C212.7665,15.0922 216.0135,19.1092 215.8085,26.9572 L215.8085,26.9572 Z M170.6635,132.0992 L173.9725,5.7322 L163.4755,5.4572 L142.3615,77.5082 L140.7625,84.9212 L140.5635,86.6852 L139.6415,86.6602 L139.6415,86.6602 L139.4615,86.6552 L139.5235,85.9292 L138.1465,77.3972 L120.8315,4.3412 L110.4775,4.0692 L107.1685,130.4372 L119.4735,130.7592 L120.6635,85.3182 L120.7855,56.4472 L122.0775,56.4812 L122.0775,56.4812 L122.1565,56.4832 L122.2515,57.4382 L125.7135,76.4172 L135.7935,131.1862 L141.7305,131.3422 L154.6625,77.1752 L159.3375,57.4562 L159.5885,57.4632 L159.5895,57.4602 L160.8945,57.4972 L160.3705,62.8612 L159.9985,70.5852 L158.3955,131.7782 L170.6635,132.0992 Z M97.6135,104.7832 L99.5885,29.3432 C99.7965,21.3852 98.2105,14.8972 94.8315,9.8812 C91.4495,4.8672 85.9365,2.2592 78.2925,2.0592 C63.6275,1.6752 56.0635,10.3862 55.5975,28.1912 L53.6225,103.6312 C53.1555,121.4382 60.2535,130.5322 74.9185,130.9162 C82.5625,131.1162 88.2045,128.8022 91.8435,123.9702 C95.4805,119.1402 97.4045,112.7442 97.6135,104.7832 L97.6135,104.7832 Z M87.7805,23.6042 L85.5135,110.1552 C85.3085,118.0082 81.8555,121.8442 75.1605,121.6692 C68.4605,121.4932 65.2185,117.4822 65.4235,109.6292 L67.6905,23.0782 C67.8955,15.2302 71.3435,11.3892 78.0435,11.5642 C84.7385,11.7402 87.9855,15.7572 87.7805,23.6042 L87.7805,23.6042 Z M45.6735,41.1562 L46.0235,27.7622 C46.2335,19.7522 44.6855,13.2812 41.3785,8.3542 C38.0725,3.4262 32.6195,0.8632 25.0265,0.6642 C10.4595,0.2822 2.9465,8.9362 2.4835,26.6222 L0.4965,102.4782 C0.0335,120.1672 7.0835,129.1992 21.6505,129.5802 C29.2435,129.7792 34.8225,127.5052 38.3825,122.7572 C41.9425,118.0092 43.8275,111.6312 44.0375,103.6182 L44.3695,90.9322 L32.3705,90.6182 L31.8805,109.3472 C31.8075,112.1232 30.8855,114.6072 29.1135,116.8032 C27.3425,119.0002 24.8565,120.0562 21.6605,119.9722 C15.0335,119.7992 11.8205,116.0852 12.0105,108.8262 L14.3075,21.1082 C14.4975,13.8542 17.9005,10.3092 24.5275,10.4822 C27.7235,10.5662 30.1505,11.7512 31.8045,14.0372 C33.4595,16.3232 34.2495,18.8572 34.1775,21.6282 L33.6745,40.8422 L45.6735,41.1562 Z" id="Fill-2"></path>
            </g>
        </g>
    </g>
</svg>