<?xml version="1.0" encoding="UTF-8" standalone="no"?>
<svg width="228px" height="63px" viewBox="0 0 228 63" version="1.1" xmlns="http://www.w3.org/2000/svg" xmlns:xlink="http://www.w3.org/1999/xlink">
    <!-- Generator: Sketch 3.6.1 (26313) - http://www.bohemiancoding.com/sketch -->
    <title>como_anda-tipografia 7</title>
    <desc>Created with Sketch.</desc>
    <defs></defs>
    <g id="Page-1" stroke="none" stroke-width="1" fill="none" fill-rule="evenodd">
        <g id="v" transform="translate(-1.000000, -1.000000)" fill="#1A1918">
            <g id="como_anda-tipografia-7" transform="translate(1.000000, 1.000000)">
                <path d="M0.4751,61.784 L2.8221,61.784 L2.6151,42.044 L7.4461,61.784 L9.4131,61.784 L14.2791,42.147 L14.0721,61.784 L16.6261,61.784 L16.6261,38.765 L13.2091,38.765 L8.5501,57.47 L3.9611,38.765 L0.4751,38.765 L0.4751,61.784 Z M28.7731,38.351 C23.1831,38.351 21.9751,44.839 21.9751,50.43 C21.9751,58.471 24.2181,62.198 28.8081,62.198 C29.6021,62.198 31.9481,62.198 33.5701,59.575 C35.0201,57.16 35.6071,53.916 35.6071,50.119 C35.6071,43.597 34.0191,38.351 28.7731,38.351 L28.7731,38.351 Z M28.7731,40.594 C31.7411,40.594 32.8461,43.873 32.8461,50.292 C32.8461,56.366 31.8451,59.955 28.7731,59.955 C26.2891,59.955 24.7011,57.712 24.7011,49.912 C24.7011,43.562 26.0131,40.594 28.7731,40.594 L28.7731,40.594 Z M40.9551,61.784 L46.0281,61.784 C47.1331,61.784 49.2031,61.784 50.4111,60.99 C52.0331,59.92 52.7581,57.608 52.7581,55.434 C52.7581,50.81 50.1351,49.878 49.1341,49.533 C49.5831,49.36 50.2731,49.153 50.8251,48.497 C51.8611,47.255 51.9991,45.391 51.9991,44.529 C51.9991,43.631 51.8951,42.044 50.8251,40.629 C49.9631,39.456 48.7201,38.765 45.7521,38.765 L40.9551,38.765 L40.9551,61.784 Z M43.5781,41.009 L45.5801,41.009 C46.8221,41.009 49.4101,41.009 49.4101,44.839 C49.4101,47.876 48.2031,48.67 45.7181,48.67 L43.5781,48.67 L43.5781,41.009 Z M43.5781,50.81 L45.9251,50.81 C47.2361,50.81 50.1011,50.81 50.1011,55.054 C50.1011,59.196 48.1681,59.541 46.0631,59.541 L43.5781,59.541 L43.5781,50.81 Z M57.3821,61.784 L60.0051,61.784 L60.0051,38.765 L57.3821,38.765 L57.3821,61.784 Z M66.1481,61.784 L75.9491,61.784 L75.9491,59.541 L68.7711,59.541 L68.7711,38.765 L66.1481,38.765 L66.1481,61.784 Z M79.6411,61.784 L82.2641,61.784 L82.2641,38.765 L79.6411,38.765 L79.6411,61.784 Z M88.4061,61.784 L92.5821,61.784 C93.5831,61.784 96.3441,61.784 98.1731,59.851 C99.8291,58.16 101.2441,54.364 101.2441,50.085 C101.2441,46.185 100.0711,42.182 98.0691,40.491 C96.5511,39.145 94.8251,38.765 92.2031,38.765 L88.4061,38.765 L88.4061,61.784 Z M91.0291,41.009 L92.6511,41.009 C94.3771,41.009 96.3441,41.492 97.4481,44.011 C97.9311,45.15 98.4841,46.875 98.4841,50.223 C98.4841,53.881 97.6901,56.331 96.7581,57.712 C96.5161,58.057 95.4811,59.541 92.8241,59.541 L91.0291,59.541 L91.0291,41.009 Z M109.5271,38.765 L104.2461,61.784 L106.7311,61.784 L108.1461,55.123 L113.2881,55.123 L114.7381,61.784 L117.4301,61.784 L112.2531,38.765 L109.5271,38.765 Z M108.5951,52.984 L110.7691,41.492 L112.8741,52.984 L108.5951,52.984 Z M121.2601,61.784 L125.4361,61.784 C126.4371,61.784 129.1981,61.784 131.0271,59.851 C132.6831,58.16 134.0981,54.364 134.0981,50.085 C134.0981,46.185 132.9251,42.182 130.9231,40.491 C129.4051,39.145 127.6791,38.765 125.0561,38.765 L121.2601,38.765 L121.2601,61.784 Z M123.8831,41.009 L125.5051,41.009 C127.2311,41.009 129.1981,41.492 130.3021,44.011 C130.7851,45.15 131.3371,46.875 131.3371,50.223 C131.3371,53.881 130.5441,56.331 129.6121,57.712 C129.3701,58.057 128.3351,59.541 125.6781,59.541 L123.8831,59.541 L123.8831,41.009 Z M142.0701,41.009 L149.9731,41.009 L149.9731,38.765 L139.4471,38.765 L139.4471,61.784 L150.1801,61.784 L150.1801,59.541 L142.0701,59.541 L142.0701,50.948 L148.1781,50.948 L148.1781,48.704 L142.0701,48.704 L142.0701,41.009 Z M166.1241,38.765 L160.8431,61.784 L163.3281,61.784 L164.7431,55.123 L169.8851,55.123 L171.3351,61.784 L174.0261,61.784 L168.8501,38.765 L166.1241,38.765 Z M165.1921,52.984 L167.3661,41.492 L169.4711,52.984 L165.1921,52.984 Z M186.9331,61.784 L189.5561,61.784 L189.5561,52.432 L191.7991,52.432 C196.4931,52.432 198.1491,49.326 198.1491,45.668 C198.1491,42.838 197.2871,41.457 196.6311,40.629 C195.3881,39.111 193.8011,38.765 191.3851,38.765 L186.9331,38.765 L186.9331,61.784 Z M189.5561,41.009 L191.5581,41.009 C192.7661,41.009 195.4921,41.009 195.4921,45.668 C195.4921,49.464 193.8011,50.188 191.6961,50.188 L189.5561,50.188 L189.5561,41.009 Z M204.8101,41.009 L212.7131,41.009 L212.7131,38.765 L202.1871,38.765 L202.1871,61.784 L212.9201,61.784 L212.9201,59.541 L204.8101,59.541 L204.8101,50.948 L210.9181,50.948 L210.9181,48.704 L204.8101,48.704 L204.8101,41.009 Z M213.3341,34.417 L212.2641,32.07 L206.3971,35.349 L207.0881,36.695 L213.3341,34.417 Z M222.1001,56.055 L222.1001,54.813 C222.1001,52.949 222.4451,52.156 224.0671,50.672 C225.8961,48.912 227.1381,47.082 227.1381,44.356 C227.1381,41.147 225.3781,38.351 221.6851,38.351 C216.4741,38.351 215.9911,43.666 215.8531,45.081 L218.0961,45.633 C218.3031,43.7 218.6491,40.456 221.5471,40.456 C223.1691,40.456 224.4811,41.802 224.4811,44.46 C224.4811,46.461 223.8251,47.566 222.2031,49.222 C220.0291,51.362 219.7531,52.156 219.7531,54.916 L219.7531,56.055 L222.1001,56.055 Z M219.4771,61.784 L222.3411,61.784 L222.3411,58.126 L219.4771,58.126 L219.4771,61.784 Z" id="Fill-5"></path>
                <path d="M42.1772,26.2687 C41.5562,26.5107 41.0382,26.7177 40.3822,26.7177 C38.6572,26.7177 38.4502,25.5437 38.4502,24.2327 C38.4502,24.0257 38.4502,23.8527 38.4842,23.6457 C43.0052,22.2307 43.4882,15.1217 43.4882,11.8087 C43.4882,5.6317 42.0732,0.0057 36.6902,0.0057 C31.1682,0.0057 29.8572,6.1837 29.8572,12.0847 C29.8572,14.5347 30.0982,20.4017 32.8592,22.6447 C34.1022,23.6117 35.2752,23.7497 36.0002,23.8527 C36.0342,25.6477 36.0342,28.8567 40.0722,28.8567 C41.1762,28.8567 41.6592,28.6497 42.1772,28.4427 L42.1772,26.2687 Z M36.6552,2.2497 C39.6232,2.2497 40.7282,5.5277 40.7282,11.9467 C40.7282,18.0547 39.7272,21.6447 36.6552,21.6447 C34.1712,21.6447 32.5832,19.4007 32.5832,11.6017 C32.5832,5.2177 33.8942,2.2497 36.6552,2.2497 L36.6552,2.2497 Z M48.4232,0.4207 L48.4232,16.5027 C48.4232,19.9187 48.4922,23.8527 54.1862,23.8527 C60.1222,23.8527 60.1222,18.9527 60.1222,16.4677 L60.1222,0.4207 L57.6032,0.4207 L57.6032,16.6057 C57.6032,20.2297 56.7752,21.6097 54.2212,21.6097 C51.1152,21.6097 51.0462,19.2627 51.0462,16.4677 L51.0462,0.4207 L48.4232,0.4207 Z M68.4732,2.6637 L76.3762,2.6637 L76.3762,0.4207 L65.8512,0.4207 L65.8512,23.4387 L76.5832,23.4387 L76.5832,21.1957 L68.4732,21.1957 L68.4732,12.6027 L74.5822,12.6027 L74.5822,10.3597 L68.4732,10.3597 L68.4732,2.6637 Z M80.5182,23.4387 L82.8642,23.4387 L82.6572,3.6987 L87.4892,23.4387 L89.4562,23.4387 L94.3222,3.8027 L94.1152,23.4387 L96.6692,23.4387 L96.6692,0.4207 L93.2522,0.4207 L88.5932,19.1247 L84.0032,0.4207 L80.5182,0.4207 L80.5182,23.4387 Z M111.8882,23.4387 L114.5102,23.4387 L114.5102,14.0867 L116.7532,14.0867 C121.4472,14.0867 123.1032,10.9807 123.1032,7.3227 C123.1032,4.4927 122.2412,3.1117 121.5852,2.2837 C120.3432,0.7657 118.7552,0.4207 116.3392,0.4207 L111.8882,0.4207 L111.8882,23.4387 Z M114.5102,2.6637 L116.5122,2.6637 C117.7202,2.6637 120.4462,2.6637 120.4462,7.3227 C120.4462,11.1187 118.7552,11.8437 116.6502,11.8437 L114.5102,11.8437 L114.5102,2.6637 Z M127.1412,23.4387 L129.7642,23.4387 L129.7642,13.3617 L133.0422,13.3617 L136.4242,23.4387 L139.2202,23.4387 L135.5272,12.8437 C136.0792,12.6367 136.9082,12.2917 137.6322,11.1527 C138.1162,10.3937 138.7022,9.1517 138.7022,6.8397 C138.7022,5.7697 138.5992,4.2857 137.6322,2.7667 C136.1482,0.4547 134.2162,0.4207 132.2492,0.4207 L127.1412,0.4207 L127.1412,23.4387 Z M129.7642,2.6637 L132.1452,2.6637 C133.4912,2.6637 134.3542,2.8707 134.9412,3.5607 C135.9412,4.6997 136.0452,6.3217 136.0452,6.8737 C136.0452,7.9087 135.7692,9.3237 135.0442,10.1177 C134.2162,11.0147 133.4222,11.1187 132.2832,11.1187 L129.7642,11.1187 L129.7642,2.6637 Z M149.5732,0.0057 C143.9822,0.0057 142.7742,6.4937 142.7742,12.0847 C142.7742,20.1257 145.0172,23.8527 149.6072,23.8527 C150.4012,23.8527 152.7482,23.8527 154.3702,21.2297 C155.8192,18.8147 156.4062,15.5707 156.4062,11.7747 C156.4062,5.2517 154.8182,0.0057 149.5732,0.0057 L149.5732,0.0057 Z M149.5732,2.2497 C152.5412,2.2497 153.6452,5.5277 153.6452,11.9467 C153.6452,18.0207 152.6442,21.6097 149.5732,21.6097 C147.0882,21.6097 145.5012,19.3667 145.5012,11.5667 C145.5012,5.2177 146.8122,2.2497 149.5732,2.2497 L149.5732,2.2497 Z M161.7552,23.4387 L164.1012,23.4387 L163.8942,3.6987 L168.7262,23.4387 L170.6932,23.4387 L175.5592,3.8027 L175.3522,23.4387 L177.9062,23.4387 L177.9062,0.4207 L174.4892,0.4207 L169.8302,19.1247 L165.2402,0.4207 L161.7552,0.4207 L161.7552,23.4387 Z M190.0532,0.0057 C184.4622,0.0057 183.2552,6.4937 183.2552,12.0847 C183.2552,20.1257 185.4982,23.8527 190.0882,23.8527 C190.8812,23.8527 193.2282,23.8527 194.8502,21.2297 C196.3002,18.8147 196.8862,15.5707 196.8862,11.7747 C196.8862,5.2517 195.2992,0.0057 190.0532,0.0057 L190.0532,0.0057 Z M190.0532,2.2497 C193.0212,2.2497 194.1252,5.5277 194.1252,11.9467 C194.1252,18.0207 193.1252,21.6097 190.0532,21.6097 C187.5682,21.6097 185.9812,19.3667 185.9812,11.5667 C185.9812,5.2177 187.2922,2.2497 190.0532,2.2497 L190.0532,2.2497 Z M205.0992,23.4387 L207.9292,23.4387 L213.1402,0.4207 L210.4832,0.4207 L206.5832,19.9877 L202.6492,0.4207 L199.8542,0.4207 L205.0992,23.4387 Z M219.5252,2.6637 L227.4282,2.6637 L227.4282,0.4207 L216.9022,0.4207 L216.9022,23.4387 L227.6352,23.4387 L227.6352,21.1957 L219.5252,21.1957 L219.5252,12.6027 L225.6332,12.6027 L225.6332,10.3597 L219.5252,10.3597 L219.5252,2.6637 Z" id="Fill-7"></path>
            </g>
        </g>
    </g>
</svg>