<?xml version="1.0" standalone="no"?>
<!DOCTYPE svg PUBLIC "-//W3C//DTD SVG 1.1//EN" "http://www.w3.org/Graphics/SVG/1.1/DTD/svg11.dtd" >
<svg xmlns="http://www.w3.org/2000/svg" xmlns:xlink="http://www.w3.org/1999/xlink" version="1.1">
<metadata>
Created by FontForge 20150913 at Tue Mar 22 22:57:20 2016
 By Jimmy Wärting
Copyright 1995, 2002 Adobe Systems Incorporated. All rights reserved. ITC is a trademark of International Typeface Corporation registered in the U.S. Patent and Trademark Office and may be registered in certain other jurisdictions. Franklin Gothic is a trademark of International Typeface Corporation and may be registered in certain jurisdictions.
</metadata>
<defs>
<font id="ITCFranklinGothicStd-MdCdIt" horiz-adv-x="511" >
  <font-face 
    font-family="ITC Franklin Gothic Std"
    font-weight="500"
    font-style="italic"
    font-stretch="condensed"
    units-per-em="1000"
    panose-1="2 11 7 6 3 5 3 9 2 4"
    ascent="686"
    descent="-314"
    x-height="493"
    cap-height="667"
    bbox="-185 -250 941 889"
    underline-thickness="50"
    underline-position="-100"
    slope="-9.5"
    stemh="77"
    stemv="99"
    unicode-range="U+0020-FB02"
  />
<missing-glyph horiz-adv-x="571" 
d="M71 0v700h500v-700h-500zM321 395l170 255h-340zM351 350l170 -255v510zM151 50h340l-170 255zM121 605v-510l170 255z" />
    <glyph glyph-name="f_i" unicode="fi" horiz-adv-x="460" 
d="M30 0l71 420h-64l12 73h63c18 98 36 195 175 195c26 0 40 -3 55 -5l-13 -81c-10 1 -21 2 -31 2c-60 0 -75 -29 -86 -111h87l-12 -73h-86l-70 -420h-101zM257 0l82 493h101l-82 -493h-101zM348 563l18 107h107l-18 -107h-107z" />
    <glyph glyph-name="f_l" unicode="fl" horiz-adv-x="460" 
d="M30 0l71 420h-64l12 73h63c18 98 36 195 175 195c26 0 40 -3 55 -5l-13 -81c-10 1 -21 2 -31 2c-60 0 -75 -29 -86 -111h87l-12 -73h-86l-70 -420h-101zM257 0l111 667h101l-111 -667h-101z" />
    <glyph glyph-name=".notdef" horiz-adv-x="571" 
d="M71 0v700h500v-700h-500zM321 395l170 255h-340zM351 350l170 -255v510zM151 50h340l-170 255zM121 605v-510l170 255z" />
    <glyph glyph-name="space" unicode=" " horiz-adv-x="250" 
 />
    <glyph glyph-name="exclam" unicode="!" horiz-adv-x="341" 
d="M76 0l20 119h112l-19 -119h-113zM131 184l47 483h124l-107 -483h-64z" />
    <glyph glyph-name="quotedbl" unicode="&#x22;" horiz-adv-x="341" 
d="M89 401l31 266h99l-60 -266h-70zM241 401l31 266h99l-61 -266h-69z" />
    <glyph glyph-name="numbersign" unicode="#" 
d="M120 0h-73l61 209h-81l20 69h81l37 125h-82l21 69h81l57 195h72l-56 -195h103l57 195h73l-57 -195h80l-20 -69h-80l-36 -125h80l-21 -69h-80l-60 -209h-73l61 209h-104zM306 278l37 125h-107l-36 -125h106z" />
    <glyph glyph-name="dollar" unicode="$" 
d="M292 658l12 74h60l-13 -81c29 -7 101 -26 134 -136l-90 -33c-19 63 -36 74 -58 85l-32 -188c82 -38 152 -70 152 -175c0 -58 -26 -135 -96 -174c-39 -21 -86 -24 -119 -25l-15 -93h-60l16 99c-29 7 -120 29 -150 166l90 28c23 -83 48 -95 75 -108l34 204
c-72 34 -137 72 -137 164c0 77 50 192 197 193zM288 276l-32 -187c98 6 98 89 98 97c0 45 -19 67 -66 90zM249 405l29 170c-16 -2 -33 -5 -51 -20c-24 -20 -31 -46 -31 -71c0 -47 24 -62 53 -79z" />
    <glyph glyph-name="percent" unicode="%" horiz-adv-x="681" 
d="M226 678c88 0 119 -63 119 -141c0 -113 -55 -206 -153 -206c-110 0 -119 93 -119 138c0 102 50 209 153 209zM224 615c-69 0 -73 -140 -73 -153s0 -68 43 -68c69 0 73 130 73 147c0 15 0 74 -43 74zM516 336c97 0 119 -76 119 -140c0 -110 -51 -207 -155 -207
c-80 0 -117 52 -117 137c0 106 53 210 153 210zM514 273c-71 0 -73 -149 -73 -155c0 -12 0 -66 43 -66c67 0 73 125 73 146c0 17 0 75 -43 75zM154 0h-66l461 667h65z" />
    <glyph glyph-name="ampersand" unicode="&#x26;" horiz-adv-x="596" 
d="M546 83l-12 -84c-14 -4 -31 -10 -56 -10c-50 0 -76 27 -96 60c-23 -18 -78 -62 -163 -62c-97 0 -187 63 -187 181c0 151 138 200 180 214c-13 28 -35 76 -35 136c0 89 59 162 162 162c98 0 145 -63 145 -141c0 -114 -85 -154 -149 -185c9 -25 52 -128 76 -172
c54 69 87 151 99 188l78 -21c-46 -130 -99 -194 -135 -237c10 -20 26 -37 50 -37c18 0 33 5 43 8zM303 417c26 11 93 39 93 119c0 57 -34 72 -58 72c-41 0 -64 -40 -64 -86c0 -45 19 -84 29 -105zM244 320c-52 -27 -106 -61 -106 -143c0 -59 32 -109 95 -109
c54 0 89 29 109 46c-12 22 -18 34 -28 54c-11 22 -59 128 -70 152z" />
    <glyph glyph-name="quoteright" unicode="&#x2019;" horiz-adv-x="204" 
d="M117 420h-47l75 128h-43l20 119h105l-20 -119z" />
    <glyph glyph-name="parenleft" unicode="(" horiz-adv-x="307" 
d="M193 -168h-67c-66 104 -99 209 -99 332c0 241 135 411 235 503h77c-30 -30 -215 -231 -215 -539c0 -148 43 -244 69 -296z" />
    <glyph glyph-name="parenright" unicode=")" horiz-adv-x="307" 
d="M45 -168h-78c124 129 212 322 212 543c0 123 -27 203 -69 291h63c68 -99 103 -218 103 -338c0 -223 -138 -414 -231 -496z" />
    <glyph glyph-name="asterisk" unicode="*" 
d="M289 669l71 -12l-34 -128l119 55l22 -70l-122 -30l106 -69l-44 -58l-95 91l-9 -132l-71 11l34 128l-119 -55l-22 70l122 30l-106 69l44 59l95 -92z" />
    <glyph glyph-name="plus" unicode="+" 
d="M309 372h165v-77h-165v-165h-79v165h-165v77h165v165h79v-165z" />
    <glyph glyph-name="comma" unicode="," horiz-adv-x="239" 
d="M41 -139h-44l76 139h-52l21 125h115l-20 -118z" />
    <glyph glyph-name="hyphen" unicode="-" horiz-adv-x="255" 
d="M214 209h-187l14 82h187z" />
    <glyph glyph-name="period" unicode="." horiz-adv-x="238" 
d="M134 0h-114l21 125h114z" />
    <glyph glyph-name="slash" unicode="/" horiz-adv-x="426" 
d="M-16 -168h-74l478 835h74z" />
    <glyph glyph-name="zero" unicode="0" 
d="M230 -13c-142 0 -184 113 -184 258c0 152 54 435 266 435c146 0 180 -129 180 -256c0 -165 -58 -437 -262 -437zM235 70c50 0 78 39 94 77c44 104 54 236 54 299c0 36 0 151 -81 151c-112 0 -148 -240 -148 -355c0 -128 27 -172 81 -172z" />
    <glyph glyph-name="one" unicode="1" 
d="M70 0l15 88h116l74 443c-33 -36 -65 -50 -150 -54l16 93c74 7 130 28 181 105h83l-98 -587h119l-15 -88h-341z" />
    <glyph glyph-name="two" unicode="2" 
d="M20 0l16 104c218 159 348 287 348 401c0 33 -20 87 -84 87c-81 0 -103 -88 -116 -141l-96 25c14 56 50 204 215 204c124 0 188 -87 188 -174c0 -171 -181 -301 -335 -412h280l-16 -94h-400z" />
    <glyph glyph-name="three" unicode="3" 
d="M16 164l92 29c10 -39 31 -123 121 -123c59 0 112 42 112 122c0 92 -60 113 -123 113h-43l15 84h48c44 0 76 6 103 31c20 19 34 52 34 87c0 48 -28 90 -89 90c-66 0 -90 -50 -108 -94l-86 36c13 32 55 141 201 141c52 0 105 -11 142 -47c39 -38 48 -90 48 -124
c0 -40 -12 -97 -58 -134c-25 -21 -49 -26 -70 -31c61 -25 94 -73 94 -149c0 -103 -62 -208 -214 -208c-48 0 -122 11 -170 68c-34 40 -43 81 -49 109z" />
    <glyph glyph-name="four" unicode="4" 
d="M265 0l26 153h-275l14 85l337 432h111l-73 -432h87l-14 -85h-87l-25 -153h-101zM120 236h185l54 316z" />
    <glyph glyph-name="five" unicode="5" 
d="M30 148l91 35c26 -108 105 -108 117 -108c65 0 120 49 120 160c0 20 0 129 -100 129c-63 0 -87 -51 -97 -74l-87 28l79 349h346l-22 -97h-257l-39 -177c15 19 40 54 112 54c135 0 173 -118 173 -207c0 -94 -44 -253 -228 -253c-161 0 -194 112 -208 161z" />
    <glyph glyph-name="six" unicode="6" 
d="M503 539l-96 -26c-5 21 -19 84 -87 84c-113 0 -144 -193 -154 -254c15 29 47 90 136 90c94 0 169 -66 169 -198c0 -94 -42 -248 -212 -248c-42 0 -104 11 -143 54c-57 64 -63 163 -63 210c0 139 62 429 277 429c55 0 109 -22 139 -61c22 -28 29 -59 34 -80zM256 70
c30 0 59 10 79 41c25 41 28 92 28 118c0 20 0 120 -88 120c-67 0 -112 -68 -112 -156c0 -86 44 -123 93 -123z" />
    <glyph glyph-name="seven" unicode="7" 
d="M236 0h-121c20 214 128 413 297 574h-306l20 93h397l-13 -78c-125 -146 -249 -306 -274 -589z" />
    <glyph glyph-name="eight" unicode="8" 
d="M362 358c31 -15 100 -50 100 -157c0 -95 -55 -214 -228 -214c-105 0 -212 45 -212 167c0 132 111 173 149 187c-31 21 -79 54 -79 139c0 93 65 200 215 200c115 0 184 -63 184 -158c0 -116 -98 -152 -129 -164zM292 391c36 15 103 43 103 121c0 63 -47 98 -100 98
c-55 0 -102 -39 -102 -104c0 -73 52 -95 99 -115zM241 302v-1c-47 -18 -120 -47 -120 -133c0 -52 33 -108 117 -108c87 0 121 59 121 112c0 69 -49 97 -118 130z" />
    <glyph glyph-name="nine" unicode="9" 
d="M32 123l91 38c6 -25 22 -91 97 -91c71 0 104 63 121 108c18 45 28 93 34 141c-27 -49 -63 -79 -130 -79c-100 0 -172 69 -172 196c0 142 83 244 216 244c55 0 111 -21 142 -58c27 -33 51 -83 51 -199c0 -231 -82 -436 -273 -436c-142 0 -168 101 -177 136zM271 321
c77 0 109 88 109 156c0 98 -57 120 -95 120c-74 0 -107 -73 -107 -157c0 -23 0 -119 93 -119z" />
    <glyph glyph-name="colon" unicode=":" horiz-adv-x="238" 
d="M196 368h-114l20 125h115zM134 0h-114l21 125h114z" />
    <glyph glyph-name="semicolon" unicode=";" horiz-adv-x="239" 
d="M41 -139h-44l76 139h-52l21 125h115l-20 -118zM197 368h-114l21 125h114z" />
    <glyph glyph-name="less" unicode="&#x3c;" 
d="M486 592v-99l-327 -155l327 -155v-98l-433 211v85z" />
    <glyph glyph-name="equal" unicode="=" 
d="M474 364h-410v77h410v-77zM474 226h-410v77h410v-77z" />
    <glyph glyph-name="greater" unicode="&#x3e;" 
d="M53 84v99l327 155l-327 155v99l433 -212v-85z" />
    <glyph glyph-name="question" unicode="?" horiz-adv-x="443" 
d="M226 0h-113l20 118h113zM240 181h-91c7 80 16 138 78 176c79 49 92 57 109 86c11 19 16 39 16 61c0 62 -35 97 -82 97c-82 0 -110 -99 -116 -122l-85 31c32 113 104 173 207 173c112 0 179 -65 179 -172c0 -124 -77 -169 -145 -209c-54 -31 -63 -49 -70 -121z" />
    <glyph glyph-name="at" unicode="@" horiz-adv-x="664" 
d="M528 105l17 -63c-27 -16 -93 -58 -204 -58c-160 0 -294 92 -294 300c0 191 122 400 352 400c150 0 260 -93 260 -256c0 -144 -77 -287 -215 -287c-33 0 -66 12 -72 44c-25 -37 -58 -46 -79 -46c-23 0 -48 11 -63 30c-12 14 -22 35 -22 79c0 119 71 267 171 267
c54 0 59 -45 61 -58l17 50h65l-61 -198c-6 -18 -21 -66 -21 -80c0 -16 12 -21 23 -21c70 0 124 100 124 210c0 130 -76 205 -192 205c-178 0 -276 -170 -276 -338c0 -175 108 -241 227 -241c94 0 158 44 182 61zM375 442c-55 0 -89 -137 -89 -186c0 -10 0 -44 29 -44
c60 0 90 147 90 184c0 10 0 46 -30 46z" />
    <glyph glyph-name="A" unicode="A" horiz-adv-x="494" 
d="M375 667l79 -667h-109l-18 174h-183l-73 -174h-102l292 667h114zM318 260l-21 294l-118 -294h139z" />
    <glyph glyph-name="B" unicode="B" horiz-adv-x="528" 
d="M24 0l112 667h175c64 0 195 -6 195 -154c0 -121 -81 -152 -114 -164c29 -13 92 -39 92 -145c0 -62 -24 -134 -77 -166c-60 -36 -125 -38 -181 -38h-202zM228 584l-33 -198h46c42 0 78 2 107 17c29 16 49 58 49 98c0 83 -75 83 -116 83h-53zM181 306l-37 -222h71
c55 0 156 0 156 127c0 92 -69 95 -123 95h-67z" />
    <glyph glyph-name="C" unicode="C" 
d="M518 448l-107 -14c1 48 2 156 -86 156c-132 0 -163 -264 -163 -345c0 -68 10 -168 96 -168c82 0 111 93 125 148l101 -27c-14 -65 -42 -130 -98 -171c-38 -28 -85 -40 -132 -40c-58 0 -121 19 -158 70c-26 36 -50 86 -50 191c0 180 74 432 289 432c64 0 159 -27 179 -150
c5 -33 5 -56 4 -82z" />
    <glyph glyph-name="D" unicode="D" horiz-adv-x="545" 
d="M25 0l111 667h134c102 0 259 -9 259 -256c0 -107 -33 -289 -143 -362c-73 -48 -149 -49 -203 -49h-158zM228 581l-83 -495h43c39 0 88 1 135 45c78 73 91 258 91 297c0 143 -82 153 -149 153h-37z" />
    <glyph glyph-name="E" unicode="E" horiz-adv-x="477" 
d="M24 0l112 667h373l-15 -88h-267l-32 -192h225l-14 -86h-225l-36 -213h280l-14 -88h-387z" />
    <glyph glyph-name="F" unicode="F" horiz-adv-x="426" 
d="M24 0l112 667h361l-15 -88h-255l-33 -198h218l-14 -88h-219l-49 -293h-106z" />
    <glyph glyph-name="G" unicode="G" horiz-adv-x="545" 
d="M462 -3h-50l-7 79c-16 -28 -51 -89 -154 -89c-58 0 -117 24 -149 65c-36 46 -53 112 -53 204c0 191 81 424 288 424c97 0 187 -60 199 -199l-99 -23c-3 30 -16 132 -105 132c-126 0 -170 -224 -170 -346c0 -25 0 -167 107 -167c56 0 90 46 103 71c21 41 27 78 32 111
h-121l15 88h222z" />
    <glyph glyph-name="H" unicode="H" horiz-adv-x="545" 
d="M24 0l112 667h106l-46 -276h201l45 276h106l-111 -667h-106l51 303h-201l-51 -303h-106z" />
    <glyph glyph-name="I" unicode="I" horiz-adv-x="239" 
d="M24 0l112 667h106l-112 -667h-106z" />
    <glyph glyph-name="J" unicode="J" horiz-adv-x="324" 
d="M-37 0l15 87c24 -7 33 -10 58 -10c90 0 102 52 118 149l74 441h106l-72 -432c-25 -146 -42 -247 -207 -247c-50 0 -78 8 -92 12z" />
    <glyph glyph-name="K" unicode="K" 
d="M479 0h-116l-86 330l-114 -137l-33 -193h-106l112 667h106l-55 -332l253 332h119l-202 -245z" />
    <glyph glyph-name="L" unicode="L" horiz-adv-x="409" 
d="M24 0l112 667h106l-97 -579h241l-14 -88h-348z" />
    <glyph glyph-name="M" unicode="M" horiz-adv-x="698" 
d="M24 0l112 667h154l43 -499l211 499h158l-112 -667h-103l98 572l-248 -572h-77l-54 561l-91 -561h-91z" />
    <glyph glyph-name="N" unicode="N" horiz-adv-x="562" 
d="M24 0l112 667h113l147 -473l75 473h94l-111 -667h-88l-163 528l-84 -528h-95z" />
    <glyph glyph-name="O" unicode="O" horiz-adv-x="562" 
d="M543 410c0 -166 -68 -423 -279 -423c-146 0 -215 88 -215 265c0 174 72 428 285 428c29 0 131 -5 178 -101c31 -65 31 -152 31 -169zM267 76c37 0 76 16 105 79c46 93 61 205 61 278c0 64 -12 99 -32 124c-15 19 -42 34 -72 34c-136 0 -170 -261 -170 -355
c0 -33 3 -160 108 -160z" />
    <glyph glyph-name="P" unicode="P" horiz-adv-x="494" 
d="M25 0l111 667h160c64 0 115 -7 153 -32c46 -30 65 -90 65 -145c0 -64 -24 -144 -76 -182c-64 -47 -135 -47 -164 -47h-100l-43 -261h-106zM227 579l-38 -231h69c24 0 59 0 90 17c47 26 55 93 55 121c0 83 -53 93 -129 93h-47z" />
    <glyph glyph-name="Q" unicode="Q" horiz-adv-x="562" 
d="M445 -60l-9 -82c-10 -2 -37 -8 -73 -8c-76 0 -114 35 -114 105c0 16 1 25 2 33c-62 4 -202 13 -202 265c0 176 71 427 285 427c33 0 129 -7 176 -103c31 -63 31 -150 31 -166c0 -60 -9 -215 -93 -332c-42 -57 -92 -73 -115 -80c-1 -10 -1 -14 -1 -16c0 -28 14 -51 53 -51
c23 0 48 5 60 8zM266 76c22 0 68 1 105 79c46 95 61 203 61 276c0 30 0 160 -105 160c-144 0 -169 -293 -169 -356c0 -41 6 -159 108 -159z" />
    <glyph glyph-name="R" unicode="R" horiz-adv-x="528" 
d="M25 0l111 667h181c77 0 203 -9 203 -170c0 -150 -93 -186 -127 -199l78 -298h-115l-69 280h-110l-46 -280h-106zM228 584l-36 -219h78c33 0 64 3 96 25c38 27 46 82 46 108c0 81 -55 86 -112 86h-72z" />
    <glyph glyph-name="S" unicode="S" 
d="M16 177l99 27c15 -55 41 -127 134 -127c80 0 109 55 109 100c0 64 -38 87 -107 118c-79 36 -166 77 -166 188c0 88 60 197 199 197c162 0 200 -131 208 -161l-100 -33c-8 27 -31 104 -109 104c-54 0 -90 -40 -90 -90c0 -57 33 -76 123 -119c64 -31 153 -73 153 -181
c0 -51 -23 -213 -227 -213c-185 0 -215 139 -226 190z" />
    <glyph glyph-name="T" unicode="T" horiz-adv-x="392" 
d="M101 0l96 576h-150l15 91h406l-15 -91h-150l-96 -576h-106z" />
    <glyph glyph-name="U" unicode="U" horiz-adv-x="545" 
d="M129 667h106l-65 -386c-3 -19 -13 -78 -13 -110c0 -50 26 -94 91 -94c96 0 118 54 142 197l66 393h99l-69 -413c-13 -74 -27 -138 -57 -184c-50 -77 -152 -83 -186 -83c-49 0 -98 8 -136 38c-41 32 -57 85 -57 130c0 44 10 101 13 121z" />
    <glyph glyph-name="V" unicode="V" horiz-adv-x="477" 
d="M145 0l-73 667h107l48 -532l207 532h103l-277 -667h-115z" />
    <glyph glyph-name="W" unicode="W" horiz-adv-x="732" 
d="M122 0l-42 667h108l17 -503l181 503h97l30 -503l171 503h99l-248 -667h-98l-31 499l-183 -499h-101z" />
    <glyph glyph-name="X" unicode="X" horiz-adv-x="443" 
d="M-61 0l238 351l-115 316h116l73 -229l149 229h107l-216 -316l128 -351h-120l-82 261l-167 -261h-111z" />
    <glyph glyph-name="Y" unicode="Y" horiz-adv-x="426" 
d="M123 0l47 280l-128 387h112l87 -284l170 284h105l-240 -389l-47 -278h-106z" />
    <glyph glyph-name="Z" unicode="Z" horiz-adv-x="477" 
d="M-6 0l14 83l356 498h-266l15 86h394l-13 -75l-359 -504h296l-14 -88h-423z" />
    <glyph glyph-name="bracketleft" unicode="[" horiz-adv-x="307" 
d="M181 -168h-172l139 835h168l-9 -54h-75l-122 -727h80z" />
    <glyph glyph-name="backslash" unicode="\" horiz-adv-x="392" 
d="M292 -168l-198 835h67l199 -835h-68z" />
    <glyph glyph-name="bracketright" unicode="]" horiz-adv-x="307" 
d="M158 -168h-168l9 54h75l122 727h-80l9 54h172z" />
    <glyph glyph-name="asciicircum" unicode="^" 
d="M506 316h-96l-145 278l-144 -278h-96l189 358h103z" />
    <glyph glyph-name="underscore" unicode="_" horiz-adv-x="500" 
d="M0 -125v50h500v-50h-500z" />
    <glyph glyph-name="quoteleft" unicode="&#x2018;" horiz-adv-x="204" 
d="M186 667h46l-74 -128h42l-20 -119h-104l19 119z" />
    <glyph glyph-name="a" unicode="a" horiz-adv-x="460" 
d="M374 0h-98c-3 25 -2 38 3 68c-23 -35 -53 -81 -137 -81c-113 0 -130 85 -130 131c0 200 246 190 306 187c5 20 9 42 9 62c0 57 -50 68 -77 68c-63 0 -80 -44 -94 -77l-89 25c14 39 47 123 186 123c141 0 169 -84 169 -129c0 -8 -2 -36 -7 -69l-34 -207
c-8 -43 -9 -59 -9 -73c0 -8 0 -14 2 -28zM308 243c-70 6 -191 -5 -191 -115c0 -50 30 -66 57 -66c98 0 124 131 134 181z" />
    <glyph glyph-name="b" unicode="b" horiz-adv-x="477" 
d="M18 0l112 667h101l-40 -234c13 23 41 73 118 73c128 0 136 -121 136 -181c0 -118 -40 -338 -212 -338c-96 0 -117 68 -124 92c-14 -26 -16 -30 -37 -79h-54zM220 62c48 0 72 43 82 68c33 85 38 185 38 211c0 22 0 90 -59 90c-94 0 -128 -204 -128 -270
c0 -51 26 -99 67 -99z" />
    <glyph glyph-name="c" unicode="c" horiz-adv-x="426" 
d="M303 174l88 -18c-12 -48 -44 -169 -187 -169c-136 0 -171 103 -171 207c0 126 55 312 222 312c91 0 163 -58 157 -179l-93 -8c-1 36 -3 112 -67 112c-93 0 -115 -176 -115 -250c0 -45 8 -119 73 -119c48 0 74 37 93 112z" />
    <glyph glyph-name="d" unicode="d" horiz-adv-x="477" 
d="M385 667h101l-112 -667h-88l10 63c-17 -26 -51 -76 -131 -76c-125 0 -135 125 -135 184c0 126 47 335 212 335c79 0 96 -47 104 -69zM203 62c34 0 62 30 77 64c28 69 47 168 47 214c0 28 -9 91 -69 91c-40 0 -63 -28 -77 -56c-31 -64 -46 -148 -46 -210
c0 -38 9 -103 68 -103z" />
    <glyph glyph-name="e" unicode="e" horiz-adv-x="443" 
d="M417 233h-279c-2 -14 -4 -25 -4 -49c0 -25 0 -122 83 -122c43 0 70 27 96 94l81 -25c-24 -66 -69 -144 -185 -144c-127 0 -179 89 -179 210c0 136 66 309 226 309c76 0 121 -42 140 -77c11 -22 26 -58 26 -130c0 -31 -2 -48 -5 -66zM146 299h176c2 14 2 22 2 34
c0 14 0 98 -72 98c-29 0 -49 -15 -59 -24c-36 -33 -43 -86 -47 -108z" />
    <glyph glyph-name="f" unicode="f" horiz-adv-x="256" 
d="M30 0l70 416h-64l13 77h63c18 98 36 195 175 195c26 0 40 -3 55 -5l-13 -81c-10 1 -21 2 -31 2c-60 0 -75 -29 -86 -111h87l-13 -77h-86l-69 -416h-101z" />
    <glyph glyph-name="g" unicode="g" horiz-adv-x="443" 
d="M454 604l-8 -77c-12 1 -17 2 -23 2c-52 0 -58 -39 -60 -52c16 -12 55 -40 55 -115c0 -76 -43 -181 -182 -181c-36 0 -56 8 -74 16c-17 -9 -42 -23 -42 -52c0 -40 35 -42 99 -42c57 0 181 -1 181 -123c0 -50 -22 -93 -66 -123c-57 -37 -143 -37 -157 -37
c-105 0 -196 26 -196 115c0 69 51 92 78 104c-11 8 -35 27 -35 70c0 68 55 98 91 118c-18 16 -45 41 -45 103c0 101 67 177 180 177c28 0 46 -5 69 -10c4 21 15 85 77 102c7 2 28 8 58 5zM319 351c0 17 0 88 -69 88c-38 0 -81 -28 -81 -110c0 -15 0 -81 69 -81
c62 0 81 57 81 103zM110 19c-15 -9 -40 -25 -40 -59c0 -58 73 -67 127 -67c20 0 112 0 112 69c0 46 -39 50 -101 51c-27 0 -73 1 -98 6z" />
    <glyph glyph-name="h" unicode="h" horiz-adv-x="477" 
d="M19 0l111 667h101l-40 -240c18 30 46 79 130 79c55 0 118 -28 118 -117c0 -37 -8 -83 -11 -104l-48 -285h-100l49 292c6 34 8 61 8 73c0 13 0 61 -56 61c-41 0 -65 -30 -72 -43c-30 -51 -41 -95 -52 -160l-38 -223h-100z" />
    <glyph glyph-name="i" unicode="i" horiz-adv-x="221" 
d="M19 0l82 493h100l-82 -493h-100zM110 563l18 107h106l-18 -107h-106z" />
    <glyph glyph-name="j" unicode="j" horiz-adv-x="221" 
d="M-100 -171l14 82c12 -2 25 -4 41 -4c49 0 56 34 72 130l76 456h101l-79 -473c-20 -119 -33 -198 -159 -198c-32 0 -55 5 -66 7zM114 563l17 107h106l-18 -107h-105z" />
    <glyph glyph-name="k" unicode="k" horiz-adv-x="426" 
d="M298 323l91 -323h-107l-57 252l-77 -83l-29 -169h-100l111 667h101l-64 -383l177 209h113z" />
    <glyph glyph-name="l" unicode="l" horiz-adv-x="221" 
d="M19 0l111 667h101l-112 -667h-100z" />
    <glyph glyph-name="m" unicode="m" horiz-adv-x="698" 
d="M18 0l83 493h88l-15 -92c13 32 46 105 136 105s96 -77 98 -102c19 42 54 102 138 102c71 0 115 -46 115 -120c0 -19 -3 -49 -9 -85l-50 -301h-101l48 287c3 19 10 61 10 82c0 43 -29 58 -50 58c-77 0 -96 -112 -109 -191l-40 -236h-101l45 266c10 61 14 85 14 103
c0 44 -28 58 -46 58c-78 0 -103 -128 -113 -188l-40 -239h-101z" />
    <glyph glyph-name="n" unicode="n" horiz-adv-x="477" 
d="M19 0l82 493h88l-15 -92c18 39 48 105 146 105c102 0 119 -71 119 -113c0 -9 -1 -43 -11 -108l-48 -285h-100l47 281c2 11 10 63 10 83c0 46 -28 63 -58 63c-76 0 -104 -94 -124 -214l-36 -213h-100z" />
    <glyph glyph-name="o" unicode="o" horiz-adv-x="460" 
d="M427 304c0 -47 -7 -168 -78 -254c-45 -54 -109 -63 -150 -63c-20 0 -77 6 -111 37c-47 43 -58 112 -58 172c0 146 62 310 229 310c142 0 168 -114 168 -202zM135 165c0 -27 3 -103 71 -103c39 0 65 29 80 65c31 75 36 165 36 196c0 30 0 108 -68 108
c-112 0 -119 -250 -119 -266z" />
    <glyph glyph-name="p" unicode="p" horiz-adv-x="477" 
d="M-10 -167l111 660h88l-12 -73c46 77 102 86 134 86c134 0 134 -152 134 -184c0 -120 -48 -335 -205 -335c-80 0 -103 58 -110 78l-39 -232h-101zM220 62c53 0 75 51 79 59c30 70 41 162 41 215c0 45 -11 95 -63 95c-97 0 -126 -205 -126 -268c0 -57 26 -101 69 -101z" />
    <glyph glyph-name="q" unicode="q" horiz-adv-x="477" 
d="M345 -167h-101l38 224c-11 -20 -36 -70 -115 -70c-117 0 -138 102 -138 180c0 71 16 194 86 276c31 38 85 63 136 63c90 0 110 -66 116 -87c12 22 18 36 33 74h57c-7 -34 -12 -65 -18 -101zM202 62c98 0 125 231 125 279c0 67 -38 90 -64 90c-82 0 -129 -139 -129 -260
c0 -27 0 -109 68 -109z" />
    <glyph glyph-name="r" unicode="r" horiz-adv-x="307" 
d="M19 0l82 493h88l-18 -112c43 86 83 129 174 121l-18 -108c-51 2 -109 0 -145 -87c-14 -34 -35 -140 -41 -178l-22 -129h-100z" />
    <glyph glyph-name="s" unicode="s" horiz-adv-x="392" 
d="M1 128l87 22c12 -55 42 -88 95 -88c55 0 77 37 77 66c0 39 -28 54 -85 81c-60 30 -125 64 -125 148c0 60 45 149 165 149c123 0 148 -86 159 -127l-77 -26c-15 39 -33 78 -83 78c-40 0 -70 -26 -70 -60c0 -38 28 -54 91 -85c66 -33 121 -60 121 -140
c0 -72 -43 -159 -176 -159c-152 0 -172 107 -179 141z" />
    <glyph glyph-name="t" unicode="t" horiz-adv-x="290" 
d="M302 493l-13 -77h-94l-39 -231c-3 -19 -8 -54 -8 -69c0 -38 32 -44 49 -44c4 0 24 0 50 5l-13 -80c-24 -6 -53 -8 -78 -8c-57 0 -112 20 -112 94c0 30 8 78 11 94l40 239h-64l13 77h68l24 130l92 5l-22 -135h96z" />
    <glyph glyph-name="u" unicode="u" horiz-adv-x="477" 
d="M375 0h-88l14 86c-25 -43 -59 -99 -150 -99c-71 0 -117 38 -117 106c0 30 4 51 12 101l50 299h100l-47 -282c-5 -29 -11 -68 -11 -89c0 -14 3 -56 53 -56c55 0 85 52 99 86c16 36 27 106 35 149l32 192h101z" />
    <glyph glyph-name="v" unicode="v" horiz-adv-x="375" 
d="M97 0l-70 493h101l40 -352l147 352h92l-220 -493h-90z" />
    <glyph glyph-name="w" unicode="w" horiz-adv-x="579" 
d="M85 0l-50 493h98l21 -347l122 347h95l20 -347l129 347h85l-200 -493h-84l-24 360l-127 -360h-85z" />
    <glyph glyph-name="x" unicode="x" horiz-adv-x="375" 
d="M-45 0l180 262l-91 231h106l56 -156l102 156h94l-160 -235l99 -258h-106l-63 183l-121 -183h-96z" />
    <glyph glyph-name="y" unicode="y" horiz-adv-x="392" 
d="M142 493l44 -338l140 338h90l-228 -508c-56 -126 -92 -161 -182 -161c-20 0 -30 2 -43 3l9 82c15 -2 26 -3 41 -3c51 0 68 25 109 121l-84 466h104z" />
    <glyph glyph-name="z" unicode="z" horiz-adv-x="375" 
d="M-15 0l11 66l259 352h-193l12 75h310l-11 -67l-256 -346h208l-14 -80h-326z" />
    <glyph glyph-name="braceleft" unicode="{" horiz-adv-x="307" 
d="M37 231l11 67c38 6 53 15 70 116l18 108c23 138 54 144 175 145l-9 -56c-58 0 -63 -20 -76 -99l-19 -117c-14 -80 -29 -117 -89 -134c14 -5 52 -18 52 -68c0 -16 -4 -42 -11 -79l-21 -125c-2 -11 -9 -54 -9 -68c0 -22 13 -33 51 -33l-9 -56c-73 0 -136 1 -136 74
c0 19 8 63 13 94l21 125c3 17 8 48 8 61c0 36 -23 42 -40 45z" />
    <glyph glyph-name="bar" unicode="|" horiz-adv-x="500" 
d="M314 750v-1000h-100v1000h100z" />
    <glyph glyph-name="braceright" unicode="}" horiz-adv-x="307" 
d="M274 293l-11 -67c-34 -3 -52 -14 -68 -109l-23 -134c-24 -146 -60 -151 -177 -151l9 56c58 -5 65 24 77 99l23 132c18 108 37 126 91 143c-28 13 -53 26 -53 70c0 17 3 35 11 84l17 100c3 18 8 48 8 63c0 31 -29 32 -53 32l10 56c73 0 136 0 136 -77
c0 -19 -3 -39 -11 -84l-18 -105c-2 -14 -7 -48 -7 -63c0 -37 21 -42 39 -45z" />
    <glyph glyph-name="asciitilde" unicode="~" 
d="M82 252l-56 37c29 61 59 126 143 126c14 0 36 0 109 -30c50 -21 66 -28 92 -28c45 0 64 31 81 60l58 -34c-21 -43 -59 -122 -153 -122c-30 0 -79 20 -142 46c-10 4 -33 12 -53 12c-43 0 -65 -40 -79 -67z" />
    <glyph glyph-name="exclamdown" unicode="&#xa1;" horiz-adv-x="341" 
d="M271 493l-20 -119h-113l20 119h113zM221 309l-53 -483h-123l111 483h65z" />
    <glyph glyph-name="cent" unicode="&#xa2;" 
d="M355 275l84 -17c-28 -123 -100 -150 -162 -155l-18 -108h-58l19 112c-78 21 -112 84 -112 181c0 83 30 269 190 284l16 97h58l-17 -101c90 -26 100 -88 104 -160l-88 -8c-1 50 -8 71 -29 87l-52 -306c33 10 51 40 65 94zM234 191l50 300c-76 -32 -84 -177 -84 -213
c0 -30 3 -73 34 -87z" />
    <glyph glyph-name="sterling" unicode="&#xa3;" 
d="M-14 0l16 91h30c104 0 153 62 150 221h-79l12 73h67c0 39 0 118 28 182c45 100 131 108 164 108c109 0 135 -83 142 -105l-81 -44c-5 19 -19 63 -63 63c-86 0 -85 -140 -84 -204h108l-12 -73h-98c-8 -90 -14 -157 -102 -221h103c87 0 117 22 146 85l76 -39
c-47 -136 -148 -137 -224 -137h-299z" />
    <glyph glyph-name="fraction" unicode="&#x2044;" horiz-adv-x="136" 
d="M-111 0h-74l460 667h74z" />
    <glyph glyph-name="yen" unicode="&#xa5;" 
d="M200 204h-148l9 57h149l3 18l-13 45h-128l9 57h103l-83 286h105l75 -296l159 296h100l-168 -286h115l-10 -57h-138l-27 -45l-3 -18h157l-9 -57h-157l-34 -204h-100z" />
    <glyph glyph-name="florin" unicode="&#x192;" 
d="M446 461l-25 -80h-92l-105 -329c-40 -125 -71 -201 -205 -201c-24 0 -37 2 -52 4l26 83c8 -1 16 -2 26 -2c62 0 82 29 113 125l102 320h-72l25 80h72l9 26c32 99 65 191 194 191c27 0 46 -4 58 -6l-24 -79c-9 1 -18 2 -32 2c-40 0 -71 -11 -103 -110l-7 -24h92z" />
    <glyph glyph-name="section" unicode="&#xa7;" 
d="M479 561l-82 -19c-6 19 -19 67 -88 67c-57 0 -85 -37 -85 -73c0 -51 40 -71 111 -108c60 -30 107 -62 107 -138c0 -61 -33 -118 -85 -148c19 -16 57 -46 57 -119c0 -105 -76 -193 -209 -193c-48 0 -109 13 -146 49c-32 31 -41 68 -47 93l93 19c6 -22 21 -81 106 -81
c87 0 107 59 107 89c0 53 -34 69 -116 106c-78 36 -130 74 -130 149c0 42 20 112 102 155c-18 18 -47 46 -47 103c0 63 45 167 185 167c133 0 158 -86 167 -118zM292 175c30 21 59 43 59 88c0 29 -11 50 -44 69c-11 7 -64 34 -75 42c-25 -15 -69 -42 -69 -89
c0 -32 20 -55 43 -68c11 -7 26 -14 86 -42z" />
    <glyph glyph-name="currency" unicode="&#xa4;" 
d="M356 485l69 69l56 -56l-69 -70c9 -14 24 -40 24 -84c0 -43 -13 -66 -23 -84l69 -70l-58 -57l-69 69c-22 -13 -42 -24 -84 -24s-67 14 -84 24l-69 -69l-56 56l68 69c-7 13 -24 41 -24 85s16 72 24 85l-70 69l58 58l69 -69c21 12 41 23 84 23c44 0 72 -17 85 -24zM271 258
c46 0 85 37 85 86c0 47 -38 85 -85 85c-48 0 -85 -39 -85 -86s38 -85 85 -85z" />
    <glyph glyph-name="quotesingle" unicode="'" horiz-adv-x="204" 
d="M95 401l30 266h100l-61 -266h-69z" />
    <glyph glyph-name="quotedblleft" unicode="&#x201c;" horiz-adv-x="341" 
d="M332 667h42l-74 -128h42l-20 -119h-100l19 119zM180 667h43l-74 -128h41l-19 -119h-101l20 119z" />
    <glyph glyph-name="guillemotleft" unicode="&#xab;" horiz-adv-x="392" 
d="M306 413h58l-72 -162l23 -156h-51l-67 156zM154 413h59l-72 -162l22 -156h-50l-68 156z" />
    <glyph glyph-name="guilsinglleft" unicode="&#x2039;" horiz-adv-x="222" 
d="M145 413h58l-72 -162l23 -156h-51l-67 156z" />
    <glyph glyph-name="guilsinglright" unicode="&#x203a;" horiz-adv-x="222" 
d="M78 95h-58l71 162l-22 156h50l68 -156z" />
    <glyph glyph-name="endash" unicode="&#x2013;" horiz-adv-x="426" 
d="M385 213h-357l12 75h358z" />
    <glyph glyph-name="dagger" unicode="&#x2020;" 
d="M232 398h-139l12 75h139l33 194h94l-33 -194h140l-13 -75h-139l-95 -566h-94z" />
    <glyph glyph-name="daggerdbl" unicode="&#x2021;" 
d="M232 398h-139l12 75h139l33 194h94l-32 -194h139l-13 -75h-139l-48 -286h139l-12 -75h-139l-35 -205h-94l34 205h-139l13 75h139z" />
    <glyph glyph-name="periodcentered" unicode="&#xb7;" horiz-adv-x="238" 
d="M167 194h-114l20 125h115z" />
    <glyph glyph-name="paragraph" unicode="&#xb6;" 
d="M446 667v-834h-64v783h-50v-783h-64v447h-22c-51 0 -96 0 -141 34c-50 36 -67 104 -67 157c0 73 30 134 72 165s112 31 136 31h200z" />
    <glyph glyph-name="bullet" unicode="&#x2022;" horiz-adv-x="121" 
d="M122 278h-121l22 131h121z" />
    <glyph glyph-name="quotesinglbase" unicode="&#x201a;" horiz-adv-x="204" 
d="M25 -128h-47l75 128h-43l20 119h105l-20 -119z" />
    <glyph glyph-name="quotedblbase" unicode="&#x201e;" horiz-adv-x="341" 
d="M17 -128h-42l74 128h-42l20 119h101l-20 -119zM169 -128h-42l74 128h-42l20 119h100l-19 -119z" />
    <glyph glyph-name="quotedblright" unicode="&#x201d;" horiz-adv-x="341" 
d="M107 420h-43l75 128h-42l19 119h101l-20 -119zM258 420h-42l74 128h-42l20 119h101l-20 -119z" />
    <glyph glyph-name="guillemotright" unicode="&#xbb;" horiz-adv-x="392" 
d="M87 95h-58l72 162l-23 156h51l67 -156zM239 95h-59l72 162l-22 156h50l68 -156z" />
    <glyph glyph-name="ellipsis" unicode="&#x2026;" horiz-adv-x="715" 
d="M134 0h-114l21 125h114zM373 0h-115l21 125h115zM611 0h-114l21 125h114z" />
    <glyph glyph-name="perthousand" unicode="&#x2030;" horiz-adv-x="988" 
d="M226 678c88 0 119 -63 119 -141c0 -113 -55 -206 -153 -206c-110 0 -119 93 -119 138c0 102 50 209 153 209zM224 615c-69 0 -73 -140 -73 -153s0 -68 43 -68c69 0 73 130 73 147c0 15 0 74 -43 74zM516 336c97 0 119 -76 119 -140c0 -110 -51 -207 -155 -207
c-80 0 -117 52 -117 137c0 106 53 210 153 210zM514 273c-71 0 -73 -149 -73 -155c0 -12 0 -66 43 -66c67 0 73 125 73 146c0 17 0 75 -43 75zM823 336c94 0 118 -73 118 -140c0 -108 -50 -207 -154 -207c-84 0 -117 57 -117 137c0 103 50 210 153 210zM820 273
c-70 0 -72 -151 -72 -155c0 -12 0 -66 43 -66c68 0 72 133 72 146c0 16 0 75 -43 75zM154 0h-66l461 667h65z" />
    <glyph glyph-name="questiondown" unicode="&#xbf;" horiz-adv-x="443" 
d="M214 493h114l-20 -118h-113zM201 312h91c-7 -80 -16 -138 -78 -176c-77 -47 -92 -57 -109 -86c-11 -19 -16 -39 -16 -61c0 -64 36 -97 82 -97c82 0 109 97 116 122l85 -31c-34 -116 -107 -173 -207 -173c-110 0 -179 64 -179 172c0 124 77 169 145 209
c55 32 63 50 70 121z" />
    <glyph glyph-name="grave" unicode="`" horiz-adv-x="460" 
d="M328 544l-164 99l42 65l148 -120z" />
    <glyph glyph-name="acute" unicode="&#xb4;" horiz-adv-x="460" 
d="M421 645l-175 -100l-27 41l168 122z" />
    <glyph glyph-name="circumflex" unicode="&#x2c6;" horiz-adv-x="460" 
d="M209 555l-78 7l167 130l134 -129l-74 -7l-68 58z" />
    <glyph glyph-name="tilde" unicode="&#x2dc;" horiz-adv-x="460" 
d="M180 576l-30 37c16 23 41 59 90 59c17 0 33 -4 67 -22c28 -14 36 -15 45 -15c23 0 33 12 52 36l31 -38c-28 -43 -59 -59 -85 -59c-17 0 -33 4 -64 20c-30 15 -39 18 -51 18c-9 0 -30 -2 -55 -36z" />
    <glyph glyph-name="macron" unicode="&#xaf;" horiz-adv-x="460" 
d="M419 585h-266l9 59h267z" />
    <glyph glyph-name="breve" unicode="&#x2d8;" horiz-adv-x="460" 
d="M164 677h60c3 -7 7 -21 19 -33c11 -12 29 -22 57 -22c26 0 60 6 77 55h61c-17 -50 -40 -117 -140 -117c-114 0 -129 90 -134 117z" />
    <glyph glyph-name="dotaccent" unicode="&#x2d9;" horiz-adv-x="460" 
d="M291 567c-32 0 -55 26 -55 54c0 29 23 55 56 55s55 -27 55 -55c0 -24 -19 -54 -56 -54z" />
    <glyph glyph-name="dieresis" unicode="&#xa8;" horiz-adv-x="460" 
d="M217 569c-27 0 -51 22 -51 51c0 27 22 51 52 51s51 -25 51 -51c0 -25 -19 -51 -52 -51zM366 569c-28 0 -51 23 -51 51c0 26 21 51 51 51c32 0 52 -25 52 -51c0 -25 -19 -51 -52 -51z" />
    <glyph glyph-name="ring" unicode="&#x2da;" horiz-adv-x="460" 
d="M294 549c-50 0 -89 40 -89 89c0 48 38 89 90 89c51 0 89 -41 89 -89c0 -47 -37 -89 -90 -89zM295 596c20 0 41 18 41 42s-20 42 -41 42c-22 0 -42 -19 -42 -42c0 -22 18 -42 42 -42z" />
    <glyph glyph-name="cedilla" unicode="&#xb8;" horiz-adv-x="460" 
d="M95 -163l22 36c22 -11 42 -21 68 -21c33 0 44 20 44 33c0 29 -33 34 -55 34c-8 0 -15 0 -28 -2l46 83h45l-23 -47c66 6 83 -35 83 -62c0 -47 -41 -85 -104 -85c-20 0 -59 3 -98 31z" />
    <glyph glyph-name="hungarumlaut" unicode="&#x2dd;" horiz-adv-x="460" 
d="M204 548l-31 36l110 121l46 -54zM345 548l-31 36l110 121l46 -54z" />
    <glyph glyph-name="ogonek" unicode="&#x2db;" horiz-adv-x="460" 
d="M308 -93l16 -35c-35 -20 -63 -26 -86 -26c-52 0 -88 24 -88 68c0 39 27 67 73 86h64c-25 -11 -70 -30 -70 -75c0 -30 25 -35 37 -35c19 0 36 8 54 17z" />
    <glyph glyph-name="caron" unicode="&#x2c7;" horiz-adv-x="460" 
d="M153 678l73 7l68 -58l79 59l79 -7l-165 -132z" />
    <glyph glyph-name="emdash" unicode="&#x2014;" horiz-adv-x="647" 
d="M607 213h-579l12 75h579z" />
    <glyph glyph-name="AE" unicode="&#xc6;" horiz-adv-x="750" 
d="M-40 0l418 667h406l-15 -88h-258l-32 -192h216l-15 -86h-215l-36 -213h269l-15 -88h-375l34 200h-149l-125 -200h-108zM357 289l61 309l-176 -309h115z" />
    <glyph glyph-name="ordfeminine" unicode="&#xaa;" 
d="M414 339h-80c0 14 0 21 2 49c-10 -17 -35 -58 -93 -58c-80 0 -96 57 -96 91c0 96 97 132 213 126c2 11 5 24 5 36c0 32 -33 38 -48 38c-38 0 -48 -22 -57 -44l-74 20c15 35 41 83 134 83c106 0 124 -61 124 -89c0 -1 0 -18 -5 -46l-22 -135c-4 -23 -6 -36 -6 -44
c0 -7 0 -13 3 -27zM234 429c0 -30 21 -38 37 -38c60 0 75 76 80 105c-21 1 -117 4 -117 -67z" />
    <glyph glyph-name="Lslash" unicode="&#x141;" horiz-adv-x="409" 
d="M67 254l-60 -41l15 94l61 41l53 319h106l-45 -265l140 94l-15 -94l-140 -95l-37 -219h241l-14 -88h-348z" />
    <glyph glyph-name="Oslash" unicode="&#xd8;" horiz-adv-x="562" 
d="M112 41l-44 -61h-75l83 115c-21 45 -28 116 -28 163c0 159 69 422 285 422c76 0 118 -32 136 -45l42 59h77l-80 -110c28 -62 33 -125 33 -173c0 -156 -61 -424 -280 -424c-90 0 -132 38 -149 54zM155 195l252 364c-29 38 -72 38 -81 38c-134 0 -174 -247 -174 -350
c0 -23 1 -37 3 -52zM433 490l-257 -373c32 -47 78 -47 91 -47c48 0 84 30 109 80c60 120 62 256 62 277c0 31 -3 48 -5 63z" />
    <glyph glyph-name="OE" unicode="&#x152;" horiz-adv-x="801" 
d="M734 0h-387l13 78c-15 -26 -51 -91 -132 -91c-34 0 -81 14 -112 43c-65 62 -72 172 -72 222c0 176 78 428 275 428c93 0 118 -64 127 -88l13 75h373l-15 -88h-267l-32 -192h224l-14 -86h-225l-35 -213h281zM381 205l47 279c-10 34 -31 107 -105 107
c-133 0 -170 -262 -170 -357c0 -33 4 -83 28 -119c15 -23 43 -39 72 -39c74 0 109 83 128 129z" />
    <glyph glyph-name="ordmasculine" unicode="&#xba;" 
d="M278 330c-106 0 -123 85 -123 145c0 95 42 205 163 205c95 0 122 -67 122 -142c0 -46 -13 -208 -162 -208zM285 390c59 0 70 113 70 162c0 20 0 68 -42 68c-67 0 -73 -143 -73 -165c0 -26 5 -65 45 -65z" />
    <glyph glyph-name="ae" unicode="&#xe6;" horiz-adv-x="716" 
d="M689 233h-282c-2 -14 -4 -24 -4 -47c0 -36 0 -124 83 -124c50 0 76 36 99 94l81 -26c-13 -34 -54 -143 -185 -143c-107 0 -133 70 -149 113c-14 -27 -59 -113 -180 -113c-103 0 -140 67 -140 133c0 40 14 117 104 157c72 31 145 29 201 28c4 23 8 42 8 62
c0 40 -27 68 -75 68c-60 0 -80 -46 -93 -76l-89 24c14 37 46 123 186 123c79 0 112 -30 138 -63c16 19 55 63 135 63c76 0 120 -41 140 -78c18 -32 27 -66 27 -129c0 -33 -2 -48 -5 -66zM416 299h181c1 11 2 19 2 31c0 17 0 101 -76 101c-34 0 -62 -21 -78 -47
c-21 -32 -26 -61 -29 -85zM307 243c-88 6 -189 -17 -189 -114c0 -51 34 -67 60 -67c98 0 120 131 129 181z" />
    <glyph glyph-name="dotlessi" unicode="&#x131;" horiz-adv-x="221" 
d="M19 0l82 493h100l-82 -493h-100z" />
    <glyph glyph-name="lslash" unicode="&#x142;" horiz-adv-x="238" 
d="M76 296l-71 -47l13 76l71 47l49 295h101l-41 -248l71 47l-13 -77l-71 -46l-57 -343h-101z" />
    <glyph glyph-name="oslash" unicode="&#xf8;" horiz-adv-x="460" 
d="M103 13l-33 -51h-61l56 87c-13 23 -35 62 -35 148c0 144 62 309 229 309c45 0 64 -9 86 -20l34 52h60l-53 -84c15 -22 41 -59 41 -151c0 -103 -37 -316 -223 -316c-38 0 -68 7 -101 26zM325 371l-176 -291c22 -24 50 -24 58 -24c39 0 69 30 85 67c37 82 38 188 38 197
c0 26 -2 36 -5 51zM130 139l170 282c-11 8 -22 16 -46 16c-109 0 -126 -201 -126 -256c0 -19 1 -31 2 -42z" />
    <glyph glyph-name="oe" unicode="&#x153;" horiz-adv-x="733" 
d="M707 233h-283c-3 -15 -5 -28 -5 -52c0 -30 0 -119 85 -119c50 0 74 33 99 94l81 -25c-20 -53 -63 -144 -185 -144c-68 0 -115 27 -143 81c-20 -26 -61 -81 -150 -81c-43 0 -85 15 -112 39c-53 46 -62 126 -62 178c0 133 55 302 228 302c79 0 117 -35 137 -80
c16 21 60 80 149 80c70 0 118 -38 139 -78c17 -30 27 -64 27 -127c0 -33 -2 -50 -5 -68zM433 299h182c1 11 2 19 2 30c0 20 -1 102 -76 102c-28 0 -49 -14 -60 -24c-37 -34 -45 -86 -48 -108zM209 62c55 0 77 47 85 64c26 62 35 129 35 196c0 31 0 109 -72 109
c-99 0 -123 -165 -123 -257c0 -21 0 -112 75 -112z" />
    <glyph glyph-name="germandbls" unicode="&#xdf;" horiz-adv-x="494" 
d="M12 -41l69 415h-52l14 83h52c10 52 22 116 66 172c36 47 101 78 166 78c85 0 154 -50 154 -132c0 -40 -27 -154 -180 -161c-3 -6 -4 -9 -4 -12c0 -14 15 -22 58 -46s117 -68 117 -163c0 -91 -62 -206 -201 -206c-61 0 -94 20 -109 28l32 67c22 -11 43 -21 76 -21
c75 0 103 57 103 108c0 24 -3 62 -50 95c-91 63 -106 73 -106 123c0 11 1 42 23 78c104 5 144 45 144 97c0 36 -22 70 -68 70c-89 0 -108 -102 -118 -159l-86 -514h-100z" />
    <glyph glyph-name="logicalnot" unicode="&#xac;" 
d="M395 226v138h-331v77h410v-215h-79z" />
    <glyph glyph-name="mu" unicode="&#xb5;" horiz-adv-x="477" 
d="M86 -167h-101l110 660h101l-50 -301c-8 -45 -8 -64 -8 -70c0 -31 13 -56 52 -56c95 0 117 131 134 235l32 192h101l-82 -493h-89l15 85c-23 -38 -58 -98 -123 -98c-49 0 -54 38 -57 57z" />
    <glyph glyph-name="trademark" unicode="&#x2122;" horiz-adv-x="716" 
d="M300 667v-59h-86v-321h-74v321h-84v59h244zM330 287v380h109l70 -273l74 273h106v-380h-69v319l-87 -319h-59l-82 320v-320h-62z" />
    <glyph glyph-name="Eth" unicode="&#xd0;" horiz-adv-x="545" 
d="M74 301h-51l13 86h53l47 280h134c101 0 259 -8 259 -256c0 -108 -34 -289 -143 -362c-73 -48 -149 -49 -203 -49h-158zM305 301h-124l-36 -215h43c39 0 88 1 135 45c79 74 91 260 91 297c0 143 -81 153 -149 153h-37l-33 -194h124z" />
    <glyph glyph-name="onehalf" unicode="&#xbd;" horiz-adv-x="784" 
d="M50 267l10 62h72l40 238c-24 -16 -41 -21 -91 -23l11 65c52 5 82 17 114 63h61l-57 -343h74l-11 -62h-223zM206 0h-74l461 667h74zM455 0l11 69c87 60 213 152 213 230c0 21 -14 46 -47 46c-46 0 -58 -49 -66 -80l-71 17c10 38 33 125 140 125c86 0 124 -57 124 -105
c0 -101 -117 -182 -196 -234h165l-12 -68h-261z" />
    <glyph glyph-name="plusminus" unicode="&#xb1;" 
d="M309 372h165v-77h-165v-166h-79v166h-165v77h165v165h79v-165zM474 10h-409v77h409v-77z" />
    <glyph glyph-name="Thorn" unicode="&#xde;" horiz-adv-x="494" 
d="M24 0l112 667h106l-20 -115h54c65 0 115 -7 153 -32c46 -30 65 -89 65 -144c0 -65 -24 -145 -75 -183c-65 -47 -136 -47 -165 -47h-99l-25 -146h-106zM208 464l-39 -231h69c25 0 59 0 90 17c46 26 55 92 55 121c0 84 -55 93 -128 93h-47z" />
    <glyph glyph-name="onequarter" unicode="&#xbc;" horiz-adv-x="784" 
d="M511 149h99l35 177zM215 0h-74l460 667h74zM584 0l15 89h-171l10 57l210 255h78l-42 -251h54l-10 -61h-54l-15 -89h-75zM55 267l10 62h73l39 238c-24 -16 -41 -21 -91 -23l11 65c52 5 82 17 114 63h62l-58 -343h74l-10 -62h-224z" />
    <glyph glyph-name="divide" unicode="&#xf7;" 
d="M474 295h-410v77h410v-77zM317 418h-96v106h96v-106zM317 143h-96v106h96v-106z" />
    <glyph glyph-name="brokenbar" unicode="&#xa6;" horiz-adv-x="500" 
d="M314 675v-350h-100v350h100zM314 175v-350h-100v350h100z" />
    <glyph glyph-name="degree" unicode="&#xb0;" 
d="M301 371c-91 0 -158 73 -158 154s66 154 158 154c87 0 159 -67 159 -154s-73 -154 -159 -154zM302 436c44 0 85 38 85 89c0 50 -39 90 -86 90s-85 -41 -85 -90c0 -47 37 -89 86 -89z" />
    <glyph glyph-name="thorn" unicode="&#xfe;" horiz-adv-x="477" 
d="M-10 -168l140 835h100l-40 -241c40 70 94 80 123 80c36 0 72 -16 93 -40c32 -38 40 -94 40 -144c0 -116 -47 -335 -206 -335c-80 0 -103 58 -110 78l-39 -233h-101zM217 62c117 0 124 255 124 274c0 44 -12 95 -62 95c-88 0 -129 -191 -129 -269c0 -70 37 -100 67 -100z
" />
    <glyph glyph-name="threequarters" unicode="&#xbe;" horiz-adv-x="784" 
d="M526 149h99l34 177zM226 0h-75l461 667h74zM599 0l15 89h-171l9 57l211 256h78l-42 -252h54l-10 -61h-54l-15 -89h-75zM30 371l68 21c7 -25 19 -73 73 -73c34 0 61 23 61 64c0 55 -40 62 -71 62h-28l11 59h31c18 0 77 0 77 62c0 29 -18 49 -51 49c-37 0 -49 -26 -62 -57
l-64 25c9 24 35 92 133 92c106 0 125 -68 125 -105c0 -79 -64 -92 -92 -98c25 -8 72 -22 72 -88c0 -58 -39 -125 -140 -125c-119 0 -137 84 -143 112z" />
    <glyph glyph-name="registered" unicode="&#xae;" 
d="M204 366l37 220h67c31 0 73 -6 73 -58c0 -49 -30 -61 -41 -65l27 -97h-48l-25 89h-31l-15 -89h-44zM279 552l-10 -62h24c11 0 42 1 42 37c0 23 -16 25 -34 25h-22zM91 474c0 109 88 200 201 200c109 0 200 -88 200 -200s-90 -200 -200 -200c-111 0 -201 89 -201 200z
M139 474c0 -89 71 -157 153 -157s152 68 152 157c0 87 -68 156 -153 156c-80 0 -152 -66 -152 -156z" />
    <glyph glyph-name="minus" unicode="&#x2212;" 
d="M474 295h-410v77h410v-77z" />
    <glyph glyph-name="eth" unicode="&#xf0;" horiz-adv-x="460" 
d="M206 62c53 0 75 55 80 65c29 73 35 162 35 196c0 30 0 108 -67 108c-112 0 -119 -251 -119 -266c0 -27 3 -103 71 -103zM481 641l-121 -45c40 -97 65 -198 65 -295c0 -145 -56 -314 -222 -314c-136 0 -173 98 -173 209c0 202 107 310 212 310c9 0 38 0 66 -19
c-7 28 -16 55 -26 81l-120 -44l-24 65l114 42c-6 15 -12 27 -18 39l78 29c7 -13 13 -26 19 -39l127 46z" />
    <glyph glyph-name="multiply" unicode="&#xd7;" 
d="M269 388l127 127l56 -55l-127 -127l127 -126l-55 -56l-127 127l-127 -127l-56 56l127 126l-127 127l55 55z" />
    <glyph glyph-name="copyright" unicode="&#xa9;" horiz-adv-x="781" 
d="M560 396l-81 -10c0 34 0 92 -51 92c-74 0 -94 -137 -94 -195c0 -41 9 -94 57 -94c49 0 65 53 74 88l76 -18c-6 -26 -17 -77 -65 -109c-31 -21 -67 -24 -88 -24c-131 0 -140 111 -140 162c0 116 52 253 187 253c53 0 94 -24 112 -61c14 -31 13 -61 13 -84zM404 -12
c-191 0 -348 154 -348 346c0 189 156 345 348 345c194 0 349 -156 349 -345c0 -192 -156 -346 -349 -346zM404 54c153 0 276 125 276 280c0 153 -123 279 -276 279c-152 0 -275 -126 -275 -279c0 -155 123 -280 275 -280z" />
    <glyph glyph-name="Aacute" unicode="&#xc1;" horiz-adv-x="494" 
d="M375 667l79 -667h-109l-18 174h-183l-73 -174h-102l292 667h114zM318 260l-21 294l-118 -294h139zM485 789l-209 -75l-20 46l206 100z" />
    <glyph glyph-name="Acircumflex" unicode="&#xc2;" horiz-adv-x="494" 
d="M375 667l79 -667h-109l-18 174h-183l-73 -174h-102l292 667h114zM318 260l-21 294l-118 -294h139zM237 729l-95 5l197 115l167 -115l-90 -5l-86 44z" />
    <glyph glyph-name="Adieresis" unicode="&#xc4;" horiz-adv-x="494" 
d="M375 667l79 -667h-109l-18 174h-183l-73 -174h-102l292 667h114zM318 260l-21 294l-118 -294h139zM245 734c-30 0 -53 24 -53 52c0 27 21 53 54 53s53 -27 53 -53c0 -24 -19 -52 -54 -52zM393 734c-30 0 -53 23 -53 52c0 28 22 53 53 53c33 0 54 -26 54 -53
c0 -25 -19 -52 -54 -52z" />
    <glyph glyph-name="Agrave" unicode="&#xc0;" horiz-adv-x="494" 
d="M375 667l79 -667h-109l-18 174h-183l-73 -174h-102l292 667h114zM318 260l-21 294l-118 -294h139zM350 714l-198 74l31 74l186 -100z" />
    <glyph glyph-name="Aring" unicode="&#xc5;" horiz-adv-x="494" 
d="M375 667l79 -667h-109l-18 174h-183l-73 -174h-102l292 667h114zM318 260l-21 294l-118 -294h139zM330 703c-54 0 -92 45 -92 93c0 47 37 93 93 93c54 0 93 -44 93 -93c0 -48 -38 -93 -94 -93zM332 755c19 0 39 17 39 41c0 22 -18 41 -40 41s-40 -19 -40 -41
s17 -41 41 -41z" />
    <glyph glyph-name="Atilde" unicode="&#xc3;" horiz-adv-x="494" 
d="M375 667l79 -667h-109l-18 174h-183l-73 -174h-102l292 667h114zM318 260l-21 294l-118 -294h139zM196 735l-33 40c18 24 47 59 103 59c20 0 35 -3 70 -18c29 -13 38 -13 46 -13c32 0 49 20 61 34l34 -40c-32 -42 -64 -60 -97 -60c-16 0 -35 4 -67 17
c-31 13 -40 16 -54 16c-7 0 -35 0 -63 -35z" />
    <glyph glyph-name="Ccedilla" unicode="&#xc7;" 
d="M254 -13l-19 -38c15 1 32 3 52 -7c23 -11 35 -35 35 -59c0 -49 -43 -91 -110 -91c-13 0 -60 0 -105 33l24 40c16 -9 41 -23 73 -23c31 0 47 19 47 35c0 22 -22 35 -58 35c-9 0 -18 -1 -32 -2l45 80c-51 13 -160 41 -160 258c0 180 74 432 288 432c65 0 160 -27 180 -150
c5 -33 5 -56 4 -82l-107 -14c1 48 2 156 -86 156c-132 0 -163 -264 -163 -345c0 -68 10 -168 96 -168c81 0 111 93 125 148l101 -27c-12 -55 -41 -156 -148 -198c-37 -14 -64 -13 -82 -13z" />
    <glyph glyph-name="Eacute" unicode="&#xc9;" horiz-adv-x="477" 
d="M24 0l112 667h373l-15 -88h-267l-32 -192h225l-14 -86h-225l-36 -213h280l-14 -88h-387zM480 789l-209 -75l-20 46l206 100z" />
    <glyph glyph-name="Ecircumflex" unicode="&#xca;" horiz-adv-x="477" 
d="M24 0l112 667h373l-15 -88h-267l-32 -192h225l-14 -86h-225l-36 -213h280l-14 -88h-387zM237 729l-95 5l197 115l167 -115l-90 -5l-86 44z" />
    <glyph glyph-name="Edieresis" unicode="&#xcb;" horiz-adv-x="477" 
d="M24 0l112 667h373l-15 -88h-267l-32 -192h225l-14 -86h-225l-36 -213h280l-14 -88h-387zM260 734c-30 0 -53 24 -53 52c0 27 21 53 54 53s53 -27 53 -53c0 -24 -19 -52 -54 -52zM408 734c-30 0 -53 23 -53 52c0 28 22 53 53 53c33 0 54 -26 54 -53c0 -25 -19 -52 -54 -52
z" />
    <glyph glyph-name="Egrave" unicode="&#xc8;" horiz-adv-x="477" 
d="M24 0l112 667h373l-15 -88h-267l-32 -192h225l-14 -86h-225l-36 -213h280l-14 -88h-387zM380 714l-198 74l31 74l186 -100z" />
    <glyph glyph-name="Iacute" unicode="&#xcd;" horiz-adv-x="239" 
d="M24 0l112 667h106l-112 -667h-106zM370 789l-209 -75l-20 46l206 100z" />
    <glyph glyph-name="Icircumflex" unicode="&#xce;" horiz-adv-x="239" 
d="M24 0l112 667h106l-112 -667h-106zM112 729l-95 5l197 115l167 -115l-90 -5l-86 44z" />
    <glyph glyph-name="Idieresis" unicode="&#xcf;" horiz-adv-x="239" 
d="M24 0l112 667h106l-112 -667h-106zM135 734c-30 0 -53 24 -53 52c0 27 21 53 54 53s53 -27 53 -53c0 -24 -19 -52 -54 -52zM283 734c-30 0 -53 23 -53 52c0 28 22 53 53 53c33 0 54 -26 54 -53c0 -25 -19 -52 -54 -52z" />
    <glyph glyph-name="Igrave" unicode="&#xcc;" horiz-adv-x="239" 
d="M24 0l112 667h106l-112 -667h-106zM240 714l-198 74l31 74l186 -100z" />
    <glyph glyph-name="Ntilde" unicode="&#xd1;" horiz-adv-x="562" 
d="M24 0l112 667h113l147 -473l75 473h94l-111 -667h-88l-163 528l-84 -528h-95zM241 735l-33 40c18 24 47 59 103 59c20 0 35 -3 70 -18c29 -13 38 -13 46 -13c32 0 49 20 61 34l34 -40c-32 -42 -64 -60 -97 -60c-16 0 -35 4 -67 17c-31 13 -40 16 -54 16
c-7 0 -35 0 -63 -35z" />
    <glyph glyph-name="Oacute" unicode="&#xd3;" horiz-adv-x="562" 
d="M543 410c0 -166 -68 -423 -279 -423c-146 0 -215 88 -215 265c0 174 72 428 285 428c29 0 131 -5 178 -101c31 -65 31 -152 31 -169zM267 76c37 0 76 16 105 79c46 93 61 205 61 278c0 64 -12 99 -32 124c-15 19 -42 34 -72 34c-136 0 -170 -261 -170 -355
c0 -33 3 -160 108 -160zM525 789l-209 -75l-20 46l206 100z" />
    <glyph glyph-name="Ocircumflex" unicode="&#xd4;" horiz-adv-x="562" 
d="M543 410c0 -166 -68 -423 -279 -423c-146 0 -215 88 -215 265c0 174 72 428 285 428c29 0 131 -5 178 -101c31 -65 31 -152 31 -169zM267 76c37 0 76 16 105 79c46 93 61 205 61 278c0 64 -12 99 -32 124c-15 19 -42 34 -72 34c-136 0 -170 -261 -170 -355
c0 -33 3 -160 108 -160zM262 729l-95 5l197 115l167 -115l-90 -5l-86 44z" />
    <glyph glyph-name="Odieresis" unicode="&#xd6;" horiz-adv-x="562" 
d="M543 410c0 -166 -68 -423 -279 -423c-146 0 -215 88 -215 265c0 174 72 428 285 428c29 0 131 -5 178 -101c31 -65 31 -152 31 -169zM267 76c37 0 76 16 105 79c46 93 61 205 61 278c0 64 -12 99 -32 124c-15 19 -42 34 -72 34c-136 0 -170 -261 -170 -355
c0 -33 3 -160 108 -160zM280 734c-30 0 -53 24 -53 52c0 27 21 53 54 53s53 -27 53 -53c0 -24 -19 -52 -54 -52zM428 734c-30 0 -53 23 -53 52c0 28 22 53 53 53c33 0 54 -26 54 -53c0 -25 -19 -52 -54 -52z" />
    <glyph glyph-name="Ograve" unicode="&#xd2;" horiz-adv-x="562" 
d="M543 410c0 -166 -68 -423 -279 -423c-146 0 -215 88 -215 265c0 174 72 428 285 428c29 0 131 -5 178 -101c31 -65 31 -152 31 -169zM267 76c37 0 76 16 105 79c46 93 61 205 61 278c0 64 -12 99 -32 124c-15 19 -42 34 -72 34c-136 0 -170 -261 -170 -355
c0 -33 3 -160 108 -160zM380 714l-198 74l31 74l186 -100z" />
    <glyph glyph-name="Otilde" unicode="&#xd5;" horiz-adv-x="562" 
d="M543 410c0 -166 -68 -423 -279 -423c-146 0 -215 88 -215 265c0 174 72 428 285 428c29 0 131 -5 178 -101c31 -65 31 -152 31 -169zM267 76c37 0 76 16 105 79c46 93 61 205 61 278c0 64 -12 99 -32 124c-15 19 -42 34 -72 34c-136 0 -170 -261 -170 -355
c0 -33 3 -160 108 -160zM216 735l-33 40c18 24 47 59 103 59c20 0 35 -3 70 -18c29 -13 38 -13 46 -13c32 0 49 20 61 34l34 -40c-32 -42 -64 -60 -97 -60c-16 0 -35 4 -67 17c-31 13 -40 16 -54 16c-7 0 -35 0 -63 -35z" />
    <glyph glyph-name="Scaron" unicode="&#x160;" 
d="M16 177l99 27c15 -55 41 -127 134 -127c80 0 109 55 109 100c0 64 -38 87 -107 118c-79 36 -166 77 -166 188c0 88 60 197 199 197c162 0 200 -131 208 -161l-100 -33c-8 27 -31 104 -109 104c-54 0 -90 -40 -90 -90c0 -57 33 -76 123 -119c64 -31 153 -73 153 -181
c0 -51 -23 -213 -227 -213c-185 0 -215 139 -226 190zM129 834l89 6l85 -44l93 44l95 -6l-196 -116z" />
    <glyph glyph-name="Uacute" unicode="&#xda;" horiz-adv-x="545" 
d="M129 667h106l-65 -386c-3 -19 -13 -78 -13 -110c0 -50 26 -94 91 -94c96 0 118 54 142 197l66 393h99l-69 -413c-13 -74 -27 -138 -57 -184c-50 -77 -152 -83 -186 -83c-49 0 -98 8 -136 38c-41 32 -57 85 -57 130c0 44 10 101 13 121zM500 789l-209 -75l-20 46l206 100z
" />
    <glyph glyph-name="Ucircumflex" unicode="&#xdb;" horiz-adv-x="545" 
d="M129 667h106l-65 -386c-3 -19 -13 -78 -13 -110c0 -50 26 -94 91 -94c96 0 118 54 142 197l66 393h99l-69 -413c-13 -74 -27 -138 -57 -184c-50 -77 -152 -83 -186 -83c-49 0 -98 8 -136 38c-41 32 -57 85 -57 130c0 44 10 101 13 121zM262 729l-95 5l197 115l167 -115
l-90 -5l-86 44z" />
    <glyph glyph-name="Udieresis" unicode="&#xdc;" horiz-adv-x="545" 
d="M129 667h106l-65 -386c-3 -19 -13 -78 -13 -110c0 -50 26 -94 91 -94c96 0 118 54 142 197l66 393h99l-69 -413c-13 -74 -27 -138 -57 -184c-50 -77 -152 -83 -186 -83c-49 0 -98 8 -136 38c-41 32 -57 85 -57 130c0 44 10 101 13 121zM285 734c-30 0 -53 24 -53 52
c0 27 21 53 54 53s53 -27 53 -53c0 -24 -19 -52 -54 -52zM433 734c-30 0 -53 23 -53 52c0 28 22 53 53 53c33 0 54 -26 54 -53c0 -25 -19 -52 -54 -52z" />
    <glyph glyph-name="Ugrave" unicode="&#xd9;" horiz-adv-x="545" 
d="M129 667h106l-65 -386c-3 -19 -13 -78 -13 -110c0 -50 26 -94 91 -94c96 0 118 54 142 197l66 393h99l-69 -413c-13 -74 -27 -138 -57 -184c-50 -77 -152 -83 -186 -83c-49 0 -98 8 -136 38c-41 32 -57 85 -57 130c0 44 10 101 13 121zM380 714l-198 74l31 74l186 -100z
" />
    <glyph glyph-name="Yacute" unicode="&#xdd;" horiz-adv-x="426" 
d="M123 0l47 280l-128 387h112l87 -284l170 284h105l-240 -389l-47 -278h-106zM480 769l-209 -75l-20 46l206 100z" />
    <glyph glyph-name="Ydieresis" unicode="&#x178;" horiz-adv-x="426" 
d="M123 0l47 280l-128 387h112l87 -284l170 284h105l-240 -389l-47 -278h-106zM220 734c-30 0 -53 24 -53 52c0 27 21 53 54 53s53 -27 53 -53c0 -24 -19 -52 -54 -52zM368 734c-30 0 -53 23 -53 52c0 28 22 53 53 53c33 0 54 -26 54 -53c0 -25 -19 -52 -54 -52z" />
    <glyph glyph-name="Zcaron" unicode="&#x17d;" horiz-adv-x="477" 
d="M-6 0l14 83l356 498h-266l15 86h394l-13 -75l-359 -504h296l-14 -88h-423zM144 834l89 6l85 -44l93 44l95 -6l-196 -116z" />
    <glyph glyph-name="aacute" unicode="&#xe1;" horiz-adv-x="460" 
d="M374 0h-98c-3 25 -2 38 3 68c-23 -35 -53 -81 -137 -81c-113 0 -130 85 -130 131c0 200 246 190 306 187c5 20 9 42 9 62c0 57 -50 68 -77 68c-63 0 -80 -44 -94 -77l-89 25c14 39 47 123 186 123c141 0 169 -84 169 -129c0 -8 -2 -36 -7 -69l-34 -207
c-8 -43 -9 -59 -9 -73c0 -8 0 -14 2 -28zM308 243c-70 6 -191 -5 -191 -115c0 -50 30 -66 57 -66c98 0 124 131 134 181zM421 645l-175 -100l-27 41l168 122z" />
    <glyph glyph-name="acircumflex" unicode="&#xe2;" horiz-adv-x="460" 
d="M374 0h-98c-3 25 -2 38 3 68c-23 -35 -53 -81 -137 -81c-113 0 -130 85 -130 131c0 200 246 190 306 187c5 20 9 42 9 62c0 57 -50 68 -77 68c-63 0 -80 -44 -94 -77l-89 25c14 39 47 123 186 123c141 0 169 -84 169 -129c0 -8 -2 -36 -7 -69l-34 -207
c-8 -43 -9 -59 -9 -73c0 -8 0 -14 2 -28zM308 243c-70 6 -191 -5 -191 -115c0 -50 30 -66 57 -66c98 0 124 131 134 181zM209 555l-78 7l167 130l134 -129l-74 -7l-68 58z" />
    <glyph glyph-name="adieresis" unicode="&#xe4;" horiz-adv-x="460" 
d="M374 0h-98c-3 25 -2 38 3 68c-23 -35 -53 -81 -137 -81c-113 0 -130 85 -130 131c0 200 246 190 306 187c5 20 9 42 9 62c0 57 -50 68 -77 68c-63 0 -80 -44 -94 -77l-89 25c14 39 47 123 186 123c141 0 169 -84 169 -129c0 -8 -2 -36 -7 -69l-34 -207
c-8 -43 -9 -59 -9 -73c0 -8 0 -14 2 -28zM308 243c-70 6 -191 -5 -191 -115c0 -50 30 -66 57 -66c98 0 124 131 134 181zM217 569c-27 0 -51 22 -51 51c0 27 22 51 52 51s51 -25 51 -51c0 -25 -19 -51 -52 -51zM366 569c-28 0 -51 23 -51 51c0 26 21 51 51 51
c32 0 52 -25 52 -51c0 -25 -19 -51 -52 -51z" />
    <glyph glyph-name="agrave" unicode="&#xe0;" horiz-adv-x="460" 
d="M374 0h-98c-3 25 -2 38 3 68c-23 -35 -53 -81 -137 -81c-113 0 -130 85 -130 131c0 200 246 190 306 187c5 20 9 42 9 62c0 57 -50 68 -77 68c-63 0 -80 -44 -94 -77l-89 25c14 39 47 123 186 123c141 0 169 -84 169 -129c0 -8 -2 -36 -7 -69l-34 -207
c-8 -43 -9 -59 -9 -73c0 -8 0 -14 2 -28zM308 243c-70 6 -191 -5 -191 -115c0 -50 30 -66 57 -66c98 0 124 131 134 181zM328 544l-164 99l42 65l148 -120z" />
    <glyph glyph-name="aring" unicode="&#xe5;" horiz-adv-x="460" 
d="M374 0h-98c-3 25 -2 38 3 68c-23 -35 -53 -81 -137 -81c-113 0 -130 85 -130 131c0 200 246 190 306 187c5 20 9 42 9 62c0 57 -50 68 -77 68c-63 0 -80 -44 -94 -77l-89 25c14 39 47 123 186 123c141 0 169 -84 169 -129c0 -8 -2 -36 -7 -69l-34 -207
c-8 -43 -9 -59 -9 -73c0 -8 0 -14 2 -28zM308 243c-70 6 -191 -5 -191 -115c0 -50 30 -66 57 -66c98 0 124 131 134 181zM294 549c-50 0 -89 40 -89 89c0 48 38 89 90 89c51 0 89 -41 89 -89c0 -47 -37 -89 -90 -89zM295 596c20 0 41 18 41 42s-20 42 -41 42
c-22 0 -42 -19 -42 -42c0 -22 18 -42 42 -42z" />
    <glyph glyph-name="atilde" unicode="&#xe3;" horiz-adv-x="460" 
d="M374 0h-98c-3 25 -2 38 3 68c-23 -35 -53 -81 -137 -81c-113 0 -130 85 -130 131c0 200 246 190 306 187c5 20 9 42 9 62c0 57 -50 68 -77 68c-63 0 -80 -44 -94 -77l-89 25c14 39 47 123 186 123c141 0 169 -84 169 -129c0 -8 -2 -36 -7 -69l-34 -207
c-8 -43 -9 -59 -9 -73c0 -8 0 -14 2 -28zM308 243c-70 6 -191 -5 -191 -115c0 -50 30 -66 57 -66c98 0 124 131 134 181zM155 576l-30 37c16 23 41 59 90 59c17 0 33 -4 67 -22c28 -14 36 -15 45 -15c23 0 33 12 52 36l31 -38c-28 -43 -59 -59 -85 -59c-17 0 -33 4 -64 20
c-30 15 -39 18 -51 18c-9 0 -30 -2 -55 -36z" />
    <glyph glyph-name="ccedilla" unicode="&#xe7;" horiz-adv-x="426" 
d="M303 174l88 -18c-12 -51 -45 -168 -186 -168l-18 -35c66 6 83 -34 83 -62c0 -46 -40 -85 -104 -85c-27 0 -62 5 -97 31l21 36c24 -12 43 -21 68 -21c34 0 45 20 45 34c0 21 -20 34 -55 34c-9 0 -16 -1 -28 -2l41 74c-110 18 -128 131 -128 202c0 126 55 312 222 312
c91 0 163 -58 157 -179l-93 -8c-1 36 -3 112 -67 112c-93 0 -115 -176 -115 -250c0 -45 8 -119 74 -119c47 0 73 37 92 112z" />
    <glyph glyph-name="eacute" unicode="&#xe9;" horiz-adv-x="443" 
d="M417 233h-279c-2 -14 -4 -25 -4 -49c0 -25 0 -122 83 -122c43 0 70 27 96 94l81 -25c-24 -66 -69 -144 -185 -144c-127 0 -179 89 -179 210c0 136 66 309 226 309c76 0 121 -42 140 -77c11 -22 26 -58 26 -130c0 -31 -2 -48 -5 -66zM146 299h176c2 14 2 22 2 34
c0 14 0 98 -72 98c-29 0 -49 -15 -59 -24c-36 -33 -43 -86 -47 -108zM413 645l-175 -100l-27 41l168 122z" />
    <glyph glyph-name="ecircumflex" unicode="&#xea;" horiz-adv-x="443" 
d="M417 233h-279c-2 -14 -4 -25 -4 -49c0 -25 0 -122 83 -122c43 0 70 27 96 94l81 -25c-24 -66 -69 -144 -185 -144c-127 0 -179 89 -179 210c0 136 66 309 226 309c76 0 121 -42 140 -77c11 -22 26 -58 26 -130c0 -31 -2 -48 -5 -66zM146 299h176c2 14 2 22 2 34
c0 14 0 98 -72 98c-29 0 -49 -15 -59 -24c-36 -33 -43 -86 -47 -108zM201 555l-78 7l167 130l134 -129l-74 -7l-68 58z" />
    <glyph glyph-name="edieresis" unicode="&#xeb;" horiz-adv-x="443" 
d="M417 233h-279c-2 -14 -4 -25 -4 -49c0 -25 0 -122 83 -122c43 0 70 27 96 94l81 -25c-24 -66 -69 -144 -185 -144c-127 0 -179 89 -179 210c0 136 66 309 226 309c76 0 121 -42 140 -77c11 -22 26 -58 26 -130c0 -31 -2 -48 -5 -66zM146 299h176c2 14 2 22 2 34
c0 14 0 98 -72 98c-29 0 -49 -15 -59 -24c-36 -33 -43 -86 -47 -108zM209 569c-27 0 -51 22 -51 51c0 27 22 51 52 51s51 -25 51 -51c0 -25 -19 -51 -52 -51zM358 569c-28 0 -51 23 -51 51c0 26 21 51 51 51c32 0 52 -25 52 -51c0 -25 -19 -51 -52 -51z" />
    <glyph glyph-name="egrave" unicode="&#xe8;" horiz-adv-x="443" 
d="M417 233h-279c-2 -14 -4 -25 -4 -49c0 -25 0 -122 83 -122c43 0 70 27 96 94l81 -25c-24 -66 -69 -144 -185 -144c-127 0 -179 89 -179 210c0 136 66 309 226 309c76 0 121 -42 140 -77c11 -22 26 -58 26 -130c0 -31 -2 -48 -5 -66zM146 299h176c2 14 2 22 2 34
c0 14 0 98 -72 98c-29 0 -49 -15 -59 -24c-36 -33 -43 -86 -47 -108zM289 544l-164 99l42 65l148 -120z" />
    <glyph glyph-name="iacute" unicode="&#xed;" horiz-adv-x="221" 
d="M19 0l82 493h100l-82 -493h-100zM302 645l-175 -100l-27 41l168 122z" />
    <glyph glyph-name="icircumflex" unicode="&#xee;" horiz-adv-x="221" 
d="M19 0l82 493h100l-82 -493h-100zM90 555l-78 7l167 130l134 -129l-74 -7l-68 58z" />
    <glyph glyph-name="idieresis" unicode="&#xef;" horiz-adv-x="221" 
d="M19 0l82 493h100l-82 -493h-100zM98 569c-27 0 -51 22 -51 51c0 27 22 51 52 51s51 -25 51 -51c0 -25 -19 -51 -52 -51zM247 569c-28 0 -51 23 -51 51c0 26 21 51 51 51c32 0 52 -25 52 -51c0 -25 -19 -51 -52 -51z" />
    <glyph glyph-name="igrave" unicode="&#xec;" horiz-adv-x="221" 
d="M19 0l82 493h100l-82 -493h-100zM188 544l-164 99l42 65l148 -120z" />
    <glyph glyph-name="ntilde" unicode="&#xf1;" horiz-adv-x="477" 
d="M19 0l82 493h88l-15 -92c18 39 48 105 146 105c102 0 119 -71 119 -113c0 -9 -1 -43 -11 -108l-48 -285h-100l47 281c2 11 10 63 10 83c0 46 -28 63 -58 63c-76 0 -104 -94 -124 -214l-36 -213h-100zM168 576l-30 37c16 23 41 59 90 59c17 0 33 -4 67 -22
c28 -14 36 -15 45 -15c23 0 33 12 52 36l31 -38c-28 -43 -59 -59 -85 -59c-17 0 -33 4 -64 20c-30 15 -39 18 -51 18c-9 0 -30 -2 -55 -36z" />
    <glyph glyph-name="oacute" unicode="&#xf3;" horiz-adv-x="460" 
d="M427 304c0 -47 -7 -168 -78 -254c-45 -54 -109 -63 -150 -63c-20 0 -77 6 -111 37c-47 43 -58 112 -58 172c0 146 62 310 229 310c142 0 168 -114 168 -202zM135 165c0 -27 3 -103 71 -103c39 0 65 29 80 65c31 75 36 165 36 196c0 30 0 108 -68 108
c-112 0 -119 -250 -119 -266zM421 645l-175 -100l-27 41l168 122z" />
    <glyph glyph-name="ocircumflex" unicode="&#xf4;" horiz-adv-x="460" 
d="M427 304c0 -47 -7 -168 -78 -254c-45 -54 -109 -63 -150 -63c-20 0 -77 6 -111 37c-47 43 -58 112 -58 172c0 146 62 310 229 310c142 0 168 -114 168 -202zM135 165c0 -27 3 -103 71 -103c39 0 65 29 80 65c31 75 36 165 36 196c0 30 0 108 -68 108
c-112 0 -119 -250 -119 -266zM209 555l-78 7l167 130l134 -129l-74 -7l-68 58z" />
    <glyph glyph-name="odieresis" unicode="&#xf6;" horiz-adv-x="460" 
d="M427 304c0 -47 -7 -168 -78 -254c-45 -54 -109 -63 -150 -63c-20 0 -77 6 -111 37c-47 43 -58 112 -58 172c0 146 62 310 229 310c142 0 168 -114 168 -202zM135 165c0 -27 3 -103 71 -103c39 0 65 29 80 65c31 75 36 165 36 196c0 30 0 108 -68 108
c-112 0 -119 -250 -119 -266zM217 569c-27 0 -51 22 -51 51c0 27 22 51 52 51s51 -25 51 -51c0 -25 -19 -51 -52 -51zM366 569c-28 0 -51 23 -51 51c0 26 21 51 51 51c32 0 52 -25 52 -51c0 -25 -19 -51 -52 -51z" />
    <glyph glyph-name="ograve" unicode="&#xf2;" horiz-adv-x="460" 
d="M427 304c0 -47 -7 -168 -78 -254c-45 -54 -109 -63 -150 -63c-20 0 -77 6 -111 37c-47 43 -58 112 -58 172c0 146 62 310 229 310c142 0 168 -114 168 -202zM135 165c0 -27 3 -103 71 -103c39 0 65 29 80 65c31 75 36 165 36 196c0 30 0 108 -68 108
c-112 0 -119 -250 -119 -266zM278 544l-164 99l42 65l148 -120z" />
    <glyph glyph-name="otilde" unicode="&#xf5;" horiz-adv-x="460" 
d="M427 304c0 -47 -7 -168 -78 -254c-45 -54 -109 -63 -150 -63c-20 0 -77 6 -111 37c-47 43 -58 112 -58 172c0 146 62 310 229 310c142 0 168 -114 168 -202zM135 165c0 -27 3 -103 71 -103c39 0 65 29 80 65c31 75 36 165 36 196c0 30 0 108 -68 108
c-112 0 -119 -250 -119 -266zM145 576l-30 37c16 23 41 59 90 59c17 0 33 -4 67 -22c28 -14 36 -15 45 -15c23 0 33 12 52 36l31 -38c-28 -43 -59 -59 -85 -59c-17 0 -33 4 -64 20c-30 15 -39 18 -51 18c-9 0 -30 -2 -55 -36z" />
    <glyph glyph-name="scaron" unicode="&#x161;" horiz-adv-x="392" 
d="M1 128l87 22c12 -55 42 -88 95 -88c55 0 77 37 77 66c0 39 -28 54 -85 81c-60 30 -125 64 -125 148c0 60 45 149 165 149c123 0 148 -86 159 -127l-77 -26c-15 39 -33 78 -83 78c-40 0 -70 -26 -70 -60c0 -38 28 -54 91 -85c66 -33 121 -60 121 -140
c0 -72 -43 -159 -176 -159c-152 0 -172 107 -179 141zM119 678l73 7l68 -58l79 59l79 -7l-165 -132z" />
    <glyph glyph-name="uacute" unicode="&#xfa;" horiz-adv-x="477" 
d="M375 0h-88l14 86c-25 -43 -59 -99 -150 -99c-71 0 -117 38 -117 106c0 30 4 51 12 101l50 299h100l-47 -282c-5 -29 -11 -68 -11 -89c0 -14 3 -56 53 -56c55 0 85 52 99 86c16 36 27 106 35 149l32 192h101zM430 645l-175 -100l-27 41l168 122z" />
    <glyph glyph-name="ucircumflex" unicode="&#xfb;" horiz-adv-x="477" 
d="M375 0h-88l14 86c-25 -43 -59 -99 -150 -99c-71 0 -117 38 -117 106c0 30 4 51 12 101l50 299h100l-47 -282c-5 -29 -11 -68 -11 -89c0 -14 3 -56 53 -56c55 0 85 52 99 86c16 36 27 106 35 149l32 192h101zM218 555l-78 7l167 130l134 -129l-74 -7l-68 58z" />
    <glyph glyph-name="udieresis" unicode="&#xfc;" horiz-adv-x="477" 
d="M375 0h-88l14 86c-25 -43 -59 -99 -150 -99c-71 0 -117 38 -117 106c0 30 4 51 12 101l50 299h100l-47 -282c-5 -29 -11 -68 -11 -89c0 -14 3 -56 53 -56c55 0 85 52 99 86c16 36 27 106 35 149l32 192h101zM226 569c-27 0 -51 22 -51 51c0 27 22 51 52 51s51 -25 51 -51
c0 -25 -19 -51 -52 -51zM375 569c-28 0 -51 23 -51 51c0 26 21 51 51 51c32 0 52 -25 52 -51c0 -25 -19 -51 -52 -51z" />
    <glyph glyph-name="ugrave" unicode="&#xf9;" horiz-adv-x="477" 
d="M375 0h-88l14 86c-25 -43 -59 -99 -150 -99c-71 0 -117 38 -117 106c0 30 4 51 12 101l50 299h100l-47 -282c-5 -29 -11 -68 -11 -89c0 -14 3 -56 53 -56c55 0 85 52 99 86c16 36 27 106 35 149l32 192h101zM286 544l-164 99l42 65l148 -120z" />
    <glyph glyph-name="yacute" unicode="&#xfd;" horiz-adv-x="392" 
d="M142 493l44 -338l140 338h90l-228 -508c-56 -126 -92 -161 -182 -161c-20 0 -30 2 -43 3l9 82c15 -2 26 -3 41 -3c51 0 68 25 109 121l-84 466h104zM387 645l-175 -100l-27 41l168 122z" />
    <glyph glyph-name="ydieresis" unicode="&#xff;" horiz-adv-x="392" 
d="M142 493l44 -338l140 338h90l-228 -508c-56 -126 -92 -161 -182 -161c-20 0 -30 2 -43 3l9 82c15 -2 26 -3 41 -3c51 0 68 25 109 121l-84 466h104zM183 569c-27 0 -51 22 -51 51c0 27 22 51 52 51s51 -25 51 -51c0 -25 -19 -51 -52 -51zM332 569c-28 0 -51 23 -51 51
c0 26 21 51 51 51c32 0 52 -25 52 -51c0 -25 -19 -51 -52 -51z" />
    <glyph glyph-name="zcaron" unicode="&#x17e;" horiz-adv-x="375" 
d="M-15 0l11 66l259 352h-193l12 75h310l-11 -67l-256 -346h208l-14 -80h-326zM85 678l73 7l68 -58l79 59l79 -7l-165 -132z" />
    <glyph glyph-name="one.superior" horiz-adv-x="324" 
d="M70 267l10 62h72l40 238c-24 -16 -41 -21 -91 -23l11 65c52 5 82 17 114 63h61l-57 -343h74l-11 -62h-223z" />
    <glyph glyph-name="two.superior" horiz-adv-x="324" 
d="M39 267l10 69c77 53 213 149 213 231c0 22 -15 46 -47 46c-45 0 -58 -49 -66 -81l-71 18c10 38 33 125 140 125c85 0 124 -56 124 -105c0 -101 -114 -181 -196 -235h165l-11 -68h-261z" />
    <glyph glyph-name="three.superior" horiz-adv-x="324" 
d="M35 371l68 21c7 -25 19 -73 73 -73c34 0 61 23 61 64c0 55 -40 62 -71 62h-29l11 59h31c18 0 77 0 77 62c0 29 -18 49 -51 49c-37 0 -49 -26 -62 -57l-64 25c9 24 35 92 133 92c106 0 125 -68 125 -105c0 -79 -64 -92 -91 -98c25 -8 72 -22 72 -88
c0 -58 -39 -125 -140 -125c-119 0 -137 84 -143 112z" />
    <glyph glyph-name="a.superior" 
d="M414 339h-80c0 14 0 21 2 49c-10 -17 -35 -58 -93 -58c-80 0 -96 57 -96 91c0 96 97 132 213 126c2 11 5 24 5 36c0 32 -33 38 -48 38c-38 0 -48 -22 -57 -44l-74 20c15 35 41 83 134 83c106 0 124 -61 124 -89c0 -1 0 -18 -5 -46l-22 -135c-4 -23 -6 -36 -6 -44
c0 -7 0 -13 3 -27zM234 429c0 -30 21 -38 37 -38c60 0 75 76 80 105c-21 1 -117 4 -117 -67z" />
    <glyph glyph-name="Omega" unicode="&#x2126;" horiz-adv-x="653" 
d="M141 78v3c-51 58 -91 157 -70 284c30 178 168 313 329 313c171 0 244 -154 218 -307c-22 -131 -99 -235 -167 -290l-1 -3h132l-13 -78h-231l10 57c70 44 146 141 172 294c20 121 -18 247 -134 247c-111 0 -199 -109 -223 -251c-23 -140 19 -248 74 -290l-9 -57h-230
l12 78h131z" />
    <glyph glyph-name="uni03BC" unicode="&#x3bc;" horiz-adv-x="477" 
d="M86 -167h-101l110 660h101l-50 -301c-8 -45 -8 -64 -8 -70c0 -31 13 -56 52 -56c95 0 117 131 134 235l32 192h101l-82 -493h-89l15 85c-23 -38 -58 -98 -123 -98c-49 0 -54 38 -57 57z" />
    <glyph glyph-name="pi" unicode="&#x3c0;" horiz-adv-x="540" 
d="M544 418h-69l-47 -279c-12 -74 -13 -112 -10 -139h-91c-7 18 -6 62 6 134l48 284h-146c-24 -113 -83 -321 -133 -418h-92c52 109 110 301 132 418c-50 0 -77 -4 -97 -11l-2 64c26 16 72 28 147 28h375z" />
    <glyph glyph-name="Euro" unicode="&#x20ac;" 
d="M530 485l-93 -14c-2 66 -15 126 -78 126s-100 -81 -119 -168h162l-19 -61h-153c-3 -21 -6 -41 -7 -59h141l-19 -61h-125c0 -77 10 -178 82 -178c35 0 76 20 102 117l90 -26c-28 -112 -92 -174 -197 -174c-123 0 -185 92 -185 261h-76l19 61h59c1 20 3 40 6 59h-67l19 61
h60c37 154 122 251 236 251c103 0 162 -71 162 -172v-23z" />
    <glyph glyph-name="afii61289" unicode="&#x2113;" horiz-adv-x="459" 
d="M384 155l34 -40c-59 -87 -130 -124 -202 -124c-110 0 -141 78 -132 168c1 4 2 8 2 12c-18 -13 -38 -28 -57 -42l-17 53c31 23 60 43 86 66l42 252c29 170 114 234 193 234c83 0 109 -71 94 -161c-19 -116 -110 -228 -241 -340l-6 -39c-14 -89 20 -127 69 -127
c54 0 104 45 135 88zM231 501l-30 -178c85 83 153 171 167 252c9 55 -1 89 -43 89c-31 0 -73 -38 -94 -163z" />
    <glyph glyph-name="estimated" unicode="&#x212e;" horiz-adv-x="907" 
d="M874 324h-624c-3 0 -5 -1 -5 -4v-189c0 -8 3 -15 9 -21c60 -63 143 -103 235 -103c100 0 188 45 248 115h56c-69 -81 -181 -134 -305 -134c-212 0 -384 154 -384 345c0 192 172 347 384 347c214 0 386 -155 386 -347v-9zM732 348v190c0 8 -3 16 -9 23
c-60 59 -142 98 -234 98c-91 0 -174 -40 -234 -101c-7 -7 -10 -15 -10 -24v-186c0 -2 2 -6 5 -6h478c3 0 4 4 4 6z" />
    <glyph glyph-name="partialdiff" unicode="&#x2202;" horiz-adv-x="517" 
d="M158 626l-17 71c34 24 90 54 170 54c126 0 224 -117 183 -362c-40 -235 -156 -398 -316 -398c-125 0 -165 116 -147 223c26 153 134 248 240 248c78 0 118 -54 128 -80h1c2 9 5 26 7 36c24 142 -27 254 -121 254c-56 0 -100 -25 -128 -46zM200 71h1c78 0 146 113 175 224
c-5 36 -38 90 -101 90c-70 0 -136 -80 -151 -173c-14 -81 15 -141 76 -141z" />
    <glyph glyph-name="product" unicode="&#x220f;" horiz-adv-x="724" 
d="M700 581h-97v-673h-93v673h-227v-673h-93v673h-97v87h607v-87z" />
    <glyph glyph-name="summation" unicode="&#x2211;" horiz-adv-x="580" 
d="M562 -92h-471v62l235 318l-225 313v67h446v-81h-320v-4l205 -280l-225 -303v-3h355v-89z" />
    <glyph glyph-name="uni2219" unicode="&#x2219;" horiz-adv-x="238" 
d="M167 194h-114l20 125h115z" />
    <glyph glyph-name="radical" unicode="&#x221a;" horiz-adv-x="610" 
d="M613 798l-206 -936h-77l-142 431l-69 -26l-17 55l143 57l105 -327c7 -27 14 -57 18 -77h1c3 19 8 50 13 80l164 743h67z" />
    <glyph glyph-name="infinity" unicode="&#x221e;" horiz-adv-x="755" 
d="M709 277v-1c0 -96 -71 -155 -146 -155c-57 0 -106 30 -169 108c-49 -58 -99 -108 -175 -108c-77 0 -144 63 -144 151c0 90 64 155 151 155c70 0 122 -48 171 -108c43 49 91 108 172 108c81 -1 140 -61 140 -150zM226 175h1c56 0 99 53 136 95c-40 51 -78 103 -142 103
c-56 0 -89 -45 -89 -102c0 -53 39 -96 94 -96zM563 373h-1c-60 0 -106 -64 -137 -98c59 -69 91 -100 141 -100c55 0 87 52 87 97c0 61 -37 101 -90 101z" />
    <glyph glyph-name="integral" unicode="&#x222b;" horiz-adv-x="422" 
d="M404 809l-12 -66c-8 5 -20 9 -33 9c-16 0 -34 -7 -46 -24c-22 -27 -28 -80 -28 -166c0 -152 12 -306 12 -470c0 -97 -15 -157 -36 -193c-23 -41 -66 -58 -107 -58c-27 0 -53 8 -65 15l13 69c9 -4 23 -11 41 -11c15 0 31 6 41 21c17 23 29 65 29 156
c0 166 -14 323 -14 480c0 108 15 168 53 209c25 28 63 41 99 41c21 0 43 -6 53 -12z" />
    <glyph glyph-name="approxequal" unicode="&#x2248;" horiz-adv-x="542" 
d="M467 419l35 -31c-26 -53 -67 -94 -122 -94c-37 0 -63 13 -106 38c-28 17 -53 32 -83 32c-42 0 -66 -34 -88 -69l-36 31c27 55 75 94 130 94c45 0 77 -23 101 -37c33 -19 53 -33 84 -33c37 0 60 26 85 69zM467 252l35 -32c-26 -52 -67 -93 -122 -93c-37 0 -63 14 -106 38
c-29 18 -53 33 -83 33c-42 0 -66 -34 -88 -70l-36 31c27 56 75 94 130 94c46 0 77 -23 101 -36c30 -17 53 -34 84 -34c37 0 59 26 85 69z" />
    <glyph glyph-name="notequal" unicode="&#x2260;" horiz-adv-x="555" 
d="M413 481l-39 -87h135v-57h-156l-59 -132h215v-57h-237l-48 -107l-45 19l40 88h-132v57h154l58 132h-212v57h234l47 106z" />
    <glyph glyph-name="lessequal" unicode="&#x2264;" horiz-adv-x="568" 
d="M520 94l-415 211v62l414 210v-68l-355 -171v-3l356 -173v-68zM523 -1h-422v58h422v-58z" />
    <glyph glyph-name="greaterequal" unicode="&#x2265;" horiz-adv-x="568" 
d="M107 577l414 -211v-61l-414 -211v68l355 173v2l-355 172v68zM522 -1h-420v58h420v-58z" />
    <glyph glyph-name="lozenge" unicode="&#x25ca;" horiz-adv-x="610" 
d="M562 333l-185 -377h-76l-181 377l185 378h76zM477 331l-117 246c-7 17 -14 40 -17 55h-3c-4 -17 -11 -36 -18 -55l-118 -241l119 -249c7 -19 13 -41 16 -53h3c4 13 11 40 17 52z" />
    <glyph glyph-name="uni00A0" unicode="&#xa0;" horiz-adv-x="250" 
 />
    <glyph glyph-name="uni00AD" unicode="&#xad;" horiz-adv-x="255" 
d="M214 209h-187l14 82h187z" />
    <glyph glyph-name="uni02C9" unicode="&#x2c9;" horiz-adv-x="460" 
d="M419 585h-266l9 59h267z" />
    <glyph glyph-name="uni2215" unicode="&#x2215;" horiz-adv-x="136" 
d="M-111 0h-74l460 667h74z" />
    <glyph glyph-name="uni03A9" unicode="&#x3a9;" horiz-adv-x="653" 
d="M141 78v3c-51 58 -91 157 -70 284c30 178 168 313 329 313c171 0 244 -154 218 -307c-22 -131 -99 -235 -167 -290l-1 -3h132l-13 -78h-231l10 57c70 44 146 141 172 294c20 121 -18 247 -134 247c-111 0 -199 -109 -223 -251c-23 -140 19 -248 74 -290l-9 -57h-230
l12 78h131z" />
    <glyph glyph-name="o.superior" 
d="M278 330c-106 0 -123 85 -123 145c0 95 42 205 163 205c95 0 122 -67 122 -142c0 -46 -13 -208 -162 -208zM285 390c59 0 70 113 70 162c0 20 0 68 -42 68c-67 0 -73 -143 -73 -165c0 -26 5 -65 45 -65z" />
    <glyph glyph-name="uni2206" unicode="&#x2206;" horiz-adv-x="600" 
d="M-14 0l10 59l323 625h110l111 -623l-11 -61h-543zM93 77h349l-61 322c-7 52 -24 132 -27 175h-4c-14 -36 -54 -108 -78 -161z" />
    <glyph glyph-name="fi" unicode="&#xfb01;" horiz-adv-x="460" 
d="M30 0l71 420h-64l12 73h63c18 98 36 195 175 195c26 0 40 -3 55 -5l-13 -81c-10 1 -21 2 -31 2c-60 0 -75 -29 -86 -111h87l-12 -73h-86l-70 -420h-101zM257 0l82 493h101l-82 -493h-101zM348 563l18 107h107l-18 -107h-107z" />
    <glyph glyph-name="fl" unicode="&#xfb02;" horiz-adv-x="460" 
d="M30 0l71 420h-64l12 73h63c18 98 36 195 175 195c26 0 40 -3 55 -5l-13 -81c-10 1 -21 2 -31 2c-60 0 -75 -29 -86 -111h87l-12 -73h-86l-70 -420h-101zM257 0l111 667h101l-111 -667h-101z" />
    <glyph glyph-name="onesuperior" unicode="&#xb9;" horiz-adv-x="324" 
d="M70 267l10 62h72l40 238c-24 -16 -41 -21 -91 -23l11 65c52 5 82 17 114 63h61l-57 -343h74l-11 -62h-223z" />
    <glyph glyph-name="threesuperior" unicode="&#xb3;" horiz-adv-x="324" 
d="M35 371l68 21c7 -25 19 -73 73 -73c34 0 61 23 61 64c0 55 -40 62 -71 62h-29l11 59h31c18 0 77 0 77 62c0 29 -18 49 -51 49c-37 0 -49 -26 -62 -57l-64 25c9 24 35 92 133 92c106 0 125 -68 125 -105c0 -79 -64 -92 -91 -98c25 -8 72 -22 72 -88
c0 -58 -39 -125 -140 -125c-119 0 -137 84 -143 112z" />
    <glyph glyph-name="twosuperior" unicode="&#xb2;" horiz-adv-x="324" 
d="M39 267l10 69c77 53 213 149 213 231c0 22 -15 46 -47 46c-45 0 -58 -49 -66 -81l-71 18c10 38 33 125 140 125c85 0 124 -56 124 -105c0 -101 -114 -181 -196 -235h165l-11 -68h-261z" />
    <glyph glyph-name="uni2010" unicode="&#x2010;" horiz-adv-x="255" 
d="M214 209h-187l14 82h187z" />
    </font>
</defs>
</svg>
