<?xml version="1.0" standalone="no"?>
<!DOCTYPE svg PUBLIC "-//W3C//DTD SVG 1.1//EN" "http://www.w3.org/Graphics/SVG/1.1/DTD/svg11.dtd" >
<svg xmlns="http://www.w3.org/2000/svg" xmlns:xlink="http://www.w3.org/1999/xlink" version="1.1">
<metadata>
Created by FontForge 20150913 at Tue Mar 22 22:54:45 2016
 By Jimmy Wärting
Copyright 1995, 2002 Adobe Systems Incorporated. All rights reserved. ITC is a trademark of International Typeface Corporation registered in the U.S. Patent and Trademark Office and may be registered in certain other jurisdictions. Franklin Gothic is a trademark of International Typeface Corporation and may be registered in certain jurisdictions.
</metadata>
<defs>
<font id="ITCFranklinGothicStd-BkCpIt" horiz-adv-x="443" >
  <font-face 
    font-family="ITC Franklin Gothic Std"
    font-weight="400"
    font-style="italic"
    font-stretch="extra-condensed"
    units-per-em="1000"
    panose-1="2 11 5 8 3 5 3 9 2 4"
    ascent="686"
    descent="-314"
    x-height="493"
    cap-height="667"
    bbox="-175 -250 863 875"
    underline-thickness="50"
    underline-position="-100"
    slope="-9.5"
    stemh="57"
    stemv="67"
    unicode-range="U+0020-FB02"
  />
<missing-glyph horiz-adv-x="570" 
d="M70 0v700h500v-700h-500zM320 395l170 255h-340zM350 350l170 -255v510zM150 50h340l-170 255zM120 605v-510l170 255z" />
    <glyph glyph-name="f_i" unicode="fi" horiz-adv-x="392" 
d="M182 493h79l-10 -57h-78l-73 -436h-68l73 436h-63l10 57h62c20 112 45 183 152 183c16 0 26 -1 39 -3l-10 -60c-18 2 -23 2 -28 2c-63 0 -70 -41 -85 -122zM381 493l-82 -493h-68l82 493h68zM410 667l-14 -83h-68l14 83h68z" />
    <glyph glyph-name="f_l" unicode="fl" horiz-adv-x="392" 
d="M182 493h79l-10 -57h-78l-73 -436h-68l73 436h-63l10 57h62c20 112 45 183 152 183c16 0 26 -1 39 -3l-10 -60c-18 2 -23 2 -28 2c-63 0 -70 -41 -85 -122zM410 667l-111 -667h-68l111 667h68z" />
    <glyph glyph-name=".notdef" horiz-adv-x="570" 
d="M70 0v700h500v-700h-500zM320 395l170 255h-340zM350 350l170 -255v510zM150 50h340l-170 255zM120 605v-510l170 255z" />
    <glyph glyph-name="space" unicode=" " horiz-adv-x="222" 
 />
    <glyph glyph-name="exclam" unicode="!" horiz-adv-x="290" 
d="M169 667h91l-105 -497h-47zM77 100h86l-17 -100h-86z" />
    <glyph glyph-name="quotedbl" unicode="&#x22;" horiz-adv-x="324" 
d="M220 667l-59 -254h-49l36 254h72zM322 667l-59 -254h-48l35 254h72z" />
    <glyph glyph-name="numbersign" unicode="#" 
d="M120 0h-59l46 212h-73l13 60h72l30 139h-72l13 60h72l41 196h59l-41 -196h88l42 196h59l-42 -196h71l-13 -60h-71l-29 -139h71l-13 -60h-71l-45 -212h-59l45 212h-88zM267 272l29 139h-88l-30 -139h89z" />
    <glyph glyph-name="dollar" unicode="$" 
d="M201 7l-16 -92h-48l17 96c-82 24 -103 70 -121 150l57 26c15 -93 55 -111 74 -116l40 239c-53 34 -109 75 -109 168c0 102 66 183 167 182l13 76h48l-14 -79c85 -24 104 -87 114 -122l-56 -26c-17 60 -38 80 -67 90l-38 -225c73 -45 127 -78 127 -175
c0 -80 -45 -193 -188 -192zM218 395l35 210c-20 -2 -37 -7 -57 -25s-35 -52 -35 -86c0 -57 34 -83 57 -99zM248 291l-38 -227c83 5 110 68 110 121c0 60 -31 83 -72 106z" />
    <glyph glyph-name="percent" unicode="%" horiz-adv-x="596" 
d="M220 676c46 0 96 -29 96 -126c0 -18 -6 -220 -142 -220c-66 0 -95 56 -95 133c0 20 4 213 141 213zM213 625c-62 0 -69 -124 -69 -184c0 -14 0 -60 36 -60c22 0 38 14 48 34c17 34 23 97 23 137c0 37 -3 73 -38 73zM450 336c43 0 95 -27 95 -126c0 -17 -5 -219 -141 -219
c-36 0 -58 18 -69 34c-18 25 -26 57 -26 99c0 16 3 212 141 212zM444 285c-62 0 -69 -123 -69 -182c0 -16 0 -61 36 -61c23 0 39 15 48 34c17 34 23 96 23 137c0 33 -1 72 -38 72zM493 667h51l-413 -667h-51z" />
    <glyph glyph-name="ampersand" unicode="&#x26;" horiz-adv-x="511" 
d="M434 365l51 -28c-24 -76 -62 -162 -130 -243c8 -15 22 -42 47 -42c14 0 30 8 37 11l-1 -63c-12 -3 -29 -9 -51 -9c-49 0 -65 31 -78 54c-18 -16 -61 -54 -132 -54c-124 0 -142 119 -142 170c0 144 106 203 154 230c-12 53 -21 96 -21 132c0 80 44 153 129 153
c50 0 106 -29 106 -125c0 -90 -52 -141 -136 -186c11 -51 45 -166 61 -214c38 51 70 105 106 214zM251 421c35 19 87 48 87 131c0 30 -9 67 -49 67c-51 0 -55 -58 -55 -81c0 -38 11 -87 17 -117zM205 337c-44 -26 -100 -63 -100 -165c0 -31 6 -124 85 -124c42 0 70 26 92 47
c-34 89 -47 134 -77 242z" />
    <glyph glyph-name="quoteright" unicode="&#x2019;" horiz-adv-x="204" 
d="M133 667h85l-16 -100l-75 -120h-38l60 120h-32z" />
    <glyph glyph-name="parenleft" unicode="(" horiz-adv-x="273" 
d="M242 667h61c-31 -41 -79 -104 -123 -205c-54 -126 -77 -258 -77 -363c0 -118 26 -194 53 -266h-53c-40 86 -69 152 -69 287c0 92 13 219 84 363c47 94 94 149 124 184z" />
    <glyph glyph-name="parenright" unicode=")" horiz-adv-x="273" 
d="M30 -167h-61c31 41 79 103 123 205c53 125 77 256 77 363c0 121 -28 201 -53 266h54c39 -86 68 -152 68 -286c0 -302 -155 -486 -208 -548z" />
    <glyph glyph-name="asterisk" unicode="*" 
d="M256 673l62 -10l-31 -138l110 60l16 -63l-112 -32l97 -73l-32 -53l-88 99l-9 -143l-62 10l31 138l-107 -58l-16 62l109 31l-95 71l33 53l85 -97z" />
    <glyph glyph-name="plus" unicode="+" 
d="M268 364h144v-61h-144v-145h-65v145h-144v61h144v145h65v-145z" />
    <glyph glyph-name="comma" unicode="," horiz-adv-x="222" 
d="M46 109h86l-18 -109l-74 -124h-37l57 124h-32z" />
    <glyph glyph-name="hyphen" unicode="-" horiz-adv-x="239" 
d="M40 279h168l-9 -57h-168z" />
    <glyph glyph-name="period" unicode="." horiz-adv-x="222" 
d="M44 109h86l-18 -109h-86z" />
    <glyph glyph-name="slash" unicode="/" horiz-adv-x="341" 
d="M382 667l-442 -834h-56l443 834h55z" />
    <glyph glyph-name="zero" unicode="0" 
d="M281 676c140 0 145 -154 145 -228c0 -170 -49 -298 -72 -345c-31 -65 -90 -112 -161 -112c-33 0 -78 4 -109 51c-27 40 -40 92 -40 175c0 17 0 459 237 459zM276 615c-54 0 -84 -41 -102 -88c-24 -61 -53 -171 -53 -314c0 -71 5 -161 76 -161c116 0 152 268 152 407
c0 55 -3 84 -17 116c-8 19 -30 40 -56 40z" />
    <glyph glyph-name="one" unicode="1" 
d="M349 676l-103 -616h107l-10 -60h-290l11 60h107l83 494c-30 -25 -62 -48 -132 -61l12 68c97 17 138 88 154 115h61z" />
    <glyph glyph-name="two" unicode="2" 
d="M362 67l-11 -67h-339l13 78c61 46 145 112 215 190c103 114 104 197 104 231c0 16 0 112 -83 112c-43 0 -95 -34 -121 -153l-62 24c13 50 51 194 187 194c109 0 156 -85 156 -177c0 -161 -125 -281 -323 -432h264z" />
    <glyph glyph-name="three" unicode="3" 
d="M165 317l11 63c62 -1 77 -1 101 9c61 23 70 100 70 130c0 64 -30 96 -78 96c-70 0 -94 -59 -109 -96l-55 29c9 24 23 60 60 90c46 37 92 38 110 38c75 0 146 -41 146 -156c0 -78 -31 -145 -121 -175c24 -11 82 -39 82 -148c0 -95 -58 -206 -189 -206
c-94 0 -157 61 -171 161l64 22c5 -29 20 -122 112 -122c37 0 109 22 109 145c0 78 -38 122 -112 122c-12 0 -21 -1 -30 -2z" />
    <glyph glyph-name="four" unicode="4" 
d="M409 676l-76 -456h78l-10 -61h-79l-26 -159h-68l26 159h-237l11 63l313 454h68zM93 220h174l57 345z" />
    <glyph glyph-name="five" unicode="5" 
d="M429 667l-11 -66h-218l-44 -192c16 17 43 46 98 46c87 0 140 -69 140 -194c0 -168 -79 -270 -198 -270c-60 0 -99 26 -124 54c-30 34 -39 70 -46 94l62 26c6 -26 25 -113 111 -113c65 0 87 50 95 70c16 41 23 99 23 141c0 54 -8 131 -83 131c-69 0 -90 -58 -101 -87
l-59 15l74 345h281z" />
    <glyph glyph-name="six" unicode="6" 
d="M441 529l-64 -14c-5 35 -15 100 -85 100c-116 0 -147 -181 -164 -277c15 30 51 99 140 99c81 0 137 -60 137 -181c0 -131 -65 -265 -202 -265c-79 0 -114 49 -133 94s-22 101 -22 134c0 74 16 231 81 351c57 106 150 106 166 106c46 0 84 -20 106 -46
c30 -36 36 -71 40 -101zM249 376c-72 0 -124 -81 -124 -194c0 -64 19 -130 84 -130c68 0 119 71 119 192c0 86 -20 132 -79 132z" />
    <glyph glyph-name="seven" unicode="7" 
d="M128 667h330l-10 -56c-115 -143 -246 -328 -267 -611h-77c34 268 128 436 275 601h-268z" />
    <glyph glyph-name="eight" unicode="8" 
d="M296 356c35 -23 95 -68 95 -165c0 -109 -76 -200 -201 -200c-117 0 -163 91 -163 162c0 51 22 105 60 143c27 28 57 41 81 53c-35 29 -74 66 -74 139c0 94 66 188 178 188c86 0 148 -61 148 -147c0 -111 -86 -154 -124 -173zM243 386c73 32 107 78 107 136
c0 67 -42 97 -88 97c-52 0 -98 -39 -98 -114c0 -80 54 -107 79 -119zM216 316c-116 -47 -119 -144 -119 -162c0 -57 30 -106 102 -106c89 0 121 70 121 124c0 91 -80 132 -104 144z" />
    <glyph glyph-name="nine" unicode="9" 
d="M26 117l62 26c6 -25 19 -91 91 -91c97 0 138 130 159 257c-13 -22 -45 -75 -122 -75c-89 0 -146 84 -146 197c0 94 43 245 192 245c122 0 159 -103 159 -243c0 -117 -39 -442 -247 -442c-116 0 -139 91 -148 126zM258 615c-45 0 -66 -24 -78 -41
c-26 -37 -33 -97 -33 -139c0 -88 29 -140 82 -140c47 0 115 53 115 188c0 21 0 132 -86 132z" />
    <glyph glyph-name="colon" unicode=":" horiz-adv-x="222" 
d="M44 109h86l-18 -109h-86zM108 493h86l-18 -109h-86z" />
    <glyph glyph-name="semicolon" unicode=";" horiz-adv-x="222" 
d="M46 109h86l-18 -109l-74 -124h-37l57 124h-32zM110 493h87l-19 -109h-86z" />
    <glyph glyph-name="less" unicode="&#x3c;" 
d="M402 564v-68l-292 -163l292 -163v-68l-367 202v59z" />
    <glyph glyph-name="equal" unicode="=" 
d="M411 361h-352v61h352v-61zM411 245h-352v61h352v-61z" />
    <glyph glyph-name="greater" unicode="&#x3e;" 
d="M69 564l366 -201v-59l-366 -202v68l291 163l-291 163v68z" />
    <glyph glyph-name="question" unicode="?" horiz-adv-x="392" 
d="M136 477l-66 16c21 112 83 183 191 183c80 0 138 -47 138 -147c0 -106 -56 -161 -123 -218c-52 -44 -67 -66 -72 -149h-71c11 95 23 134 95 195c51 43 94 80 94 168c0 53 -26 86 -72 86c-14 0 -59 -4 -88 -52c-15 -23 -21 -53 -26 -82zM120 100h87l-17 -100h-87z" />
    <glyph glyph-name="at" unicode="@" horiz-adv-x="562" 
d="M466 98l12 -54c-58 -40 -128 -57 -199 -57c-47 0 -145 11 -199 109c-33 60 -37 136 -37 173c0 208 109 411 302 411c146 0 204 -119 204 -248c0 -128 -56 -292 -174 -292c-54 0 -60 37 -62 49c-6 -12 -27 -51 -74 -51c-25 0 -49 14 -61 33c-8 13 -17 32 -17 74
c0 118 65 272 158 272c33 0 56 -22 59 -63l17 51h54l-62 -198c-7 -22 -21 -68 -21 -87c0 -22 21 -26 27 -26c54 0 95 109 95 240c0 75 -14 112 -38 143c-37 49 -83 54 -108 54c-162 0 -238 -194 -238 -353c0 -108 33 -243 182 -243c67 0 127 25 180 63zM323 460
c-61 8 -103 -142 -103 -211c0 -12 0 -54 34 -54c65 0 94 178 94 215c0 11 0 47 -25 50z" />
    <glyph glyph-name="A" unicode="A" horiz-adv-x="409" 
d="M314 667l50 -667h-76l-12 195h-157l-72 -195h-72l267 667h72zM145 259h127l-15 299z" />
    <glyph glyph-name="B" unicode="B" horiz-adv-x="460" 
d="M136 667h123c67 0 101 -12 123 -28c51 -36 58 -101 58 -130c0 -115 -82 -146 -113 -159c23 -10 80 -35 80 -139c0 -44 -12 -124 -66 -165c-41 -33 -85 -46 -168 -46h-148zM249 603h-53l-38 -225h39c65 0 86 7 114 23c39 23 52 75 52 108c0 94 -71 94 -114 94zM189 318
h-41l-42 -254h66c72 0 158 3 158 137c0 117 -72 117 -141 117z" />
    <glyph glyph-name="C" unicode="C" 
d="M448 462l-72 -13c0 68 0 162 -84 162c-128 0 -163 -288 -163 -383c0 -53 5 -172 91 -172c81 0 113 115 123 152l66 -21c-14 -52 -56 -196 -194 -196c-108 0 -163 77 -163 245c0 225 90 440 246 440c43 0 99 -18 128 -81c24 -50 23 -96 22 -133z" />
    <glyph glyph-name="D" unicode="D" horiz-adv-x="477" 
d="M134 667h89c77 0 122 -6 162 -41c68 -61 68 -162 68 -193c0 -95 -23 -227 -77 -313c-67 -105 -143 -120 -250 -120h-103zM233 603h-34l-90 -537h26c35 0 121 0 174 85c43 70 67 187 67 271c0 69 -14 105 -36 135c-24 34 -57 46 -107 46z" />
    <glyph glyph-name="E" unicode="E" horiz-adv-x="392" 
d="M435 667l-10 -64h-226l-38 -225h191l-11 -64h-190l-42 -248h244l-11 -66h-319l111 667h301z" />
    <glyph glyph-name="F" unicode="F" horiz-adv-x="358" 
d="M430 667l-11 -64h-220l-38 -225h187l-10 -64h-187l-53 -314h-75l111 667h296z" />
    <glyph glyph-name="G" unicode="G" horiz-adv-x="477" 
d="M445 340l-57 -340h-38l-8 68c-28 -41 -62 -77 -132 -77c-127 0 -159 115 -159 234c0 97 26 451 251 451c150 0 162 -143 165 -183l-71 -20c-6 55 -16 138 -100 138c-69 0 -109 -71 -130 -133c-30 -90 -38 -218 -38 -260c0 -77 16 -162 100 -162c93 0 120 122 135 220
h-109l10 64h181z" />
    <glyph glyph-name="H" unicode="H" horiz-adv-x="477" 
d="M482 667l-112 -667h-75l54 318h-198l-53 -318h-75l111 667h75l-47 -283h198l47 283h75z" />
    <glyph glyph-name="I" unicode="I" horiz-adv-x="205" 
d="M209 667l-111 -667h-75l111 667h75z" />
    <glyph glyph-name="J" unicode="J" horiz-adv-x="290" 
d="M294 667l-66 -396c-20 -118 -34 -179 -64 -219c-40 -56 -99 -61 -120 -61c-5 0 -36 0 -72 9l11 66c13 -5 27 -10 49 -10c81 0 96 61 117 186l71 425h74z" />
    <glyph glyph-name="K" unicode="K" horiz-adv-x="460" 
d="M209 667l-56 -336l246 336h83l-184 -245l104 -422h-76l-85 359l-106 -141l-37 -218h-75l111 667h75z" />
    <glyph glyph-name="L" unicode="L" horiz-adv-x="358" 
d="M209 667l-100 -601h222l-11 -66h-297l111 667h75z" />
    <glyph glyph-name="M" unicode="M" horiz-adv-x="596" 
d="M601 667l-111 -667h-70l99 588l-236 -588h-64l-39 585l-91 -585h-66l111 667h101l36 -555l222 555h108z" />
    <glyph glyph-name="N" unicode="N" horiz-adv-x="477" 
d="M482 667l-112 -667h-66l-124 562l-93 -562h-64l111 667h84l114 -514l86 514h64z" />
    <glyph glyph-name="O" unicode="O" horiz-adv-x="494" 
d="M304 676c154 0 169 -143 169 -228c0 -104 -18 -208 -59 -304c-25 -61 -79 -153 -197 -153c-162 0 -165 169 -165 237c0 227 94 448 252 448zM300 611c-53 0 -91 -37 -119 -112c-25 -68 -52 -173 -52 -274c0 -121 32 -169 93 -169c46 0 87 24 118 110
c44 119 56 249 56 298c0 31 0 147 -96 147z" />
    <glyph glyph-name="P" unicode="P" horiz-adv-x="426" 
d="M135 667h101c88 0 119 -18 140 -35c23 -19 55 -62 55 -139c0 -72 -28 -139 -67 -174c-48 -44 -122 -49 -164 -49h-56l-46 -270h-75zM233 603h-33l-46 -269h49c26 0 80 1 114 40c25 29 37 74 37 119c0 106 -65 110 -121 110z" />
    <glyph glyph-name="Q" unicode="Q" horiz-adv-x="494" 
d="M361 -93l-10 -58c-20 -6 -36 -10 -60 -10c-68 0 -106 35 -106 97c0 22 4 39 8 56c-7 0 -63 10 -96 51c-27 34 -45 89 -45 185c0 220 89 448 253 448c161 0 168 -161 168 -228c0 -104 -18 -208 -59 -304c-25 -60 -54 -95 -82 -115c-30 -23 -68 -33 -72 -33
c-3 -16 -5 -28 -5 -43c0 -51 39 -53 58 -53s31 3 48 7zM300 611c-54 0 -91 -37 -119 -112c-25 -68 -52 -173 -52 -275c0 -121 32 -169 93 -169c46 0 86 24 118 111c44 119 56 249 56 298c0 31 0 147 -96 147z" />
    <glyph glyph-name="R" unicode="R" 
d="M135 667h115c54 0 192 0 192 -169c0 -57 -19 -100 -39 -129c-27 -39 -58 -52 -85 -62l61 -307h-77l-52 296h-102l-50 -296h-75zM240 603h-41l-41 -243h41c70 0 166 0 166 134c0 107 -72 109 -125 109z" />
    <glyph glyph-name="S" unicode="S" horiz-adv-x="426" 
d="M423 527l-64 -25c-8 31 -27 109 -104 109c-64 0 -90 -60 -90 -107c0 -71 46 -97 93 -122c75 -42 133 -73 133 -183c0 -123 -72 -208 -191 -208c-136 0 -174 93 -186 180l67 20c5 -35 20 -135 122 -135c76 0 111 62 111 126c0 78 -42 101 -113 141
c-54 29 -113 68 -113 169c0 94 57 184 171 184c129 0 155 -111 164 -149z" />
    <glyph glyph-name="T" unicode="T" horiz-adv-x="358" 
d="M276 607l-102 -607h-74l101 607h-129l10 60h333l-10 -60h-129z" />
    <glyph glyph-name="U" unicode="U" horiz-adv-x="460" 
d="M469 667l-67 -400c-27 -161 -58 -276 -202 -276c-142 0 -151 113 -151 148c0 40 9 92 19 151l62 377h75l-65 -387c-4 -29 -14 -87 -14 -133c0 -26 2 -91 79 -91c76 0 102 52 128 211l68 400h68z" />
    <glyph glyph-name="V" unicode="V" horiz-adv-x="409" 
d="M153 667l36 -557l203 557h72l-259 -667h-67l-58 667h73z" />
    <glyph glyph-name="W" unicode="W" horiz-adv-x="613" 
d="M162 667l6 -535l165 535h70l16 -537l171 537h68l-226 -667h-71l-19 511l-159 -511h-72l-20 667h71z" />
    <glyph glyph-name="X" unicode="X" horiz-adv-x="409" 
d="M168 667l63 -240l142 240h77l-196 -317l102 -350h-85l-68 259l-155 -259h-75l208 339l-96 328h83z" />
    <glyph glyph-name="Y" unicode="Y" horiz-adv-x="392" 
d="M146 667l75 -294l158 294h78l-215 -379l-48 -288h-75l48 288l-97 379h76z" />
    <glyph glyph-name="Z" unicode="Z" horiz-adv-x="409" 
d="M434 667l-9 -52l-336 -549h263l-11 -66h-346l11 66l332 537h-234l11 64h319z" />
    <glyph glyph-name="bracketleft" unicode="[" horiz-adv-x="256" 
d="M138 667h137l-8 -48h-68l-124 -738h69l-8 -48h-138z" />
    <glyph glyph-name="backslash" unicode="\" horiz-adv-x="341" 
d="M145 667l164 -834h-51l-164 834h51z" />
    <glyph glyph-name="bracketright" unicode="]" horiz-adv-x="256" 
d="M118 -167h-138l8 48h68l124 738h-68l8 48h137z" />
    <glyph glyph-name="asciicircum" unicode="^" 
d="M445 300h-68l-148 292l-148 -292h-68l187 367h59z" />
    <glyph glyph-name="underscore" unicode="_" horiz-adv-x="500" 
d="M0 -125v50h500v-50h-500z" />
    <glyph glyph-name="quoteleft" unicode="&#x2018;" horiz-adv-x="204" 
d="M175 452h-86l17 100l75 121h38l-60 -121h32z" />
    <glyph glyph-name="a" unicode="a" horiz-adv-x="409" 
d="M357 309l-30 -175c-14 -83 -16 -101 -13 -134h-68c1 23 1 28 7 67c-37 -56 -79 -76 -123 -76c-42 0 -107 19 -107 119c0 85 46 196 212 196c21 0 39 -2 55 -4c3 15 11 51 11 76c0 63 -50 67 -70 67c-63 0 -86 -52 -100 -84l-57 27c16 35 53 114 159 114
c67 0 132 -33 132 -114c0 -29 -3 -50 -8 -79zM89 119c0 -49 24 -71 59 -71c89 0 121 125 132 197c-15 2 -33 4 -52 4c-86 0 -139 -46 -139 -130z" />
    <glyph glyph-name="b" unicode="b" horiz-adv-x="392" 
d="M189 667l-40 -243c19 30 50 78 109 78c64 0 109 -54 109 -167c0 -74 -34 -344 -186 -344c-75 0 -92 57 -101 86l-34 -77h-34l111 667h66zM245 445c-52 0 -80 -47 -98 -95c-26 -69 -40 -173 -40 -202c0 -50 20 -100 67 -100c91 0 123 214 123 303c0 22 0 94 -52 94z" />
    <glyph glyph-name="c" unicode="c" horiz-adv-x="358" 
d="M341 331l-62 -11c-3 69 -5 125 -63 125c-98 0 -120 -220 -120 -285c0 -32 0 -112 61 -112c56 0 81 72 93 119l60 -19c-9 -41 -38 -157 -157 -157c-118 0 -127 121 -127 179c0 101 39 332 193 332c124 0 122 -132 122 -171z" />
    <glyph glyph-name="d" unicode="d" horiz-adv-x="392" 
d="M408 667l-112 -667h-60l10 60c-26 -38 -54 -69 -110 -69c-104 0 -113 114 -113 163c0 118 45 348 190 348c60 0 78 -43 90 -69l39 234h66zM215 445c-101 0 -122 -249 -122 -293c0 -27 0 -104 63 -104c88 0 124 170 124 291c0 25 0 106 -65 106z" />
    <glyph glyph-name="e" unicode="e" horiz-adv-x="375" 
d="M345 238h-244c-2 -16 -3 -33 -3 -58c0 -31 0 -132 77 -132c55 0 83 59 100 99l50 -28c-31 -77 -78 -128 -155 -128c-143 0 -143 161 -143 191c0 141 57 320 198 320c127 0 127 -134 127 -166c0 -31 -4 -67 -7 -98zM111 295h169c3 26 3 37 3 53c0 26 -1 97 -64 97
c-79 0 -101 -112 -108 -150z" />
    <glyph glyph-name="f" unicode="f" horiz-adv-x="222" 
d="M182 493h78l-9 -57h-78l-74 -436h-68l74 436h-63l9 57h63c20 112 45 183 152 183c16 0 25 -1 38 -3l-10 -60c-17 2 -23 2 -27 2c-64 0 -71 -41 -85 -122z" />
    <glyph glyph-name="g" unicode="g" horiz-adv-x="375" 
d="M407 591l-11 -62c-5 1 -11 2 -21 2c-33 0 -52 -9 -67 -70c36 -40 36 -91 36 -107c0 -108 -63 -190 -149 -190c-38 0 -58 14 -72 22c-28 -19 -34 -46 -34 -58c0 -45 32 -45 89 -45c70 0 145 -23 145 -119c0 -85 -66 -150 -188 -150c-59 0 -158 14 -158 113
c0 69 47 95 73 110c-11 12 -26 29 -26 66c0 67 51 97 75 111c-9 12 -34 44 -34 104c0 81 47 184 158 184c20 0 30 -3 51 -9c13 44 31 103 101 103c16 0 23 -2 32 -5zM135 316c0 -37 9 -95 60 -95c23 0 41 10 53 28c20 31 25 68 25 104c0 69 -22 92 -60 92
c-43 0 -78 -54 -78 -129zM42 -59c0 -62 55 -74 101 -74c96 0 110 62 110 87c0 58 -47 58 -90 58c-48 0 -59 2 -75 6c-12 -6 -46 -23 -46 -77z" />
    <glyph glyph-name="h" unicode="h" horiz-adv-x="392" 
d="M192 667l-41 -249c21 38 47 84 110 84c25 0 54 -6 73 -27c19 -22 24 -54 24 -72c0 -35 -3 -51 -15 -125l-47 -278h-65l50 300c5 29 10 67 10 87c0 23 -4 58 -47 58c-85 0 -115 -158 -128 -235l-35 -210h-69l112 667h68z" />
    <glyph glyph-name="i" unicode="i" horiz-adv-x="170" 
d="M160 493l-83 -493h-68l83 493h68zM189 667l-14 -83h-68l14 83h68z" />
    <glyph glyph-name="j" unicode="j" horiz-adv-x="170" 
d="M160 493l-77 -460c-23 -135 -34 -205 -135 -205c-19 0 -38 3 -55 5l10 59c11 -2 22 -3 37 -3c51 0 53 13 75 144l77 460h68zM189 667l-14 -83h-68l14 83h68z" />
    <glyph glyph-name="k" unicode="k" horiz-adv-x="341" 
d="M192 667l-66 -391l169 217h79l-148 -184l79 -309h-73l-62 255l-59 -74l-31 -181h-68l112 667h68z" />
    <glyph glyph-name="l" unicode="l" horiz-adv-x="171" 
d="M189 667l-112 -667h-68l112 667h68z" />
    <glyph glyph-name="m" unicode="m" horiz-adv-x="596" 
d="M92 493h66l-14 -83c21 38 51 92 124 92c71 0 80 -57 84 -94c30 56 61 94 122 94c26 0 56 -7 74 -31c17 -24 20 -54 20 -70c0 -26 -7 -66 -16 -122l-47 -279h-66l49 289c9 53 12 75 12 98c0 12 0 58 -45 58c-47 0 -101 -65 -126 -216l-38 -229h-66l41 245
c5 31 17 104 17 136c0 26 -5 64 -43 64c-33 0 -59 -36 -73 -58c-33 -54 -44 -117 -55 -179l-35 -208h-68z" />
    <glyph glyph-name="n" unicode="n" horiz-adv-x="392" 
d="M14 0l83 493h65l-13 -81c31 54 61 90 119 90c24 0 48 -6 63 -25c23 -27 26 -62 26 -79c0 -37 -11 -103 -16 -130l-44 -268h-66l47 279c10 60 12 86 12 108c0 11 0 58 -43 58c-35 0 -62 -37 -74 -57c-35 -54 -50 -142 -55 -176l-36 -212h-68z" />
    <glyph glyph-name="o" unicode="o" horiz-adv-x="375" 
d="M24 162c0 66 22 340 202 340c121 0 121 -149 121 -177c0 -157 -60 -334 -197 -334c-103 0 -126 99 -126 171zM94 150c0 -87 37 -102 61 -102c92 0 122 194 122 295c0 11 0 46 -9 67c-10 23 -27 35 -46 35c-44 0 -72 -32 -90 -81c-31 -82 -38 -187 -38 -214z" />
    <glyph glyph-name="p" unicode="p" horiz-adv-x="392" 
d="M93 493h61l-12 -70c14 21 52 79 119 79c66 0 109 -57 109 -159c0 -47 -27 -352 -191 -352c-65 0 -81 43 -92 72l-38 -230h-66zM242 445c-102 0 -132 -244 -132 -296c0 -61 24 -101 65 -101c101 0 125 274 125 308c0 53 -15 89 -58 89z" />
    <glyph glyph-name="q" unicode="q" horiz-adv-x="392" 
d="M378 493l-110 -660h-66l36 218c-9 -16 -35 -60 -97 -60c-111 0 -120 121 -120 159c0 96 48 352 195 352c73 0 87 -55 93 -83l30 74h39zM217 445c-104 0 -125 -251 -125 -300c0 -29 2 -97 62 -97c56 0 78 52 92 93c33 95 38 201 38 209c0 66 -29 95 -67 95z" />
    <glyph glyph-name="r" unicode="r" horiz-adv-x="256" 
d="M95 493h65l-16 -99c16 34 48 102 118 102c9 0 16 -1 22 -2l-12 -73c-9 1 -14 2 -20 2c-99 0 -132 -185 -139 -229l-33 -194h-68z" />
    <glyph glyph-name="s" unicode="s" horiz-adv-x="341" 
d="M324 390l-55 -25c-18 50 -32 80 -79 80c-45 0 -67 -41 -67 -74c0 -47 30 -63 85 -93c42 -22 90 -58 90 -137c0 -69 -39 -150 -147 -150c-112 0 -136 98 -144 132l59 22c6 -26 22 -97 88 -97c37 0 74 24 74 82c0 49 -25 69 -72 92c-44 23 -98 51 -98 136s62 144 139 144
c88 0 113 -71 127 -112z" />
    <glyph glyph-name="t" unicode="t" horiz-adv-x="239" 
d="M201 622l-22 -129h81l-10 -57h-80l-49 -294c-3 -12 -5 -30 -5 -44c0 -11 0 -42 46 -42c15 0 29 3 45 6l-10 -62c-21 -5 -37 -9 -59 -9c-61 0 -92 39 -92 92c0 21 2 35 12 91l44 262h-57l10 57h56l21 122z" />
    <glyph glyph-name="u" unicode="u" horiz-adv-x="392" 
d="M376 493l-82 -493h-66l13 77c-36 -74 -79 -86 -113 -86c-60 0 -95 31 -95 101c0 38 7 77 18 147l43 254h65l-45 -275c-11 -62 -14 -92 -14 -117c0 -12 0 -53 44 -53c67 0 108 110 126 218l38 227h68z" />
    <glyph glyph-name="v" unicode="v" horiz-adv-x="324" 
d="M113 493l28 -392l146 392h67l-199 -493h-66l-44 493h68z" />
    <glyph glyph-name="w" unicode="w" horiz-adv-x="494" 
d="M514 493l-175 -493h-55l-20 380l-126 -380h-58l-25 493h66l13 -355l121 355h61l16 -355l121 355h61z" />
    <glyph glyph-name="x" unicode="x" horiz-adv-x="324" 
d="M333 493l-139 -228l84 -265h-72l-58 188l-108 -188h-71l157 258l-74 235h71l49 -158l90 158h71z" />
    <glyph glyph-name="y" unicode="y" horiz-adv-x="324" 
d="M355 493l-224 -526c-40 -92 -69 -142 -136 -142c-21 0 -29 3 -40 8l10 59c10 -1 20 -2 30 -2c45 0 58 32 100 136l-45 467h68l31 -350l140 350h66z" />
    <glyph glyph-name="z" unicode="z" horiz-adv-x="307" 
d="M326 493l-7 -42l-255 -394h190l-10 -57h-263v42l259 394h-186l9 57h263z" />
    <glyph glyph-name="braceleft" unicode="{" horiz-adv-x="256" 
d="M280 667l-9 -55c-56 1 -59 -14 -72 -91l-26 -155c-15 -88 -37 -102 -77 -118c23 -9 45 -18 45 -61c0 -14 -1 -19 -8 -61l-19 -109c-10 -58 -11 -68 -11 -90c0 -41 17 -42 46 -44l-9 -50c-46 3 -60 4 -80 19c-23 18 -25 49 -25 59c0 21 9 75 14 106l20 115c2 14 4 29 4 46
c0 28 -10 39 -33 43l10 61c23 2 45 7 58 84l26 155c10 61 18 110 62 133c22 12 36 13 84 13z" />
    <glyph glyph-name="bar" unicode="|" horiz-adv-x="500" 
d="M230 750h68v-1000h-68v1000z" />
    <glyph glyph-name="braceright" unicode="}" horiz-adv-x="256" 
d="M-25 -167l10 55c55 -1 59 15 72 91l26 155c15 87 37 102 77 117c-23 10 -45 19 -45 62c0 15 1 19 8 61l18 109c10 59 11 67 11 89c0 42 -17 43 -46 45l9 50c39 -1 47 -2 65 -10c36 -16 40 -52 40 -68c0 -20 -7 -65 -14 -106l-19 -115c-2 -15 -4 -29 -4 -45
c0 -33 14 -41 33 -45l-10 -60c-22 -2 -45 -6 -58 -84l-26 -155c-10 -62 -18 -110 -63 -133c-22 -11 -34 -12 -84 -13z" />
    <glyph glyph-name="asciitilde" unicode="~" 
d="M54 268l-40 25c23 48 55 106 125 106c14 0 35 0 102 -33c46 -21 62 -29 88 -29c43 0 59 29 77 60l43 -26c-15 -31 -49 -99 -128 -99c-30 0 -66 16 -125 45c-19 8 -42 17 -61 17c-44 0 -68 -43 -81 -66z" />
    <glyph glyph-name="exclamdown" unicode="&#xa1;" horiz-adv-x="290" 
d="M119 -174h-91l105 497h48zM212 393h-87l17 100h86z" />
    <glyph glyph-name="cent" unicode="&#xa2;" 
d="M282 646h38l-15 -93c58 -16 82 -52 88 -142l-56 -17c-5 61 -12 88 -42 101l-58 -345c42 9 61 53 77 98l48 -23c-37 -106 -91 -124 -134 -128l-19 -114h-39l20 114c-21 7 -55 17 -79 72c-16 36 -19 74 -19 106c0 100 46 267 174 278zM200 156l57 342
c-14 -6 -35 -15 -57 -53c-27 -48 -39 -127 -39 -177c0 -81 23 -99 39 -112z" />
    <glyph glyph-name="sterling" unicode="&#xa3;" 
d="M324 376l-9 -57h-86c-3 -167 -63 -220 -113 -253h103c90 0 102 21 135 79l46 -37c-46 -104 -95 -108 -185 -108h-238l11 68c39 0 84 0 125 64c21 34 38 91 41 187h-75l9 57h68c0 48 7 125 21 173c35 122 121 127 143 127c61 0 94 -41 107 -92l-52 -39
c-6 27 -15 66 -59 66c-70 0 -82 -112 -84 -235h92z" />
    <glyph glyph-name="fraction" unicode="&#x2044;" horiz-adv-x="85" 
d="M238 667h51l-413 -667h-51z" />
    <glyph glyph-name="yen" unicode="&#xa5;" 
d="M259 241l-40 -241h-68l40 241h-129l7 47h130l2 15l-12 47h-109l8 47h89l-70 270h73l72 -283l153 283h69l-152 -270h100l-8 -47h-118l-27 -47l-2 -15h137l-7 -47h-138z" />
    <glyph glyph-name="florin" unicode="&#x192;" 
d="M359 449l-10 -57h-79l-103 -340c-26 -85 -60 -200 -171 -200c-13 0 -29 1 -45 2l20 67c74 -8 91 13 127 132l103 339h-58l9 57l66 -1c47 149 74 228 179 228c22 0 36 -3 49 -6l-21 -66c-7 2 -16 4 -28 4c-53 0 -71 -36 -110 -159h72z" />
    <glyph glyph-name="section" unicode="&#xa7;" 
d="M420 545l-66 -10c-5 23 -18 84 -76 84c-40 0 -79 -28 -79 -88c0 -62 35 -83 81 -110c50 -30 102 -66 102 -140c0 -78 -54 -122 -88 -150c39 -34 55 -79 55 -127c0 -159 -123 -185 -174 -185c-52 0 -97 23 -125 56c-27 32 -34 64 -40 89l67 13c4 -22 20 -97 103 -97
c71 0 91 68 91 110c0 69 -34 87 -89 116c-99 51 -106 104 -106 140c0 84 48 126 94 157c-11 13 -41 50 -41 115c0 86 56 158 148 158c112 0 132 -85 143 -131zM146 269c0 -50 30 -85 106 -110c56 39 63 73 63 99c0 58 -31 75 -102 114c-21 -13 -67 -41 -67 -103z" />
    <glyph glyph-name="currency" unicode="&#xa4;" 
d="M324 461l60 60l41 -41l-60 -60c8 -13 26 -41 26 -87s-18 -74 -27 -88l60 -59l-42 -41l-59 59c-18 -11 -43 -27 -88 -27c-44 0 -74 18 -87 26l-59 -59l-41 41l59 59c-13 20 -28 43 -28 89s19 75 27 88l-60 60l42 41l60 -60c13 9 41 27 87 27c47 0 68 -14 89 -28zM235 240
c50 0 93 40 93 93c0 51 -41 93 -93 93s-93 -42 -93 -93c0 -52 42 -93 93 -93z" />
    <glyph glyph-name="quotesingle" unicode="'" horiz-adv-x="204" 
d="M211 667l-59 -254h-49l35 254h73z" />
    <glyph glyph-name="quotedblleft" unicode="&#x201c;" horiz-adv-x="324" 
d="M294 452h-85l16 100l76 121h38l-61 -121h33zM175 452h-86l17 100l75 121h38l-60 -121h32z" />
    <glyph glyph-name="guillemotleft" unicode="&#xab;" horiz-adv-x="290" 
d="M228 110h-41l-52 132l87 135h49l-63 -135zM126 110h-41l-52 132l87 135h48l-62 -135z" />
    <glyph glyph-name="guilsinglleft" unicode="&#x2039;" horiz-adv-x="187" 
d="M126 110h-41l-52 132l87 135h48l-62 -135z" />
    <glyph glyph-name="guilsinglright" unicode="&#x203a;" horiz-adv-x="187" 
d="M59 377h41l52 -132l-87 -135h-48l62 135z" />
    <glyph glyph-name="endash" unicode="&#x2013;" horiz-adv-x="358" 
d="M42 279h283l-9 -57h-283z" />
    <glyph glyph-name="dagger" unicode="&#x2020;" 
d="M258 667h66l-33 -196h121l-10 -61h-121l-96 -577h-66l96 577h-121l11 61h121z" />
    <glyph glyph-name="daggerdbl" unicode="&#x2021;" 
d="M258 667h66l-33 -196h121l-10 -61h-121l-53 -320h121l-11 -61h-121l-32 -196h-66l33 196h-121l10 61h121l53 320h-121l11 61h121z" />
    <glyph glyph-name="periodcentered" unicode="&#xb7;" horiz-adv-x="222" 
d="M78 388h86l-18 -109h-86z" />
    <glyph glyph-name="paragraph" unicode="&#xb6;" horiz-adv-x="477" 
d="M410 667v-834h-52v777h-46v-777h-52v464c-36 0 -87 0 -130 31c-44 32 -67 93 -67 153c0 73 32 130 71 157c41 29 109 29 132 29h144z" />
    <glyph glyph-name="bullet" unicode="&#x2022;" horiz-adv-x="93" 
d="M25 401h93l-19 -116h-93z" />
    <glyph glyph-name="quotesinglbase" unicode="&#x201a;" horiz-adv-x="205" 
d="M38 100h86l-17 -100l-75 -120h-38l60 120h-32z" />
    <glyph glyph-name="quotedblbase" unicode="&#x201e;" horiz-adv-x="324" 
d="M39 100h85l-17 -100l-75 -120h-38l60 120h-32zM158 100h85l-17 -100l-75 -120h-38l60 120h-32z" />
    <glyph glyph-name="quotedblright" unicode="&#x201d;" horiz-adv-x="324" 
d="M117 567l16 100h85l-16 -100l-75 -120h-38l60 120h-32zM236 567l17 100h85l-17 -100l-75 -120h-38l60 120h-32z" />
    <glyph glyph-name="guillemotright" unicode="&#xbb;" horiz-adv-x="290" 
d="M59 377h41l52 -132l-86 -135h-49l62 135zM161 377h41l53 -132l-87 -135h-49l62 135z" />
    <glyph glyph-name="ellipsis" unicode="&#x2026;" horiz-adv-x="665" 
d="M44 109h86l-18 -109h-86zM266 109h86l-19 -109h-86zM487 109h86l-18 -109h-86z" />
    <glyph glyph-name="perthousand" unicode="&#x2030;" horiz-adv-x="869" 
d="M220 676c46 0 96 -29 96 -126c0 -18 -6 -220 -142 -220c-66 0 -95 56 -95 133c0 20 4 213 141 213zM213 625c-62 0 -69 -124 -69 -184c0 -14 0 -60 36 -60c22 0 38 14 48 34c17 34 23 97 23 137c0 37 -3 73 -38 73zM450 336c43 0 95 -27 95 -126c0 -17 -5 -219 -141 -219
c-36 0 -58 18 -69 34c-18 25 -26 57 -26 99c0 16 3 212 141 212zM444 285c-62 0 -69 -123 -69 -182c0 -16 0 -61 36 -61c23 0 39 15 48 34c17 34 23 96 23 137c0 33 -1 72 -38 72zM723 336c43 0 95 -27 95 -126c0 -17 -5 -219 -141 -219c-36 0 -58 18 -69 34
c-18 25 -26 57 -26 99c0 14 2 212 141 212zM717 285c-62 0 -69 -123 -69 -182c0 -16 0 -61 36 -61c23 0 39 15 48 34c16 33 23 94 23 136c0 34 -2 73 -38 73zM493 667h51l-412 -667h-51z" />
    <glyph glyph-name="questiondown" unicode="&#xbf;" horiz-adv-x="392" 
d="M254 16l66 -16c-30 -171 -151 -183 -191 -183c-85 0 -138 52 -138 147c0 107 58 163 123 218c55 47 66 68 72 149h71c-12 -95 -22 -133 -95 -195c-52 -44 -94 -80 -94 -168c0 -60 29 -86 72 -86c14 0 58 4 88 52c16 25 21 57 26 82zM269 393h-86l17 100h86z" />
    <glyph glyph-name="grave" unicode="`" horiz-adv-x="460" 
d="M172 638l36 60l132 -106l-24 -40z" />
    <glyph glyph-name="acute" unicode="&#xb4;" horiz-adv-x="460" 
d="M420 638l-144 -86l-25 40l133 106z" />
    <glyph glyph-name="circumflex" unicode="&#x2c6;" horiz-adv-x="460" 
d="M149 567l148 116l120 -116l-59 -11l-71 60l-83 -60z" />
    <glyph glyph-name="tilde" unicode="&#x2dc;" horiz-adv-x="460" 
d="M385 645l20 -38c-25 -44 -54 -53 -71 -53c-21 0 -36 11 -56 27c-18 12 -28 14 -36 14c-27 0 -43 -27 -51 -40l-20 33c10 24 27 66 75 66c21 0 35 -7 66 -27c19 -12 22 -14 32 -14c16 0 27 12 41 32z" />
    <glyph glyph-name="macron" unicode="&#xaf;" horiz-adv-x="460" 
d="M181 624h223l-10 -57h-222z" />
    <glyph glyph-name="breve" unicode="&#x2d8;" horiz-adv-x="460" 
d="M183 671h39c5 -45 52 -49 72 -50c40 0 68 12 80 50h43c-6 -54 -44 -106 -125 -106c-106 0 -108 84 -109 106z" />
    <glyph glyph-name="dotaccent" unicode="&#x2d9;" horiz-adv-x="460" 
d="M291 565c-20 0 -49 15 -49 48c0 30 24 49 48 49c26 0 49 -20 49 -49c0 -31 -28 -48 -48 -48z" />
    <glyph glyph-name="dieresis" unicode="&#xa8;" horiz-adv-x="460" 
d="M221 565c-22 0 -49 17 -49 48c0 29 24 49 49 49c24 0 48 -20 48 -49c0 -31 -28 -48 -48 -48zM361 565c-21 0 -49 16 -49 48c0 28 23 49 48 49s49 -20 49 -49c0 -31 -28 -48 -48 -48z" />
    <glyph glyph-name="ring" unicode="&#x2da;" horiz-adv-x="460" 
d="M295 560c-33 0 -80 27 -80 81c0 49 39 82 81 82c40 0 80 -33 80 -82c0 -54 -46 -81 -81 -81zM296 602c16 0 39 13 39 39c0 23 -18 40 -39 40s-40 -16 -40 -40c0 -26 22 -39 40 -39z" />
    <glyph glyph-name="cedilla" unicode="&#xb8;" horiz-adv-x="460" 
d="M196 0h34l-19 -48c19 -2 67 -5 67 -60c0 -31 -23 -78 -85 -78c-39 0 -64 18 -77 28l16 31c16 -9 35 -20 55 -20c27 0 39 21 39 38c0 36 -39 36 -64 32z" />
    <glyph glyph-name="hungarumlaut" unicode="&#x2dd;" horiz-adv-x="460" 
d="M279 688l43 -54l-113 -81l-30 33zM404 688l43 -54l-113 -81l-30 33z" />
    <glyph glyph-name="ogonek" unicode="&#x2db;" horiz-adv-x="460" 
d="M384 -123l4 -33c-10 -4 -34 -15 -68 -15c-57 0 -82 36 -82 69c0 52 55 88 75 102h45c-28 -21 -58 -51 -58 -89c0 -23 16 -40 49 -40c12 0 23 3 35 6z" />
    <glyph glyph-name="caron" unicode="&#x2c7;" horiz-adv-x="460" 
d="M434 672l-148 -116l-119 116l59 11l71 -60l82 60z" />
    <glyph glyph-name="emdash" unicode="&#x2014;" horiz-adv-x="562" 
d="M38 279h495l-9 -57h-495z" />
    <glyph glyph-name="AE" unicode="&#xc6;" horiz-adv-x="647" 
d="M325 667h350l-11 -64h-227l-37 -225h191l-10 -64h-192l-42 -248h244l-11 -66h-314l38 230h-144l-124 -230h-74zM315 294l55 329l-176 -329h121z" />
    <glyph glyph-name="ordfeminine" unicode="&#xaa;" horiz-adv-x="426" 
d="M356 333h-56c0 16 0 21 2 35c-18 -20 -37 -41 -80 -41c-50 0 -79 31 -79 83c0 13 0 133 151 133c15 0 23 -1 32 -3c1 8 6 31 6 45c0 22 -11 38 -44 38c-39 0 -51 -28 -63 -57l-51 23c15 31 41 84 118 84c45 0 96 -20 96 -81c0 -18 -2 -28 -5 -52l-19 -113
c-11 -65 -11 -72 -8 -94zM204 419c0 -27 12 -42 34 -42c54 0 74 78 81 116c-8 1 -19 2 -29 2c-43 0 -86 -16 -86 -76z" />
    <glyph glyph-name="Lslash" unicode="&#x141;" horiz-adv-x="358" 
d="M209 667l-49 -293l115 91l-12 -75l-115 -90l-39 -234h222l-11 -66h-297l43 260l-63 -53l13 75l63 53l55 332h75z" />
    <glyph glyph-name="Oslash" unicode="&#xd8;" horiz-adv-x="494" 
d="M401 649l34 65h58l-55 -105c12 -20 35 -61 35 -162c0 -104 -19 -207 -59 -303c-25 -58 -79 -153 -198 -153c-47 0 -72 15 -91 26l-33 -64h-58l54 103c-14 24 -36 62 -36 174c0 220 90 446 252 446c22 0 62 -5 97 -27zM136 134l227 455c-7 7 -22 23 -61 23
c-60 0 -102 -39 -140 -154c-30 -94 -36 -212 -36 -243c0 -40 5 -60 10 -81zM391 532l-227 -457c18 -20 45 -21 57 -21c66 0 102 62 121 112c39 103 56 233 56 303c0 31 -3 45 -7 63z" />
    <glyph glyph-name="OE" unicode="&#x152;" horiz-adv-x="716" 
d="M457 314l-41 -248h244l-11 -66h-319l9 55c-39 -41 -76 -64 -128 -64c-46 0 -90 20 -113 49c-25 31 -46 78 -46 188c0 183 67 448 257 448c81 0 110 -51 122 -72l10 63h301l-10 -64h-226l-38 -225h191l-11 -64h-191zM355 155l61 362c-7 27 -23 94 -108 94
c-61 0 -98 -39 -126 -112c-27 -71 -53 -176 -53 -274c0 -62 9 -103 26 -133c22 -36 59 -36 73 -36c81 0 113 69 127 99z" />
    <glyph glyph-name="ordmasculine" unicode="&#xba;" 
d="M290 673c86 0 88 -97 88 -123c0 -100 -39 -223 -139 -223c-43 0 -63 23 -70 34c-12 18 -22 41 -22 84c0 15 3 228 143 228zM285 624c-13 0 -37 -2 -54 -49c-20 -54 -24 -123 -24 -137c0 -11 0 -62 37 -62c59 0 74 133 74 185c0 20 0 63 -33 63z" />
    <glyph glyph-name="ae" unicode="&#xe6;" horiz-adv-x="630" 
d="M590 238h-247c-2 -16 -4 -37 -4 -59c0 -39 3 -131 79 -131c46 0 75 32 102 99l50 -28c-13 -32 -51 -128 -156 -128c-102 0 -122 78 -129 107c-17 -35 -51 -108 -145 -108c-85 0 -124 66 -124 125c0 33 12 102 63 144c55 46 127 47 152 47c23 0 40 -2 57 -4
c3 21 8 46 8 66c0 57 -37 77 -73 77c-62 0 -86 -55 -99 -85l-57 28c17 36 53 114 160 114c84 0 104 -42 117 -68c15 23 47 68 121 68c130 0 130 -131 130 -173c0 -34 -3 -66 -5 -91zM278 245c-16 2 -34 4 -53 4c-85 0 -138 -45 -138 -130c0 -51 25 -71 59 -71
c85 0 119 117 132 197zM353 295h173c5 88 -1 150 -65 150c-79 0 -100 -107 -108 -150z" />
    <glyph glyph-name="dotlessi" unicode="&#x131;" horiz-adv-x="170" 
d="M160 493l-83 -493h-68l83 493h68z" />
    <glyph glyph-name="lslash" unicode="&#x142;" horiz-adv-x="204" 
d="M206 667l-45 -269l64 55l-11 -69l-65 -55l-55 -329h-68l50 296l-65 -55l12 70l64 55l51 301h68z" />
    <glyph glyph-name="oslash" unicode="&#xf8;" horiz-adv-x="375" 
d="M377 537l-49 -91c20 -35 25 -85 25 -126c0 -116 -43 -329 -199 -329c-34 0 -49 9 -65 17l-30 -55h-52l48 89c-11 17 -29 54 -29 121c0 94 34 339 199 339c41 0 60 -13 71 -19l29 54h52zM97 107l166 325c-8 8 -16 15 -38 15c-55 0 -82 -55 -93 -82
c-24 -60 -38 -166 -38 -223c0 -10 1 -18 3 -35zM283 375l-162 -316c7 -6 16 -13 37 -13c111 0 127 247 127 297c0 12 0 18 -2 32z" />
    <glyph glyph-name="oe" unicode="&#x153;" horiz-adv-x="630" 
d="M593 238h-245c-4 -28 -5 -34 -5 -59c0 -37 2 -131 79 -131c46 0 74 32 101 99l50 -28c-14 -35 -50 -128 -158 -128c-84 0 -113 60 -123 81c-19 -27 -57 -81 -137 -81c-60 0 -88 34 -98 49c-18 27 -30 60 -30 122c0 116 44 340 197 340c82 0 103 -69 110 -94
c15 28 50 94 137 94c127 0 127 -135 127 -173c0 -31 -3 -65 -5 -91zM226 445c-31 0 -66 -13 -91 -81c-31 -83 -38 -188 -38 -214c0 -19 0 -102 63 -102c44 0 65 36 75 54c26 49 49 138 49 241c0 27 0 102 -58 102zM356 295h173c5 90 -2 150 -65 150
c-79 0 -100 -108 -108 -150z" />
    <glyph glyph-name="germandbls" unicode="&#xdf;" 
d="M49 404l10 57h47c21 101 51 246 184 246c70 0 121 -51 121 -124c0 -62 -40 -150 -169 -159c0 -20 5 -31 40 -48c73 -38 117 -86 117 -181c0 -119 -71 -204 -179 -204c-45 0 -70 15 -86 25l18 60c15 -10 32 -20 66 -20c52 0 111 32 111 131c0 73 -37 100 -80 127
c-41 26 -59 44 -59 76c0 34 16 57 27 72c26 4 129 20 129 114c0 14 -3 48 -24 64c-10 8 -23 10 -36 10c-67 0 -92 -74 -121 -246l-72 -431h-68l72 431h-48z" />
    <glyph glyph-name="logicalnot" unicode="&#xac;" 
d="M346 215v146h-287v61h352v-207h-65z" />
    <glyph glyph-name="mu" unicode="&#xb5;" horiz-adv-x="392" 
d="M49 -167h-66l111 660h66l-46 -275c-11 -61 -14 -92 -14 -117c0 -12 0 -53 44 -53c67 0 108 110 127 217l38 228h68l-83 -493h-66l13 77c-22 -45 -56 -86 -106 -86c-46 0 -49 26 -52 44z" />
    <glyph glyph-name="trademark" unicode="&#x2122;" horiz-adv-x="613" 
d="M151 287v331h-74v49h209v-49h-76v-331h-59zM307 287v380h75l71 -280l72 280h74v-380h-57l3 283l-73 -283h-43l-72 284l3 -284h-53z" />
    <glyph glyph-name="Eth" unicode="&#xd0;" horiz-adv-x="477" 
d="M134 667h89c77 0 122 -6 162 -41c67 -61 68 -160 68 -194c0 -41 -5 -240 -114 -359c-59 -65 -132 -73 -213 -73h-103l53 321h-54l9 55h55zM233 603h-34l-38 -227h109l-9 -55h-109l-43 -255h26c35 0 121 0 174 85c43 70 67 187 67 272c0 67 -14 103 -36 134
c-25 34 -57 46 -107 46z" />
    <glyph glyph-name="onehalf" unicode="&#xbd;" horiz-adv-x="664" 
d="M250 673l-61 -364h69l-8 -47h-195l8 47h69l46 273c-32 -21 -56 -26 -80 -30l9 53c53 8 76 34 96 68h47zM527 667h51l-412 -667h-51zM596 53l-8 -53h-219l9 54c182 131 193 202 193 244c0 10 0 63 -47 63c-48 0 -63 -71 -67 -93l-49 18c8 32 32 124 121 124
c66 0 101 -47 101 -110c0 -104 -83 -171 -184 -247h150z" />
    <glyph glyph-name="plusminus" unicode="&#xb1;" 
d="M268 364h143v-61h-143v-145h-65v145h-144v61h144v145h65v-145zM411 46h-352v61h352v-61z" />
    <glyph glyph-name="Thorn" unicode="&#xde;" horiz-adv-x="426" 
d="M135 667h75l-19 -114h26c89 0 120 -19 140 -35c26 -22 55 -66 55 -138s-27 -138 -67 -174c-54 -49 -135 -49 -164 -49h-56l-27 -157h-75zM214 490h-34l-45 -269h49c25 0 82 1 114 39c23 27 37 70 37 120c0 108 -67 110 -121 110z" />
    <glyph glyph-name="onequarter" unicode="&#xbc;" horiz-adv-x="664" 
d="M616 410l-45 -267h48l-8 -49h-48l-16 -94h-53l16 94h-138l8 45l185 271h51zM550 667h51l-412 -667h-51zM432 143h88l30 182zM250 673l-61 -364h69l-8 -47h-195l8 47h69l46 274c-31 -22 -55 -27 -79 -31l8 53c53 8 76 34 96 68h47z" />
    <glyph glyph-name="divide" unicode="&#xf7;" 
d="M411 303h-351v61h351v-61zM277 418h-83v93h83v-93zM277 156h-83v93h83v-93z" />
    <glyph glyph-name="brokenbar" unicode="&#xa6;" horiz-adv-x="500" 
d="M230 675h68v-350h-68v350zM230 175h68v-350h-68v350z" />
    <glyph glyph-name="degree" unicode="&#xb0;" 
d="M273 679c68 0 125 -56 125 -125c0 -72 -60 -125 -125 -125c-69 0 -126 55 -126 125s58 125 126 125zM273 623h-1c-34 0 -60 -31 -60 -69s26 -69 60 -69c35 0 61 31 61 69c0 39 -27 69 -60 69z" />
    <glyph glyph-name="thorn" unicode="&#xfe;" horiz-adv-x="392" 
d="M122 667h66l-39 -234c39 57 85 69 112 69c66 0 109 -57 109 -159c0 -48 -27 -352 -191 -352c-66 0 -81 43 -92 74l-38 -232h-66zM242 445c-101 0 -133 -239 -133 -305c0 -72 38 -92 65 -92c44 0 73 45 93 114c28 90 33 176 33 194c0 53 -15 89 -58 89z" />
    <glyph glyph-name="threequarters" unicode="&#xbe;" horiz-adv-x="664" 
d="M616 410l-45 -267h48l-8 -49h-48l-16 -94h-53l16 94h-138l7 45l186 271h51zM550 667h51l-412 -667h-51zM431 143h88l31 181zM131 448l9 50c47 -1 64 -1 80 12c19 16 24 46 24 63s-3 53 -44 53c-40 0 -52 -30 -64 -60l-43 23c7 19 31 84 111 84c65 0 95 -42 95 -98
c0 -71 -43 -93 -64 -104c16 -12 41 -30 41 -87c0 -63 -40 -127 -121 -127c-44 0 -98 20 -110 104l50 16c5 -26 13 -73 66 -73c61 0 61 66 61 77c0 61 -38 69 -67 69c-8 0 -13 0 -24 -2z" />
    <glyph glyph-name="registered" unicode="&#xae;" horiz-adv-x="460" 
d="M211 580h57c23 0 70 0 70 -59c0 -7 0 -47 -41 -64l22 -101h-40l-19 95h-31l-16 -95h-39zM246 550l-12 -69c41 0 64 0 64 37c0 32 -19 32 -52 32zM257 667c102 0 188 -88 188 -201c0 -112 -86 -199 -188 -199s-189 86 -189 199c0 112 86 201 189 201zM257 631
c-80 0 -149 -71 -149 -165c0 -93 69 -163 149 -163c76 0 148 66 148 163c0 95 -70 165 -148 165z" />
    <glyph glyph-name="minus" unicode="&#x2212;" 
d="M411 303h-352v61h352v-61z" />
    <glyph glyph-name="eth" unicode="&#xf0;" horiz-adv-x="375" 
d="M222 445c-20 0 -62 -1 -92 -81c-31 -83 -38 -188 -38 -214c0 -19 0 -102 63 -102c44 0 65 36 75 54c32 61 49 158 49 240c0 30 0 103 -57 103zM411 655l-109 -49c35 -89 55 -173 55 -262c0 -107 -43 -353 -207 -353c-128 0 -128 143 -128 171c0 24 4 170 69 266
c18 26 62 74 120 74c27 0 40 -7 60 -18c-7 35 -15 66 -25 97l-103 -47l-24 47l108 49c-5 14 -12 31 -20 49l51 23c8 -16 16 -33 22 -48l108 48z" />
    <glyph glyph-name="multiply" unicode="&#xd7;" 
d="M237 378l113 114l44 -44l-114 -113l115 -115l-46 -46l-115 115l-113 -114l-44 44l114 113l-115 115l46 46z" />
    <glyph glyph-name="copyright" unicode="&#xa9;" horiz-adv-x="781" 
d="M536 404l-56 -9c0 44 -1 95 -49 95c-75 0 -94 -162 -94 -213c0 -34 4 -100 54 -100c47 0 65 65 72 90l52 -15c-11 -38 -37 -124 -131 -124c-86 0 -107 77 -107 152c0 138 60 259 158 259c40 0 71 -20 86 -50c16 -30 15 -61 15 -85zM407 -13c-192 0 -349 154 -349 347
c0 191 156 346 349 346c192 0 348 -155 348 -346c0 -193 -157 -347 -348 -347zM407 37c161 0 294 132 294 296s-132 297 -294 297s-295 -133 -295 -296c0 -165 133 -297 295 -297z" />
    <glyph glyph-name="Aacute" unicode="&#xc1;" horiz-adv-x="409" 
d="M314 667l50 -667h-76l-12 195h-157l-72 -195h-72l267 667h72zM145 259h127l-15 299zM418 789l-171 -63l-21 44l161 84z" />
    <glyph glyph-name="Acircumflex" unicode="&#xc2;" horiz-adv-x="409" 
d="M314 667l50 -667h-76l-12 195h-157l-72 -195h-72l267 667h72zM145 259h127l-15 299zM139 724l156 110l125 -110l-62 -13l-75 52l-85 -54z" />
    <glyph glyph-name="Adieresis" unicode="&#xc4;" horiz-adv-x="409" 
d="M314 667l50 -667h-76l-12 195h-157l-72 -195h-72l267 667h72zM145 259h127l-15 299zM229 721c-23 0 -51 18 -51 51c0 29 24 51 51 51s51 -22 51 -51c0 -32 -27 -51 -51 -51zM376 721c-25 0 -51 20 -51 51c0 28 23 51 51 51s51 -23 51 -51c0 -29 -25 -51 -51 -51z" />
    <glyph glyph-name="Agrave" unicode="&#xc0;" horiz-adv-x="409" 
d="M314 667l50 -667h-76l-12 195h-157l-72 -195h-72l267 667h72zM145 259h127l-15 299zM165 785l29 67l164 -79l-19 -45z" />
    <glyph glyph-name="Aring" unicode="&#xc5;" horiz-adv-x="409" 
d="M314 667l50 -667h-76l-12 195h-157l-72 -195h-72l267 667h72zM145 259h127l-15 299zM280 704c-33 0 -84 27 -84 85c0 52 42 86 85 86c42 0 84 -34 84 -86c0 -58 -51 -85 -85 -85zM281 748c17 0 41 14 41 41c0 25 -20 42 -41 42c-22 0 -42 -17 -42 -42
c0 -27 23 -41 42 -41z" />
    <glyph glyph-name="Atilde" unicode="&#xc3;" horiz-adv-x="409" 
d="M314 667l50 -667h-76l-12 195h-157l-72 -195h-72l267 667h72zM145 259h127l-15 299zM367 807l21 -40c-9 -14 -36 -53 -75 -53c-14 0 -19 2 -59 24c-21 11 -30 13 -38 13c-13 0 -32 -7 -54 -40l-21 36c21 36 40 65 79 65c17 0 17 0 65 -23c23 -12 31 -14 40 -14
c17 0 32 19 42 32z" />
    <glyph glyph-name="Ccedilla" unicode="&#xc7;" 
d="M220 -9l-18 -41c20 -1 71 -5 71 -63c0 -35 -25 -83 -89 -83c-41 0 -67 18 -82 29l17 33c20 -11 39 -21 59 -21c28 0 41 22 41 40c0 42 -49 36 -68 34l33 74c-109 18 -132 133 -132 243c0 225 90 440 246 440c43 0 99 -18 129 -81c24 -50 23 -96 22 -133l-73 -13
c0 68 0 162 -83 162c-129 0 -164 -288 -164 -383c0 -53 5 -172 92 -172c80 0 112 115 122 152l67 -21c-14 -50 -31 -98 -71 -141c-45 -49 -89 -52 -119 -55z" />
    <glyph glyph-name="Eacute" unicode="&#xc9;" horiz-adv-x="392" 
d="M435 667l-10 -64h-226l-38 -225h191l-11 -64h-190l-42 -248h244l-11 -66h-319l111 667h301zM453 789l-171 -63l-21 44l161 84z" />
    <glyph glyph-name="Ecircumflex" unicode="&#xca;" horiz-adv-x="392" 
d="M435 667l-10 -64h-226l-38 -225h191l-11 -64h-190l-42 -248h244l-11 -66h-319l111 667h301zM154 724l156 110l125 -110l-62 -13l-75 52l-85 -54z" />
    <glyph glyph-name="Edieresis" unicode="&#xcb;" horiz-adv-x="392" 
d="M435 667l-10 -64h-226l-38 -225h191l-11 -64h-190l-42 -248h244l-11 -66h-319l111 667h301zM229 721c-23 0 -51 18 -51 51c0 29 24 51 51 51s51 -22 51 -51c0 -32 -27 -51 -51 -51zM376 721c-25 0 -51 20 -51 51c0 28 23 51 51 51s51 -23 51 -51c0 -29 -25 -51 -51 -51z
" />
    <glyph glyph-name="Egrave" unicode="&#xc8;" horiz-adv-x="392" 
d="M435 667l-10 -64h-226l-38 -225h191l-11 -64h-190l-42 -248h244l-11 -66h-319l111 667h301zM195 785l29 67l164 -79l-19 -45z" />
    <glyph glyph-name="Iacute" unicode="&#xcd;" horiz-adv-x="205" 
d="M209 667l-111 -667h-75l111 667h75zM333 789l-171 -63l-21 44l161 84z" />
    <glyph glyph-name="Icircumflex" unicode="&#xce;" horiz-adv-x="205" 
d="M209 667l-111 -667h-75l111 667h75zM34 724l156 110l125 -110l-62 -13l-75 52l-85 -54z" />
    <glyph glyph-name="Idieresis" unicode="&#xcf;" horiz-adv-x="205" 
d="M209 667l-111 -667h-75l111 667h75zM114 721c-23 0 -51 18 -51 51c0 29 24 51 51 51s51 -22 51 -51c0 -32 -27 -51 -51 -51zM261 721c-25 0 -51 20 -51 51c0 28 23 51 51 51s51 -23 51 -51c0 -29 -25 -51 -51 -51z" />
    <glyph glyph-name="Igrave" unicode="&#xcc;" horiz-adv-x="205" 
d="M209 667l-111 -667h-75l111 667h75zM105 785l29 67l164 -79l-19 -45z" />
    <glyph glyph-name="Ntilde" unicode="&#xd1;" horiz-adv-x="477" 
d="M482 667l-112 -667h-66l-124 562l-93 -562h-64l111 667h84l114 -514l86 514h64zM442 807l21 -40c-9 -14 -36 -53 -75 -53c-14 0 -19 2 -59 24c-21 11 -30 13 -38 13c-13 0 -32 -7 -54 -40l-21 36c21 36 40 65 79 65c17 0 17 0 65 -23c23 -12 31 -14 40 -14
c17 0 32 19 42 32z" />
    <glyph glyph-name="Oacute" unicode="&#xd3;" horiz-adv-x="494" 
d="M304 676c154 0 169 -143 169 -228c0 -104 -18 -208 -59 -304c-25 -61 -79 -153 -197 -153c-162 0 -165 169 -165 237c0 227 94 448 252 448zM300 611c-53 0 -91 -37 -119 -112c-25 -68 -52 -173 -52 -274c0 -121 32 -169 93 -169c46 0 87 24 118 110
c44 119 56 249 56 298c0 31 0 147 -96 147zM453 789l-171 -63l-21 44l161 84z" />
    <glyph glyph-name="Ocircumflex" unicode="&#xd4;" horiz-adv-x="494" 
d="M304 676c154 0 169 -143 169 -228c0 -104 -18 -208 -59 -304c-25 -61 -79 -153 -197 -153c-162 0 -165 169 -165 237c0 227 94 448 252 448zM300 611c-53 0 -91 -37 -119 -112c-25 -68 -52 -173 -52 -274c0 -121 32 -169 93 -169c46 0 87 24 118 110
c44 119 56 249 56 298c0 31 0 147 -96 147zM169 724l156 110l125 -110l-62 -13l-75 52l-85 -54z" />
    <glyph glyph-name="Odieresis" unicode="&#xd6;" horiz-adv-x="494" 
d="M304 676c154 0 169 -143 169 -228c0 -104 -18 -208 -59 -304c-25 -61 -79 -153 -197 -153c-162 0 -165 169 -165 237c0 227 94 448 252 448zM300 611c-53 0 -91 -37 -119 -112c-25 -68 -52 -173 -52 -274c0 -121 32 -169 93 -169c46 0 87 24 118 110
c44 119 56 249 56 298c0 31 0 147 -96 147zM244 721c-23 0 -51 18 -51 51c0 29 24 51 51 51s51 -22 51 -51c0 -32 -27 -51 -51 -51zM391 721c-25 0 -51 20 -51 51c0 28 23 51 51 51s51 -23 51 -51c0 -29 -25 -51 -51 -51z" />
    <glyph glyph-name="Ograve" unicode="&#xd2;" horiz-adv-x="494" 
d="M304 676c154 0 169 -143 169 -228c0 -104 -18 -208 -59 -304c-25 -61 -79 -153 -197 -153c-162 0 -165 169 -165 237c0 227 94 448 252 448zM300 611c-53 0 -91 -37 -119 -112c-25 -68 -52 -173 -52 -274c0 -121 32 -169 93 -169c46 0 87 24 118 110
c44 119 56 249 56 298c0 31 0 147 -96 147zM195 785l29 67l164 -79l-19 -45z" />
    <glyph glyph-name="Otilde" unicode="&#xd5;" horiz-adv-x="494" 
d="M304 676c154 0 169 -143 169 -228c0 -104 -18 -208 -59 -304c-25 -61 -79 -153 -197 -153c-162 0 -165 169 -165 237c0 227 94 448 252 448zM300 611c-53 0 -91 -37 -119 -112c-25 -68 -52 -173 -52 -274c0 -121 32 -169 93 -169c46 0 87 24 118 110
c44 119 56 249 56 298c0 31 0 147 -96 147zM417 807l21 -40c-9 -14 -36 -53 -75 -53c-14 0 -19 2 -59 24c-21 11 -30 13 -38 13c-13 0 -32 -7 -54 -40l-21 36c21 36 40 65 79 65c17 0 17 0 65 -23c23 -12 31 -14 40 -14c17 0 32 19 42 32z" />
    <glyph glyph-name="Scaron" unicode="&#x160;" horiz-adv-x="426" 
d="M423 527l-64 -25c-8 31 -27 109 -104 109c-64 0 -90 -60 -90 -107c0 -71 46 -97 93 -122c75 -42 133 -73 133 -183c0 -123 -72 -208 -191 -208c-136 0 -174 93 -186 180l67 20c5 -35 20 -135 122 -135c76 0 111 62 111 126c0 78 -42 101 -113 141
c-54 29 -113 68 -113 169c0 94 57 184 171 184c129 0 155 -111 164 -149zM438 822l-156 -110l-125 110l62 12l74 -52l87 54z" />
    <glyph glyph-name="Uacute" unicode="&#xda;" horiz-adv-x="460" 
d="M469 667l-67 -400c-27 -161 -58 -276 -202 -276c-142 0 -151 113 -151 148c0 40 9 92 19 151l62 377h75l-65 -387c-4 -29 -14 -87 -14 -133c0 -26 2 -91 79 -91c76 0 102 52 128 211l68 400h68zM453 789l-171 -63l-21 44l161 84z" />
    <glyph glyph-name="Ucircumflex" unicode="&#xdb;" horiz-adv-x="460" 
d="M469 667l-67 -400c-27 -161 -58 -276 -202 -276c-142 0 -151 113 -151 148c0 40 9 92 19 151l62 377h75l-65 -387c-4 -29 -14 -87 -14 -133c0 -26 2 -91 79 -91c76 0 102 52 128 211l68 400h68zM169 724l156 110l125 -110l-62 -13l-75 52l-85 -54z" />
    <glyph glyph-name="Udieresis" unicode="&#xdc;" horiz-adv-x="460" 
d="M469 667l-67 -400c-27 -161 -58 -276 -202 -276c-142 0 -151 113 -151 148c0 40 9 92 19 151l62 377h75l-65 -387c-4 -29 -14 -87 -14 -133c0 -26 2 -91 79 -91c76 0 102 52 128 211l68 400h68zM244 721c-23 0 -51 18 -51 51c0 29 24 51 51 51s51 -22 51 -51
c0 -32 -27 -51 -51 -51zM391 721c-25 0 -51 20 -51 51c0 28 23 51 51 51s51 -23 51 -51c0 -29 -25 -51 -51 -51z" />
    <glyph glyph-name="Ugrave" unicode="&#xd9;" horiz-adv-x="460" 
d="M469 667l-67 -400c-27 -161 -58 -276 -202 -276c-142 0 -151 113 -151 148c0 40 9 92 19 151l62 377h75l-65 -387c-4 -29 -14 -87 -14 -133c0 -26 2 -91 79 -91c76 0 102 52 128 211l68 400h68zM155 785l29 67l164 -79l-19 -45z" />
    <glyph glyph-name="Yacute" unicode="&#xdd;" horiz-adv-x="392" 
d="M146 667l75 -294l158 294h78l-215 -379l-48 -288h-75l48 288l-97 379h76zM428 789l-171 -63l-21 44l161 84z" />
    <glyph glyph-name="Ydieresis" unicode="&#x178;" horiz-adv-x="392" 
d="M146 667l75 -294l158 294h78l-215 -379l-48 -288h-75l48 288l-97 379h76zM199 721c-23 0 -51 18 -51 51c0 29 24 51 51 51s51 -22 51 -51c0 -32 -27 -51 -51 -51zM346 721c-25 0 -51 20 -51 51c0 28 23 51 51 51s51 -23 51 -51c0 -29 -25 -51 -51 -51z" />
    <glyph glyph-name="Zcaron" unicode="&#x17d;" horiz-adv-x="409" 
d="M434 667l-9 -52l-336 -549h263l-11 -66h-346l11 66l332 537h-234l11 64h319zM428 822l-156 -110l-125 110l62 12l74 -52l87 54z" />
    <glyph glyph-name="aacute" unicode="&#xe1;" horiz-adv-x="409" 
d="M357 309l-30 -175c-14 -83 -16 -101 -13 -134h-68c1 23 1 28 7 67c-37 -56 -79 -76 -123 -76c-42 0 -107 19 -107 119c0 85 46 196 212 196c21 0 39 -2 55 -4c3 15 11 51 11 76c0 63 -50 67 -70 67c-63 0 -86 -52 -100 -84l-57 27c16 35 53 114 159 114
c67 0 132 -33 132 -114c0 -29 -3 -50 -8 -79zM89 119c0 -49 24 -71 59 -71c89 0 121 125 132 197c-15 2 -33 4 -52 4c-86 0 -139 -46 -139 -130zM395 638l-144 -86l-25 40l133 106z" />
    <glyph glyph-name="acircumflex" unicode="&#xe2;" horiz-adv-x="409" 
d="M357 309l-30 -175c-14 -83 -16 -101 -13 -134h-68c1 23 1 28 7 67c-37 -56 -79 -76 -123 -76c-42 0 -107 19 -107 119c0 85 46 196 212 196c21 0 39 -2 55 -4c3 15 11 51 11 76c0 63 -50 67 -70 67c-63 0 -86 -52 -100 -84l-57 27c16 35 53 114 159 114
c67 0 132 -33 132 -114c0 -29 -3 -50 -8 -79zM89 119c0 -49 24 -71 59 -71c89 0 121 125 132 197c-15 2 -33 4 -52 4c-86 0 -139 -46 -139 -130zM124 567l148 116l120 -116l-59 -11l-71 60l-83 -60z" />
    <glyph glyph-name="adieresis" unicode="&#xe4;" horiz-adv-x="409" 
d="M357 309l-30 -175c-14 -83 -16 -101 -13 -134h-68c1 23 1 28 7 67c-37 -56 -79 -76 -123 -76c-42 0 -107 19 -107 119c0 85 46 196 212 196c21 0 39 -2 55 -4c3 15 11 51 11 76c0 63 -50 67 -70 67c-63 0 -86 -52 -100 -84l-57 27c16 35 53 114 159 114
c67 0 132 -33 132 -114c0 -29 -3 -50 -8 -79zM89 119c0 -49 24 -71 59 -71c89 0 121 125 132 197c-15 2 -33 4 -52 4c-86 0 -139 -46 -139 -130zM196 565c-22 0 -49 17 -49 48c0 29 24 49 49 49c24 0 48 -20 48 -49c0 -31 -28 -48 -48 -48zM336 565c-21 0 -49 16 -49 48
c0 28 23 49 48 49s49 -20 49 -49c0 -31 -28 -48 -48 -48z" />
    <glyph glyph-name="agrave" unicode="&#xe0;" horiz-adv-x="409" 
d="M357 309l-30 -175c-14 -83 -16 -101 -13 -134h-68c1 23 1 28 7 67c-37 -56 -79 -76 -123 -76c-42 0 -107 19 -107 119c0 85 46 196 212 196c21 0 39 -2 55 -4c3 15 11 51 11 76c0 63 -50 67 -70 67c-63 0 -86 -52 -100 -84l-57 27c16 35 53 114 159 114
c67 0 132 -33 132 -114c0 -29 -3 -50 -8 -79zM89 119c0 -49 24 -71 59 -71c89 0 121 125 132 197c-15 2 -33 4 -52 4c-86 0 -139 -46 -139 -130zM147 638l36 60l132 -106l-24 -40z" />
    <glyph glyph-name="aring" unicode="&#xe5;" horiz-adv-x="409" 
d="M357 309l-30 -175c-14 -83 -16 -101 -13 -134h-68c1 23 1 28 7 67c-37 -56 -79 -76 -123 -76c-42 0 -107 19 -107 119c0 85 46 196 212 196c21 0 39 -2 55 -4c3 15 11 51 11 76c0 63 -50 67 -70 67c-63 0 -86 -52 -100 -84l-57 27c16 35 53 114 159 114
c67 0 132 -33 132 -114c0 -29 -3 -50 -8 -79zM89 119c0 -49 24 -71 59 -71c89 0 121 125 132 197c-15 2 -33 4 -52 4c-86 0 -139 -46 -139 -130zM270 560c-33 0 -80 27 -80 81c0 49 39 82 81 82c40 0 80 -33 80 -82c0 -54 -46 -81 -81 -81zM271 602c16 0 39 13 39 39
c0 23 -18 40 -39 40s-40 -16 -40 -40c0 -26 22 -39 40 -39z" />
    <glyph glyph-name="atilde" unicode="&#xe3;" horiz-adv-x="409" 
d="M357 309l-30 -175c-14 -83 -16 -101 -13 -134h-68c1 23 1 28 7 67c-37 -56 -79 -76 -123 -76c-42 0 -107 19 -107 119c0 85 46 196 212 196c21 0 39 -2 55 -4c3 15 11 51 11 76c0 63 -50 67 -70 67c-63 0 -86 -52 -100 -84l-57 27c16 35 53 114 159 114
c67 0 132 -33 132 -114c0 -29 -3 -50 -8 -79zM89 119c0 -49 24 -71 59 -71c89 0 121 125 132 197c-15 2 -33 4 -52 4c-86 0 -139 -46 -139 -130zM360 645l20 -38c-25 -44 -54 -53 -71 -53c-21 0 -36 11 -56 27c-18 12 -28 14 -36 14c-27 0 -43 -27 -51 -40l-20 33
c10 24 27 66 75 66c21 0 35 -7 66 -27c19 -12 22 -14 32 -14c16 0 27 12 41 32z" />
    <glyph glyph-name="ccedilla" unicode="&#xe7;" horiz-adv-x="358" 
d="M168 -8l-16 -40c20 -2 68 -5 68 -60c0 -34 -25 -78 -85 -78c-39 0 -64 18 -77 28l16 31c18 -10 36 -20 55 -20c30 0 39 25 39 38c0 37 -40 35 -64 32l31 69c-67 10 -109 57 -109 178c0 101 39 332 193 332c124 0 122 -132 122 -171l-62 -11c-3 69 -5 125 -63 125
c-98 0 -120 -220 -120 -285c0 -32 0 -112 61 -112c56 0 81 72 93 119l60 -20c-11 -48 -34 -141 -142 -155z" />
    <glyph glyph-name="eacute" unicode="&#xe9;" horiz-adv-x="375" 
d="M345 238h-244c-2 -16 -3 -33 -3 -58c0 -31 0 -132 77 -132c55 0 83 59 100 99l50 -28c-31 -77 -78 -128 -155 -128c-143 0 -143 161 -143 191c0 141 57 320 198 320c127 0 127 -134 127 -166c0 -31 -4 -67 -7 -98zM111 295h169c3 26 3 37 3 53c0 26 -1 97 -64 97
c-79 0 -101 -112 -108 -150zM378 638l-144 -86l-25 40l133 106z" />
    <glyph glyph-name="ecircumflex" unicode="&#xea;" horiz-adv-x="375" 
d="M345 238h-244c-2 -16 -3 -33 -3 -58c0 -31 0 -132 77 -132c55 0 83 59 100 99l50 -28c-31 -77 -78 -128 -155 -128c-143 0 -143 161 -143 191c0 141 57 320 198 320c127 0 127 -134 127 -166c0 -31 -4 -67 -7 -98zM111 295h169c3 26 3 37 3 53c0 26 -1 97 -64 97
c-79 0 -101 -112 -108 -150zM107 567l148 116l120 -116l-59 -11l-71 60l-83 -60z" />
    <glyph glyph-name="edieresis" unicode="&#xeb;" horiz-adv-x="375" 
d="M345 238h-244c-2 -16 -3 -33 -3 -58c0 -31 0 -132 77 -132c55 0 83 59 100 99l50 -28c-31 -77 -78 -128 -155 -128c-143 0 -143 161 -143 191c0 141 57 320 198 320c127 0 127 -134 127 -166c0 -31 -4 -67 -7 -98zM111 295h169c3 26 3 37 3 53c0 26 -1 97 -64 97
c-79 0 -101 -112 -108 -150zM179 565c-22 0 -49 17 -49 48c0 29 24 49 49 49c24 0 48 -20 48 -49c0 -31 -28 -48 -48 -48zM319 565c-21 0 -49 16 -49 48c0 28 23 49 48 49s49 -20 49 -49c0 -31 -28 -48 -48 -48z" />
    <glyph glyph-name="egrave" unicode="&#xe8;" horiz-adv-x="375" 
d="M345 238h-244c-2 -16 -3 -33 -3 -58c0 -31 0 -132 77 -132c55 0 83 59 100 99l50 -28c-31 -77 -78 -128 -155 -128c-143 0 -143 161 -143 191c0 141 57 320 198 320c127 0 127 -134 127 -166c0 -31 -4 -67 -7 -98zM111 295h169c3 26 3 37 3 53c0 26 -1 97 -64 97
c-79 0 -101 -112 -108 -150zM130 638l36 60l132 -106l-24 -40z" />
    <glyph glyph-name="iacute" unicode="&#xed;" horiz-adv-x="170" 
d="M160 493l-83 -493h-68l83 493h68zM275 638l-144 -86l-25 40l133 106z" />
    <glyph glyph-name="icircumflex" unicode="&#xee;" horiz-adv-x="170" 
d="M160 493l-83 -493h-68l83 493h68zM4 567l148 116l120 -116l-59 -11l-71 60l-83 -60z" />
    <glyph glyph-name="idieresis" unicode="&#xef;" horiz-adv-x="170" 
d="M160 493l-83 -493h-68l83 493h68zM76 565c-22 0 -49 17 -49 48c0 29 24 49 49 49c24 0 48 -20 48 -49c0 -31 -28 -48 -48 -48zM216 565c-21 0 -49 16 -49 48c0 28 23 49 48 49s49 -20 49 -49c0 -31 -28 -48 -48 -48z" />
    <glyph glyph-name="igrave" unicode="&#xec;" horiz-adv-x="170" 
d="M160 493l-83 -493h-68l83 493h68zM7 638l36 60l132 -106l-24 -40z" />
    <glyph glyph-name="ntilde" unicode="&#xf1;" horiz-adv-x="392" 
d="M14 0l83 493h65l-13 -81c31 54 61 90 119 90c24 0 48 -6 63 -25c23 -27 26 -62 26 -79c0 -37 -11 -103 -16 -130l-44 -268h-66l47 279c10 60 12 86 12 108c0 11 0 58 -43 58c-35 0 -62 -37 -74 -57c-35 -54 -50 -142 -55 -176l-36 -212h-68zM351 645l20 -38
c-25 -44 -54 -53 -71 -53c-21 0 -36 11 -56 27c-18 12 -28 14 -36 14c-27 0 -43 -27 -51 -40l-20 33c10 24 27 66 75 66c21 0 35 -7 66 -27c19 -12 22 -14 32 -14c16 0 27 12 41 32z" />
    <glyph glyph-name="oacute" unicode="&#xf3;" horiz-adv-x="375" 
d="M24 162c0 66 22 340 202 340c121 0 121 -149 121 -177c0 -157 -60 -334 -197 -334c-103 0 -126 99 -126 171zM94 150c0 -87 37 -102 61 -102c92 0 122 194 122 295c0 11 0 46 -9 67c-10 23 -27 35 -46 35c-44 0 -72 -32 -90 -81c-31 -82 -38 -187 -38 -214zM378 638
l-144 -86l-25 40l133 106z" />
    <glyph glyph-name="ocircumflex" unicode="&#xf4;" horiz-adv-x="375" 
d="M24 162c0 66 22 340 202 340c121 0 121 -149 121 -177c0 -157 -60 -334 -197 -334c-103 0 -126 99 -126 171zM94 150c0 -87 37 -102 61 -102c92 0 122 194 122 295c0 11 0 46 -9 67c-10 23 -27 35 -46 35c-44 0 -72 -32 -90 -81c-31 -82 -38 -187 -38 -214zM107 567
l148 116l120 -116l-59 -11l-71 60l-83 -60z" />
    <glyph glyph-name="odieresis" unicode="&#xf6;" horiz-adv-x="375" 
d="M24 162c0 66 22 340 202 340c121 0 121 -149 121 -177c0 -157 -60 -334 -197 -334c-103 0 -126 99 -126 171zM94 150c0 -87 37 -102 61 -102c92 0 122 194 122 295c0 11 0 46 -9 67c-10 23 -27 35 -46 35c-44 0 -72 -32 -90 -81c-31 -82 -38 -187 -38 -214zM179 565
c-22 0 -49 17 -49 48c0 29 24 49 49 49c24 0 48 -20 48 -49c0 -31 -28 -48 -48 -48zM319 565c-21 0 -49 16 -49 48c0 28 23 49 48 49s49 -20 49 -49c0 -31 -28 -48 -48 -48z" />
    <glyph glyph-name="ograve" unicode="&#xf2;" horiz-adv-x="375" 
d="M24 162c0 66 22 340 202 340c121 0 121 -149 121 -177c0 -157 -60 -334 -197 -334c-103 0 -126 99 -126 171zM94 150c0 -87 37 -102 61 -102c92 0 122 194 122 295c0 11 0 46 -9 67c-10 23 -27 35 -46 35c-44 0 -72 -32 -90 -81c-31 -82 -38 -187 -38 -214zM130 638
l36 60l132 -106l-24 -40z" />
    <glyph glyph-name="otilde" unicode="&#xf5;" horiz-adv-x="375" 
d="M24 162c0 66 22 340 202 340c121 0 121 -149 121 -177c0 -157 -60 -334 -197 -334c-103 0 -126 99 -126 171zM94 150c0 -87 37 -102 61 -102c92 0 122 194 122 295c0 11 0 46 -9 67c-10 23 -27 35 -46 35c-44 0 -72 -32 -90 -81c-31 -82 -38 -187 -38 -214zM343 645
l20 -38c-25 -44 -54 -53 -71 -53c-21 0 -36 11 -56 27c-18 12 -28 14 -36 14c-27 0 -43 -27 -51 -40l-20 33c10 24 27 66 75 66c21 0 35 -7 66 -27c19 -12 22 -14 32 -14c16 0 27 12 41 32z" />
    <glyph glyph-name="scaron" unicode="&#x161;" horiz-adv-x="341" 
d="M324 390l-55 -25c-18 50 -32 80 -79 80c-45 0 -67 -41 -67 -74c0 -47 30 -63 85 -93c42 -22 90 -58 90 -137c0 -69 -39 -150 -147 -150c-112 0 -136 98 -144 132l59 22c6 -26 22 -97 88 -97c37 0 74 24 74 82c0 49 -25 69 -72 92c-44 23 -98 51 -98 136s62 144 139 144
c88 0 113 -71 127 -112zM375 672l-148 -116l-119 116l59 11l71 -60l82 60z" />
    <glyph glyph-name="uacute" unicode="&#xfa;" horiz-adv-x="392" 
d="M376 493l-82 -493h-66l13 77c-36 -74 -79 -86 -113 -86c-60 0 -95 31 -95 101c0 38 7 77 18 147l43 254h65l-45 -275c-11 -62 -14 -92 -14 -117c0 -12 0 -53 44 -53c67 0 108 110 126 218l38 227h68zM386 638l-144 -86l-25 40l133 106z" />
    <glyph glyph-name="ucircumflex" unicode="&#xfb;" horiz-adv-x="392" 
d="M376 493l-82 -493h-66l13 77c-36 -74 -79 -86 -113 -86c-60 0 -95 31 -95 101c0 38 7 77 18 147l43 254h65l-45 -275c-11 -62 -14 -92 -14 -117c0 -12 0 -53 44 -53c67 0 108 110 126 218l38 227h68zM105 567l148 116l120 -116l-59 -11l-71 60l-83 -60z" />
    <glyph glyph-name="udieresis" unicode="&#xfc;" horiz-adv-x="392" 
d="M376 493l-82 -493h-66l13 77c-36 -74 -79 -86 -113 -86c-60 0 -95 31 -95 101c0 38 7 77 18 147l43 254h65l-45 -275c-11 -62 -14 -92 -14 -117c0 -12 0 -53 44 -53c67 0 108 110 126 218l38 227h68zM187 565c-22 0 -49 17 -49 48c0 29 24 49 49 49c24 0 48 -20 48 -49
c0 -31 -28 -48 -48 -48zM327 565c-21 0 -49 16 -49 48c0 28 23 49 48 49s49 -20 49 -49c0 -31 -28 -48 -48 -48z" />
    <glyph glyph-name="ugrave" unicode="&#xf9;" horiz-adv-x="392" 
d="M376 493l-82 -493h-66l13 77c-36 -74 -79 -86 -113 -86c-60 0 -95 31 -95 101c0 38 7 77 18 147l43 254h65l-45 -275c-11 -62 -14 -92 -14 -117c0 -12 0 -53 44 -53c67 0 108 110 126 218l38 227h68zM138 638l36 60l132 -106l-24 -40z" />
    <glyph glyph-name="yacute" unicode="&#xfd;" horiz-adv-x="324" 
d="M355 493l-224 -526c-40 -92 -69 -142 -136 -142c-21 0 -29 3 -40 8l10 59c10 -1 20 -2 30 -2c45 0 58 32 100 136l-45 467h68l31 -350l140 350h66zM352 638l-144 -86l-25 40l133 106z" />
    <glyph glyph-name="ydieresis" unicode="&#xff;" horiz-adv-x="324" 
d="M355 493l-224 -526c-40 -92 -69 -142 -136 -142c-21 0 -29 3 -40 8l10 59c10 -1 20 -2 30 -2c45 0 58 32 100 136l-45 467h68l31 -350l140 350h66zM153 565c-22 0 -49 17 -49 48c0 29 24 49 49 49c24 0 48 -20 48 -49c0 -31 -28 -48 -48 -48zM293 565
c-21 0 -49 16 -49 48c0 28 23 49 48 49s49 -20 49 -49c0 -31 -28 -48 -48 -48z" />
    <glyph glyph-name="zcaron" unicode="&#x17e;" horiz-adv-x="307" 
d="M326 493l-7 -42l-255 -394h190l-10 -57h-263v42l259 394h-186l9 57h263zM358 672l-148 -116l-119 116l59 11l71 -60l82 60z" />
    <glyph glyph-name="one.superior" horiz-adv-x="290" 
d="M259 673l-61 -364h69l-8 -47h-195l8 47h69l46 274c-31 -22 -55 -27 -79 -31l8 53c53 8 76 34 96 68h47z" />
    <glyph glyph-name="two.superior" horiz-adv-x="290" 
d="M265 315l-9 -53h-218l9 54c46 34 95 73 132 114c59 64 61 110 61 131c0 14 0 63 -47 63s-62 -69 -67 -93l-49 18c8 33 32 124 121 124c73 0 101 -55 101 -110c0 -105 -85 -174 -184 -248h150z" />
    <glyph glyph-name="three.superior" horiz-adv-x="290" 
d="M131 448l9 50c47 -1 64 -1 80 12c19 16 24 46 24 63s-3 53 -44 53c-40 0 -52 -30 -64 -60l-43 23c7 19 31 84 111 84c65 0 95 -42 95 -98c0 -71 -43 -93 -64 -104c16 -12 41 -30 41 -87c0 -63 -40 -127 -121 -127c-44 0 -98 20 -110 104l50 16c5 -26 13 -73 66 -73
c61 0 61 66 61 77c0 61 -38 69 -67 69c-8 0 -13 0 -24 -2z" />
    <glyph glyph-name="a.superior" horiz-adv-x="426" 
d="M356 333h-56c0 16 0 21 2 35c-18 -20 -37 -41 -80 -41c-50 0 -79 31 -79 83c0 13 0 133 151 133c15 0 23 -1 32 -3c1 8 6 31 6 45c0 22 -11 38 -44 38c-39 0 -51 -28 -63 -57l-51 23c15 31 41 84 118 84c45 0 96 -20 96 -81c0 -18 -2 -28 -5 -52l-19 -113
c-11 -65 -11 -72 -8 -94zM204 419c0 -27 12 -42 34 -42c54 0 74 78 81 116c-8 1 -19 2 -29 2c-43 0 -86 -16 -86 -76z" />
    <glyph glyph-name="Omega" unicode="&#x2126;" horiz-adv-x="567" 
d="M123 59l1 3c-47 63 -79 167 -57 296c31 188 153 312 289 312c143 0 207 -141 179 -306c-23 -135 -95 -245 -158 -302l-1 -3h119l-10 -59h-193l8 43c67 50 140 159 164 305c20 122 -9 262 -120 262c-103 0 -186 -114 -211 -263c-23 -137 13 -256 62 -304l-7 -43h-191l9 59
h117z" />
    <glyph glyph-name="uni03BC" unicode="&#x3bc;" horiz-adv-x="392" 
d="M49 -167h-66l111 660h66l-46 -275c-11 -61 -14 -92 -14 -117c0 -12 0 -53 44 -53c67 0 108 110 127 217l38 228h68l-83 -493h-66l13 77c-22 -45 -56 -86 -106 -86c-46 0 -49 26 -52 44z" />
    <glyph glyph-name="pi" unicode="&#x3c0;" horiz-adv-x="464" 
d="M470 430h-63l-49 -298c-13 -73 -13 -108 -11 -132h-64c-6 16 -5 56 7 128l51 302h-140c-24 -121 -84 -335 -131 -430h-65c49 105 105 304 130 430c-49 0 -71 -4 -88 -10l-2 47c22 14 59 25 122 25h320z" />
    <glyph glyph-name="Euro" unicode="&#x20ac;" 
d="M319 313l-16 -51h-143c-1 -12 -1 -23 -1 -34c0 -115 31 -172 91 -172c52 0 94 48 115 122l62 -20c-26 -99 -88 -167 -185 -167c-107 0 -160 81 -160 245v26h-80l16 51h67c2 22 5 44 9 65h-75l16 51h70c38 149 121 247 223 247c114 0 148 -104 151 -174l-73 -10
c0 61 -22 119 -83 119c-43 0 -79 -32 -106 -91c-12 -26 -22 -57 -31 -91h170l-16 -51h-166c-4 -21 -7 -43 -10 -65h155z" />
    <glyph glyph-name="afii61289" unicode="&#x2113;" horiz-adv-x="397" 
d="M328 133l26 -28c-47 -72 -105 -110 -169 -110c-100 0 -122 80 -108 178c1 5 2 9 2 14c-16 -13 -35 -28 -53 -42l-14 40c28 22 54 42 78 65l43 257c28 168 101 223 165 223c68 0 90 -63 76 -150c-20 -116 -104 -230 -221 -340l-7 -38c-18 -111 13 -151 61 -151
c50 0 93 44 121 82zM197 507l-33 -196c83 86 151 178 166 270c10 59 0 95 -40 95c-31 0 -72 -43 -93 -169z" />
    <glyph glyph-name="estimated" unicode="&#x212e;" horiz-adv-x="895" 
d="M863 324h-616c-3 0 -5 -1 -5 -4v-187c0 -8 3 -15 8 -21c60 -62 142 -101 233 -101c99 0 186 44 246 113h54c-68 -80 -178 -132 -301 -132c-209 0 -380 153 -380 341c0 189 171 342 380 342c211 0 381 -153 381 -342v-9zM724 348v188c0 8 -3 16 -10 22
c-59 59 -140 97 -231 97c-90 0 -172 -39 -232 -100c-6 -6 -9 -14 -9 -23v-184c0 -2 2 -6 5 -6h472c4 0 5 4 5 6z" />
    <glyph glyph-name="partialdiff" unicode="&#x2202;" horiz-adv-x="447" 
d="M149 641l-13 53c31 24 78 50 144 50c104 0 190 -103 148 -354c-40 -241 -141 -394 -279 -394c-104 0 -139 100 -120 215c25 151 125 245 217 245c69 0 104 -49 113 -77h1c2 10 5 27 7 37c26 157 -21 269 -104 269c-49 0 -87 -23 -114 -44zM165 56h1c74 0 143 117 175 250
c-6 40 -36 92 -95 92c-66 0 -133 -86 -150 -188c-16 -93 11 -154 69 -154z" />
    <glyph glyph-name="product" unicode="&#x220f;" horiz-adv-x="635" 
d="M612 596h-84v-687h-67v687h-219v-687h-67v687h-84v65h521v-65z" />
    <glyph glyph-name="summation" unicode="&#x2211;" horiz-adv-x="517" 
d="M499 -91h-411v48l217 327l-207 327v50h387v-61h-297v-3l193 -301l-211 -317v-3h329v-67z" />
    <glyph glyph-name="uni2219" unicode="&#x2219;" horiz-adv-x="222" 
d="M78 388h86l-18 -109h-86z" />
    <glyph glyph-name="radical" unicode="&#x221a;" horiz-adv-x="544" 
d="M542 787l-180 -927h-58l-131 438l-61 -23l-13 43l118 45l99 -335c6 -26 12 -57 15 -74l1 -1c3 18 7 47 11 74l150 760h49z" />
    <glyph glyph-name="infinity" unicode="&#x221e;" horiz-adv-x="689" 
d="M647 276v-1c0 -85 -63 -139 -132 -139c-53 0 -97 31 -156 101c-45 -52 -92 -101 -162 -101s-129 58 -129 135c0 80 57 138 135 138c65 0 113 -47 158 -101c44 48 87 101 160 101c74 0 126 -55 126 -133zM203 179h1c54 0 95 51 131 90c-39 48 -76 98 -137 98
c-54 0 -85 -45 -84 -97c0 -51 37 -91 89 -91zM516 367h-1c-56 0 -101 -63 -131 -93c56 -63 87 -95 134 -95c53 0 84 48 84 92c0 60 -36 96 -86 96z" />
    <glyph glyph-name="integral" unicode="&#x222b;" horiz-adv-x="380" 
d="M362 796l-11 -50c-7 5 -18 9 -29 9c-15 0 -31 -8 -42 -24c-21 -27 -27 -76 -27 -168c0 -148 10 -320 10 -475c0 -101 -15 -158 -36 -192c-19 -33 -52 -48 -87 -48c-22 0 -44 7 -53 14l11 52c8 -4 20 -10 36 -10c14 0 29 7 39 23c15 22 26 66 26 160
c0 157 -11 332 -11 483c0 104 12 161 46 200c20 25 51 38 82 38c18 0 37 -6 46 -12z" />
    <glyph glyph-name="approxequal" unicode="&#x2248;" horiz-adv-x="484" 
d="M420 397l28 -23c-21 -47 -56 -85 -108 -85c-32 0 -56 12 -95 35c-27 17 -49 30 -76 30c-38 0 -60 -30 -80 -65l-29 23c24 52 65 85 114 85c41 0 72 -23 93 -35c29 -16 49 -30 76 -30c34 0 54 24 77 65zM420 250l28 -23c-21 -47 -56 -85 -108 -85c-32 0 -55 13 -95 36
c-27 16 -49 30 -76 30c-39 0 -60 -32 -80 -66l-29 23c24 52 65 86 114 86c42 0 71 -23 93 -35c28 -16 48 -30 77 -30c33 0 53 23 76 64z" />
    <glyph glyph-name="notequal" unicode="&#x2260;" horiz-adv-x="497" 
d="M365 456l-36 -81h125v-46h-141l-55 -123h196v-44h-213l-43 -98l-35 15l36 83h-120v44h138l54 123h-192v46h209l42 96z" />
    <glyph glyph-name="lessequal" unicode="&#x2264;" horiz-adv-x="509" 
d="M464 101l-369 197v47l369 197v-55l-322 -164v-2l322 -166v-54zM467 18h-376v46h376v-46z" />
    <glyph glyph-name="greaterequal" unicode="&#x2265;" horiz-adv-x="508" 
d="M96 542l369 -197v-47l-369 -197v54l322 165v2l-322 165v55zM466 18h-374v46h374v-46z" />
    <glyph glyph-name="lozenge" unicode="&#x25ca;" horiz-adv-x="547" 
d="M501 330l-166 -367h-56l-163 367l166 367h56zM438 328l-112 254c-7 16 -13 39 -16 53h-3c-3 -15 -8 -34 -16 -53l-113 -250l114 -256c7 -20 12 -40 14 -52h4c3 13 9 38 15 51z" />
    <glyph glyph-name="uni00A0" unicode="&#xa0;" horiz-adv-x="222" 
 />
    <glyph glyph-name="uni00AD" unicode="&#xad;" horiz-adv-x="239" 
d="M40 279h168l-9 -57h-168z" />
    <glyph glyph-name="uni02C9" unicode="&#x2c9;" horiz-adv-x="460" 
d="M181 624h223l-10 -57h-222z" />
    <glyph glyph-name="uni2215" unicode="&#x2215;" horiz-adv-x="85" 
d="M238 667h51l-413 -667h-51z" />
    <glyph glyph-name="uni03A9" unicode="&#x3a9;" horiz-adv-x="567" 
d="M123 59l1 3c-47 63 -79 167 -57 296c31 188 153 312 289 312c143 0 207 -141 179 -306c-23 -135 -95 -245 -158 -302l-1 -3h119l-10 -59h-193l8 43c67 50 140 159 164 305c20 122 -9 262 -120 262c-103 0 -186 -114 -211 -263c-23 -137 13 -256 62 -304l-7 -43h-191l9 59
h117z" />
    <glyph glyph-name="o.superior" 
d="M290 673c86 0 88 -97 88 -123c0 -100 -39 -223 -139 -223c-43 0 -63 23 -70 34c-12 18 -22 41 -22 84c0 15 3 228 143 228zM285 624c-13 0 -37 -2 -54 -49c-20 -54 -24 -123 -24 -137c0 -11 0 -62 37 -62c59 0 74 133 74 185c0 20 0 63 -33 63z" />
    <glyph glyph-name="uni2206" unicode="&#x2206;" horiz-adv-x="521" 
d="M-15 0l8 47l302 630h76l89 -629l-8 -48h-467zM61 58h330l-52 354c-6 53 -20 127 -23 172h-3c-14 -40 -50 -107 -73 -160z" />
    <glyph glyph-name="fi" unicode="&#xfb01;" horiz-adv-x="392" 
d="M182 493h79l-10 -57h-78l-73 -436h-68l73 436h-63l10 57h62c20 112 45 183 152 183c16 0 26 -1 39 -3l-10 -60c-18 2 -23 2 -28 2c-63 0 -70 -41 -85 -122zM381 493l-82 -493h-68l82 493h68zM410 667l-14 -83h-68l14 83h68z" />
    <glyph glyph-name="fl" unicode="&#xfb02;" horiz-adv-x="392" 
d="M182 493h79l-10 -57h-78l-73 -436h-68l73 436h-63l10 57h62c20 112 45 183 152 183c16 0 26 -1 39 -3l-10 -60c-18 2 -23 2 -28 2c-63 0 -70 -41 -85 -122zM410 667l-111 -667h-68l111 667h68z" />
    <glyph glyph-name="onesuperior" unicode="&#xb9;" horiz-adv-x="290" 
d="M259 673l-61 -364h69l-8 -47h-195l8 47h69l46 274c-31 -22 -55 -27 -79 -31l8 53c53 8 76 34 96 68h47z" />
    <glyph glyph-name="threesuperior" unicode="&#xb3;" horiz-adv-x="290" 
d="M131 448l9 50c47 -1 64 -1 80 12c19 16 24 46 24 63s-3 53 -44 53c-40 0 -52 -30 -64 -60l-43 23c7 19 31 84 111 84c65 0 95 -42 95 -98c0 -71 -43 -93 -64 -104c16 -12 41 -30 41 -87c0 -63 -40 -127 -121 -127c-44 0 -98 20 -110 104l50 16c5 -26 13 -73 66 -73
c61 0 61 66 61 77c0 61 -38 69 -67 69c-8 0 -13 0 -24 -2z" />
    <glyph glyph-name="twosuperior" unicode="&#xb2;" horiz-adv-x="290" 
d="M265 315l-9 -53h-218l9 54c46 34 95 73 132 114c59 64 61 110 61 131c0 14 0 63 -47 63s-62 -69 -67 -93l-49 18c8 33 32 124 121 124c73 0 101 -55 101 -110c0 -105 -85 -174 -184 -248h150z" />
    <glyph glyph-name="uni2010" unicode="&#x2010;" horiz-adv-x="239" 
d="M40 279h168l-9 -57h-168z" />
    </font>
</defs>
</svg>
